<?xml version="1.0" encoding="UTF-8" standalone="no"?>
<!-- Created with Inkscape (http://www.inkscape.org/) -->

<svg
   width="124.45965mm"
   height="44.451874mm"
   viewBox="0 0 124.45965 44.451874"
   version="1.1"
   id="svg5"
   xml:space="preserve"
   xmlns:inkscape="http://www.inkscape.org/namespaces/inkscape"
   xmlns:sodipodi="http://sodipodi.sourceforge.net/DTD/sodipodi-0.dtd"
   xmlns="http://www.w3.org/2000/svg"
   xmlns:svg="http://www.w3.org/2000/svg"><sodipodi:namedview
     id="namedview7"
     pagecolor="#505050"
     bordercolor="#ffffff"
     borderopacity="1"
     inkscape:showpageshadow="0"
     inkscape:pageopacity="0"
     inkscape:pagecheckerboard="1"
     inkscape:deskcolor="#505050"
     inkscape:document-units="mm"
     showgrid="false" /><defs
     id="defs2"><linearGradient
       id="linearGradient3121"
       inkscape:swatch="solid"><stop
         style="stop-color:#000000;stop-opacity:1;"
         offset="0"
         id="stop3119" /></linearGradient></defs><g
     inkscape:label="Layer 1"
     inkscape:groupmode="layer"
     id="layer1"
     transform="translate(-30.639724,-159.59433)"><path
       style="fill:#000000;stroke-width:0.264583"
       d="m 40.276782,194.66081 -9.382595,-9.38539 0.769116,-0.80278 0.769116,-0.80279 -0.896347,-0.92479 -0.896348,-0.9248 0.896348,-0.92479 0.896347,-0.9248 -0.769572,-0.80326 -0.769572,-0.80326 9.384911,-9.38491 9.384912,-9.38491 9.383858,9.38665 9.383858,9.38665 -0.84828,0.87521 -0.848281,0.8752 0.846463,0.84646 0.846466,0.84647 -0.846466,0.87332 -0.846463,0.87333 0.853427,0.85343 0.853424,0.85342 -9.390862,9.39087 -9.390864,9.39086 z m 18.457487,-0.48231 8.805487,-8.80843 -0.680545,-0.63934 -0.680543,-0.63934 -8.258715,8.23524 -8.258715,8.23524 -8.326407,-8.1808 -8.326408,-8.18079 -0.511365,0.51136 -0.511365,0.51137 3.546106,3.75484 c 3.382135,3.58122 13.981961,13.98686 14.263211,14.00192 0.07358,0.004 4.096242,-3.95663 8.939259,-8.80127 z m -1.058259,-2.6459 8.011517,-8.01475 -0.605367,-0.56871 -0.605366,-0.56871 -7.010903,6.96847 c -3.855997,3.83266 -7.236478,7.11167 -7.512182,7.28668 l -0.501278,0.3182 -7.315101,-7.3116 -7.315101,-7.3116 -0.639163,0.68036 -0.639163,0.68036 7.924722,7.92802 c 4.358597,4.36041 7.985729,7.92803 8.060294,7.92803 0.07456,0 3.740755,-3.60664 8.147091,-8.01475 z m -0.871022,-16.85609 -7.141305,-7.14498 -7.143751,7.14375 -7.14375,7.14375 7.141306,7.14498 7.141305,7.14498 7.14375,-7.14375 7.14375,-7.14375 z m -23.151042,6.48229 -0.634982,-0.6759 -0.661459,0.66146 -0.661458,0.66145 0.634982,0.67591 0.634982,0.67591 0.661459,-0.66146 0.661458,-0.66146 z m 33.21366,1.18129 0.487341,-0.5385 -0.578625,-0.57863 -0.578625,-0.57862 -0.578626,0.57862 -0.578625,0.57863 0.487341,0.5385 c 0.268037,0.29618 0.569498,0.53851 0.66991,0.53851 0.100412,0 0.401873,-0.24233 0.669909,-0.53851 z M 49.661238,166.73901 c 0.143605,0 3.54113,3.27846 7.550055,7.28547 l 7.288953,7.28547 0.576668,-0.61384 0.57667,-0.61383 -8.06286,-8.05961 -8.062858,-8.05961 -7.992516,7.99252 -7.992516,7.99251 0.639698,0.68093 0.639697,0.68093 7.288954,-7.28547 c 4.008925,-4.00701 7.406449,-7.28547 7.550055,-7.28547 z m 8.199197,4.49503 8.331486,8.32834 0.59428,-0.59428 0.594281,-0.59428 -8.925272,-8.92527 -8.925273,-8.92527 -8.856493,8.85353 -8.856493,8.85353 0.57669,0.61386 0.57669,0.61386 8.279308,-8.27618 8.279307,-8.27617 z m 55.300805,18.39407 c -2.52634,-0.88562 -3.98349,-3.63354 -3.94963,-7.44825 l 0.0191,-2.15395 0.77463,-1.55019 c 1.64978,-3.30155 5.40569,-4.5727 9.57203,-3.23957 0.95193,0.3046 1.00032,0.43017 0.54818,1.42251 -0.21166,0.46454 -0.44521,0.6311 -0.7276,0.5189 -3.19511,-1.26938 -6.0189,-0.5063 -7.42736,2.00711 l -0.66146,1.18038 0.0138,2.11667 0.0138,2.11667 0.55334,1.05833 c 1.23591,2.3638 5.50236,3.5079 7.79574,2.09051 0.15463,-0.0956 0.22394,0.24706 0.17366,0.85841 l -0.0837,1.01745 -0.79375,0.16833 c -1.44432,0.30628 -4.74549,0.21366 -5.82083,-0.16331 z m -38.76146,-7.30589 v -7.43554 l 3.241146,0.0934 3.241146,0.0933 0.898385,0.52916 c 2.766949,1.62979 2.819014,5.31082 0.101301,7.16209 l -0.803744,0.54749 1.953679,3.23736 1.953675,3.23736 -1.245566,-0.0807 -1.245565,-0.0807 -1.726401,-2.97656 -1.726401,-2.97656 h -1.394786 -1.394785 v 3.0427 3.04271 H 75.325822 74.39978 Z m 5.789391,-0.53064 c 1.689314,-0.5889 2.154952,-2.9156 0.845544,-4.225 l -0.773395,-0.7734 h -2.00473 -2.004726 v 2.64583 2.64584 h 1.548018 c 0.851408,0 1.926591,-0.13197 2.389289,-0.29327 z m 9.821026,7.78452 c 0,-0.11749 1.273541,-3.45842 2.830091,-7.42431 l 2.83009,-7.21069 h 0.85274 0.85275 l 2.3064,5.88698 c 1.268512,3.23783 2.582132,6.57815 2.919142,7.42293 l 0.61275,1.53595 -1.07406,-0.0807 -1.07405,-0.0807 -0.84682,-2.11667 -0.846822,-2.11666 h -2.88621 -2.88621 l -0.81801,2.11666 -0.81802,2.11667 -0.976879,0.0821 c -0.537284,0.0452 -0.976882,-0.014 -0.976882,-0.13149 z m 7.589541,-9.08363 -1.06602,-2.91529 -1.00792,2.71686 c -0.55435,1.49426 -1.01011,2.80615 -1.0128,2.91529 -0.003,0.10914 0.93059,0.19843 2.07394,0.19843 h 2.07883 z m 30.245882,1.85696 v -7.40833 h 4.23333 4.23333 v 0.92604 0.92604 h -3.30729 -3.30729 v 2.24896 2.24896 h 3.04271 3.04271 v 0.79375 0.79375 h -3.04271 -3.04271 v 2.64583 2.64583 h 3.30729 3.30729 v 0.79375 0.79375 h -4.23333 -4.23333 z m 16.40416,0 v -7.40833 h 0.92605 0.92604 l 0.005,3.50573 0.005,3.50572 2.31003,-2.51123 c 1.27051,-1.38118 2.72789,-2.967 3.23862,-3.52405 l 0.92859,-1.01281 1.17042,0.0845 1.17042,0.0845 -2.21742,2.38125 c -1.21958,1.30969 -2.56037,2.75369 -2.97954,3.20889 l -0.76213,0.82763 3.06426,4.1333 3.06425,4.1333 -1.25768,-0.01 -1.25768,-0.01 -2.51354,-3.39801 -2.51354,-3.39802 -0.72761,0.51535 -0.7276,0.51535 v 2.8924 2.8924 h -0.92604 -0.92605 v -7.40833 z"
       id="path3247"
       inkscape:export-filename="racek_chico.svg"
       inkscape:export-xdpi="96"
       inkscape:export-ydpi="96" /></g></svg>
