<?xml version="1.0" encoding="UTF-8" standalone="no"?>
<!-- Created with Inkscape (http://www.inkscape.org/) -->

<svg
   width="109.53752mm"
   height="104.37709mm"
   viewBox="0 0 109.53752 104.37709"
   version="1.1"
   id="svg5"
   xml:space="preserve"
   xmlns="http://www.w3.org/2000/svg"
   xmlns:svg="http://www.w3.org/2000/svg"><defs
     id="defs2" /><g
     id="layer1"
     transform="translate(-35.248093,-78.171934)"><path
       style="fill:#000000;stroke-width:0.264583"
       d="m 52.187734,182.54862 c -0.568375,0 -1.106992,-0.11906 -1.19693,-0.26458 -0.09875,-0.15979 0.261837,-0.26458 0.910426,-0.26458 h 1.073949 v -0.48142 c 0,-0.28911 -0.34349,-0.6326 -0.859895,-0.8599 -0.602499,-0.26518 -0.883701,-0.58325 -0.939419,-1.06258 -0.04374,-0.37626 0.09789,-0.83135 0.314729,-1.01131 0.21684,-0.17996 0.719693,-0.28883 1.117452,-0.24193 0.397759,0.0469 0.768218,0.22254 0.823243,0.39032 0.06345,0.19349 -0.215894,0.29026 -0.763762,0.26459 -0.634849,-0.0298 -0.889354,0.084 -0.960199,0.4291 -0.06757,0.3292 0.148746,0.55503 0.723606,0.75543 0.450998,0.15722 0.940737,0.51146 1.088305,0.78719 0.18351,0.34289 0.178803,0.66858 -0.0149,1.03051 -0.208991,0.3905 -0.553989,0.52916 -1.316611,0.52916 z m 4.76068,0 h -1.349661 l 0.07728,-2.05052 0.07727,-2.05052 1.027055,-0.0842 c 0.56488,-0.0463 1.154239,0.043 1.309687,0.19844 0.200457,0.20046 -0.002,0.28264 -0.696325,0.28264 h -0.978958 v 0.66145 0.66146 h 0.79375 c 0.436562,0 0.79375,0.11906 0.79375,0.26459 0,0.14552 -0.357188,0.26458 -0.79375,0.26458 h -0.79375 v 0.66146 0.66146 h 0.778134 c 0.427974,0 0.85172,0.11906 0.941658,0.26458 0.100851,0.16318 -0.35374,0.26458 -1.186141,0.26458 z m 5.302184,0 h -1.307912 l -0.41188,-0.58804 c -0.22653,-0.32342 -0.411876,-0.98367 -0.411876,-1.46723 0,-0.58069 0.220495,-1.09969 0.649433,-1.52863 0.357187,-0.35719 0.94276,-0.64943 1.301276,-0.64943 0.358513,0 0.839491,0.072 1.06884,0.16001 0.229346,0.088 0.353531,0.26271 0.275963,0.38821 -0.07756,0.12551 -0.481198,0.16016 -0.896961,0.077 -0.561787,-0.11236 -0.905989,-10e-4 -1.340218,0.4331 l -0.584287,0.58429 0.163835,0.81918 c 0.09011,0.45055 0.310872,0.91258 0.490582,1.02672 0.179711,0.11415 0.654167,0.20937 1.054349,0.21159 l 0.727604,0.004 v -0.52917 c 0,-0.29104 -0.171566,-0.52917 -0.381259,-0.52917 -0.209693,0 -0.454845,-0.11906 -0.544782,-0.26458 -0.0954,-0.15436 0.17364,-0.26458 0.645842,-0.26458 h 0.809366 v 1.05833 1.05833 z m 5.08979,0 c -0.443664,0 -0.96964,-0.19637 -1.168829,-0.43638 -0.217564,-0.26215 -0.36255,-1.07088 -0.363127,-2.02552 -5.29e-4,-1.00197 0.116623,-1.62942 0.317272,-1.69817 0.222785,-0.0763 0.341821,0.432 0.396875,1.69479 l 0.07864,1.80382 h 0.79375 0.79375 l 0.132292,-1.69912 c 0.07961,-1.02245 0.264007,-1.74248 0.463021,-1.80799 0.241572,-0.0795 0.330729,0.34964 0.330729,1.59198 v 1.70083 l -0.483854,0.43788 c -0.266121,0.24084 -0.846855,0.43788 -1.290521,0.43788 z m 4.420209,0 c -0.15434,0 -0.264584,-0.88194 -0.264584,-2.11666 v -2.11667 l 0.595313,0.004 c 0.327422,0.002 0.864505,0.0757 1.193519,0.16391 0.341122,0.0914 0.668557,0.44059 0.761908,0.81253 0.106606,0.42474 0.01622,0.79972 -0.25916,1.07509 l -0.422857,0.42286 0.542425,0.87766 0.542428,0.87767 h -0.41166 c -0.226412,0 -0.596368,-0.35719 -0.822124,-0.79375 -0.225756,-0.43656 -0.585999,-0.79375 -0.800545,-0.79375 -0.257034,0 -0.39008,0.27073 -0.39008,0.79375 0,0.43656 -0.119063,0.79375 -0.264583,0.79375 z m 0.857191,-2.16441 c 0.32742,-0.0467 0.635072,-0.30716 0.687494,-0.58201 0.05218,-0.2736 -0.06566,-0.5992 -0.261882,-0.72355 -0.196218,-0.12435 -0.50559,-0.22792 -0.687491,-0.23014 -0.193633,-0.002 -0.330729,0.3326 -0.330729,0.8081 v 0.81215 z m 3.905309,2.16441 c -0.15434,0 -0.264584,-0.88194 -0.264584,-2.11666 0,-1.23473 0.110244,-2.11667 0.264584,-2.11667 0.154339,0 0.264583,0.88194 0.264583,2.11667 0,1.23472 -0.110244,2.11666 -0.264583,2.11666 z m 3.82533,0 h -1.201756 l 0.07728,-2.05052 0.07727,-2.05052 0.940146,-0.079 c 0.647055,-0.0544 1.16258,0.0959 1.653646,0.48222 l 0.713499,0.56124 v 1.03913 c 0,0.68635 -0.179649,1.21878 -0.529166,1.5683 -0.37383,0.37383 -0.881944,0.52916 -1.73092,0.52916 z m 0.26071,-0.52916 c 0.368091,0 0.823809,-0.25321 1.058333,-0.58804 0.226531,-0.32342 0.411877,-0.79967 0.411877,-1.05834 0,-0.25866 -0.238125,-0.70842 -0.529167,-0.99946 -0.291042,-0.29104 -0.767292,-0.52916 -1.058333,-0.52916 H 79.96268 v 1.5875 1.5875 z m 4.003595,0.52916 c -0.273841,0 -0.155075,-0.53663 0.468061,-2.11488 0.459256,-1.16318 0.947934,-2.07804 1.085946,-2.03302 0.138014,0.045 0.584499,0.89575 0.992187,1.89051 0.407691,0.99476 0.741254,1.90962 0.741254,2.03302 0,0.12341 -0.12201,0.22437 -0.271131,0.22437 -0.149122,0 -0.384303,-0.29765 -0.522619,-0.66146 l -0.251486,-0.66145 h -0.771615 -0.771615 l -0.166016,0.66145 c -0.09131,0.36381 -0.331144,0.66146 -0.532966,0.66146 z m 1.441038,-1.85208 c 0.287922,0 0.515125,-0.0893 0.504896,-0.19844 -0.01021,-0.10914 -0.10504,-0.41807 -0.21069,-0.68652 l -0.192098,-0.48809 -0.312801,0.68652 -0.312801,0.68653 z m 4.87799,1.85208 h -1.201756 l 0.07728,-2.05052 0.07727,-2.05052 0.940147,-0.079 c 0.647054,-0.0544 1.162579,0.0959 1.653646,0.48222 l 0.713499,0.56124 v 1.03913 c 0,0.68635 -0.179649,1.21878 -0.529167,1.5683 -0.373829,0.37383 -0.881943,0.52916 -1.73092,0.52916 z m 0.26071,-0.52916 c 0.368091,0 0.823809,-0.25321 1.058334,-0.58804 0.22653,-0.32342 0.411876,-0.79967 0.411876,-1.05834 0,-0.25866 -0.238125,-0.70842 -0.529166,-0.99946 -0.291042,-0.29104 -0.767292,-0.52916 -1.058334,-0.52916 h -0.529166 v 1.5875 1.5875 z m 7.291044,0.52916 c -0.15434,0 -0.264583,-0.88194 -0.264583,-2.11666 v -2.11667 h 0.811143 c 0.44613,0 1.041446,0.12325 1.322916,0.27389 0.31653,0.1694 0.51177,0.55297 0.51177,1.00542 0,0.40234 -0.14287,0.8744 -0.3175,1.04902 -0.17462,0.17463 -0.650871,0.3175 -1.058329,0.3175 h -0.740834 v 0.79375 c 0,0.43656 -0.119062,0.79375 -0.264583,0.79375 z m 0.992187,-2.16524 c 0.511165,-0.0588 0.751869,-0.25404 0.809179,-0.6563 0.0553,-0.38831 -0.0929,-0.62798 -0.460659,-0.74469 -0.298222,-0.0947 -0.66235,-0.0979 -0.809172,-0.007 -0.146823,0.0907 -0.266952,0.46352 -0.266952,0.8284 v 0.66341 l 0.727604,-0.0837 z m 3.891479,2.16524 h -0.40801 l 0.0773,-2.05052 0.0773,-2.05052 0.8141,-0.0795 c 0.51716,-0.0505 1.04794,0.11323 1.45521,0.44889 l 0.64111,0.52839 -0.46425,0.83146 -0.46425,0.83145 0.54841,0.77017 0.54841,0.77017 h -0.40809 c -0.22446,0 -0.59281,-0.35719 -0.81856,-0.79375 -0.22576,-0.43656 -0.586,-0.79375 -0.80055,-0.79375 -0.25703,0 -0.39008,0.27073 -0.39008,0.79375 0,0.53879 -0.13106,0.79375 -0.408,0.79375 z m 1.00061,-2.16441 c 0.32742,-0.0467 0.63507,-0.30716 0.68749,-0.58201 0.0522,-0.2736 -0.0657,-0.5992 -0.26188,-0.72355 -0.19622,-0.12435 -0.50559,-0.22792 -0.68749,-0.23014 -0.19363,-0.002 -0.33073,0.3326 -0.33073,0.8081 v 0.81215 z m 3.90531,2.16441 c -0.15434,0 -0.26459,-0.88194 -0.26459,-2.11666 0,-1.23473 0.11025,-2.11667 0.26459,-2.11667 0.15434,0 0.26458,0.88194 0.26458,2.11667 0,1.23472 -0.11024,2.11666 -0.26458,2.11666 z m 4.00203,-0.0552 c -0.16203,0.054 -0.42651,-0.23889 -0.58773,-0.65091 -0.16122,-0.41201 -0.45961,-1.21056 -0.66309,-1.77456 -0.20348,-0.564 -0.36996,-1.18908 -0.36996,-1.38906 0,-0.19999 0.0944,-0.36361 0.20979,-0.36361 0.11539,0 0.43238,0.65484 0.70443,1.45521 0.27206,0.80036 0.57262,1.45521 0.66793,1.45521 0.0953,0 0.37971,-0.65485 0.63201,-1.45521 0.25229,-0.80037 0.57169,-1.45521 0.70977,-1.45521 0.13809,0 0.25107,0.1641 0.25107,0.36466 0,0.20057 -0.28341,1.11855 -0.6298,2.03997 -0.34639,0.92142 -0.76238,1.7195 -0.92442,1.77351 z m 3.29385,0.0552 c -0.27384,0 -0.15507,-0.53663 0.46806,-2.11488 0.45926,-1.16318 0.94794,-2.07804 1.08595,-2.03302 0.13801,0.045 0.5845,0.89575 0.99219,1.89051 0.40769,0.99476 0.74125,1.90962 0.74125,2.03302 0,0.12341 -0.12201,0.22437 -0.27113,0.22437 -0.14912,0 -0.3843,-0.29765 -0.52262,-0.66146 l -0.25149,-0.66145 h -0.77161 -0.77162 l -0.16601,0.66145 c -0.0913,0.36381 -0.33115,0.66146 -0.53297,0.66146 z m 1.44104,-1.85208 c 0.28792,0 0.51513,-0.0893 0.5049,-0.19844 -0.0102,-0.10914 -0.10504,-0.41807 -0.21069,-0.68652 l -0.1921,-0.48809 -0.3128,0.68652 -0.3128,0.68653 z m 4.87799,1.85208 h -1.20175 l 0.0773,-2.05052 0.0773,-2.05052 0.94014,-0.079 c 0.64706,-0.0544 1.16258,0.0959 1.65365,0.48222 l 0.7135,0.56124 v 1.03913 c 0,0.68635 -0.17965,1.21878 -0.52917,1.5683 -0.37383,0.37383 -0.88194,0.52916 -1.73092,0.52916 z m 0.26071,-0.52916 c 0.36809,0 0.82381,-0.25321 1.05833,-0.58804 0.22654,-0.32342 0.41188,-0.79967 0.41188,-1.05834 0,-0.25866 -0.23812,-0.70842 -0.52917,-0.99946 -0.29104,-0.29104 -0.76729,-0.52916 -1.05833,-0.52916 h -0.52917 v 1.5875 1.5875 z m 4.0036,0.52916 c -0.27384,0 -0.15508,-0.53663 0.46806,-2.11488 0.45925,-1.16318 0.94793,-2.07804 1.08594,-2.03302 0.13802,0.045 0.5845,0.89575 0.99219,1.89051 0.40769,0.99476 0.74125,1.90962 0.74125,2.03302 0,0.12341 -0.12201,0.22437 -0.27113,0.22437 -0.14912,0 -0.3843,-0.29765 -0.52262,-0.66146 l -0.25148,-0.66145 h -0.77162 -0.77161 l -0.16602,0.66145 c -0.0913,0.36381 -0.33114,0.66146 -0.53296,0.66146 z m 1.44103,-1.85208 c 0.28793,0 0.51513,-0.0893 0.5049,-0.19844 -0.0102,-0.10914 -0.10504,-0.41807 -0.21069,-0.68652 l -0.1921,-0.48809 -0.3128,0.68652 -0.3128,0.68653 z m -91.339838,-5.02708 c -0.552979,0 -1.005416,-0.11188 -1.005416,-0.24861 0,-0.13674 0.43728,-0.28557 0.971735,-0.33073 0.534454,-0.0452 1.018298,-0.22397 1.075208,-0.39733 0.05691,-0.17336 -0.291074,-0.5174 -0.773298,-0.76452 -0.482223,-0.24713 -0.964244,-0.58153 -1.071156,-0.74313 -0.106913,-0.16159 -0.196209,-0.50472 -0.198438,-0.7625 -0.0022,-0.25778 0.284825,-0.60032 0.637896,-0.76119 0.353071,-0.16087 0.953253,-0.21436 1.333738,-0.11886 0.380484,0.0955 0.620093,0.28964 0.532462,0.43143 -0.08763,0.14178 -0.428756,0.19017 -0.758058,0.10752 -0.366801,-0.0921 -0.726774,0.004 -0.929278,0.24802 l -0.330548,0.39828 1.077785,0.68038 c 0.604917,0.38187 1.077785,0.88787 1.077785,1.1533 0,0.26012 -0.142875,0.61581 -0.3175,0.79044 -0.174625,0.17462 -0.769938,0.3175 -1.322917,0.3175 z m 5.635171,0 c -0.679135,0 -1.162902,-0.17744 -1.500338,-0.5503 -0.314078,-0.34706 -0.498014,-0.94382 -0.498014,-1.61575 0,-0.79758 0.155528,-1.19138 0.61861,-1.56637 0.340236,-0.2755 0.953967,-0.50092 1.363846,-0.50092 0.489953,0 0.933081,0.23881 1.293605,0.69714 0.301604,0.38343 0.54837,1.07131 0.54837,1.52863 0,0.45732 -0.185345,1.09611 -0.411877,1.41953 -0.302373,0.43169 -0.678366,0.58804 -1.414202,0.58804 z m 0.08461,-0.58339 c 0.573374,-0.0578 0.836453,-0.26471 1.012416,-0.79631 0.163244,-0.49318 0.127398,-0.94917 -0.114394,-1.45521 -0.193674,-0.40533 -0.604069,-0.77307 -0.911989,-0.8172 -0.30792,-0.0441 -0.75329,0.11321 -0.989709,0.34963 -0.23642,0.23642 -0.429855,0.81426 -0.429855,1.28408 0,0.46983 0.148243,1.00247 0.329428,1.18366 0.181185,0.18118 0.678031,0.29429 1.104103,0.25135 z m 5.048761,0.58339 h -1.190625 v -2.11667 c 0,-1.23472 0.110243,-2.11667 0.264584,-2.11667 0.15119,0 0.264583,0.79375 0.264583,1.85209 v 1.85208 h 0.926042 c 0.509323,0 0.926041,0.11906 0.926041,0.26458 0,0.14552 -0.535781,0.26459 -1.190625,0.26459 z m 4.707917,0 c -0.443664,0 -0.96964,-0.19638 -1.168829,-0.43639 -0.217564,-0.26214 -0.36255,-1.07088 -0.363127,-2.02551 -6.09e-4,-1.00198 0.116623,-1.62943 0.317272,-1.69817 0.222785,-0.0763 0.341821,0.43199 0.396875,1.69479 l 0.07864,1.80382 h 0.79375 0.79375 l 0.132292,-1.69913 c 0.07961,-1.02244 0.264007,-1.74248 0.463021,-1.80799 0.241572,-0.0795 0.330729,0.34964 0.330729,1.59198 v 1.70083 l -0.483854,0.43788 c -0.266121,0.24084 -0.846855,0.43789 -1.290521,0.43789 z m 5.758127,0 c -0.778211,0 -1.14799,-0.14943 -1.455208,-0.58804 -0.226531,-0.32342 -0.411877,-0.98368 -0.411877,-1.46724 0,-0.58658 0.221612,-1.10081 0.665866,-1.54506 0.492077,-0.49208 0.889146,-0.64431 1.521354,-0.58329 0.470519,0.0454 0.795957,0.19847 0.723197,0.3401 -0.07276,0.14163 -0.39265,0.2234 -0.710864,0.18169 -0.318215,-0.0417 -0.82423,0.16985 -1.12448,0.4701 -0.300249,0.30024 -0.545907,0.71675 -0.545907,0.92555 0,0.20881 0.116116,0.68506 0.258035,1.05834 l 0.258035,0.67868 h 0.93259 c 0.512924,0 0.932591,0.11906 0.932591,0.26458 0,0.14552 -0.469498,0.26459 -1.043332,0.26459 z m 3.556873,0 h -0.419134 l 0.07728,-2.05053 c 0.04293,-1.1391 0.194876,-2.05052 0.341857,-2.05052 0.146982,0 0.298932,0.91142 0.341858,2.05052 l 0.07728,2.05053 z m 4.339622,0 c -0.735838,0 -1.111829,-0.15635 -1.414203,-0.58804 -0.226531,-0.32342 -0.411877,-1.01704 -0.411877,-1.54138 0,-0.65442 0.192008,-1.13373 0.612365,-1.52863 0.336801,-0.31641 0.880409,-0.57529 1.208019,-0.57529 0.327609,0 0.816417,0.11815 1.086239,0.26255 0.269819,0.14441 0.622416,0.66202 0.783547,1.15025 0.161129,0.48823 0.212098,1.11422 0.113263,1.39109 -0.09884,0.27687 -0.358648,0.71176 -0.577366,0.96642 -0.248645,0.28951 -0.773274,0.46303 -1.399987,0.46303 z m -0.0176,-0.52917 c 0.402339,0 0.874401,-0.14288 1.049026,-0.3175 0.174625,-0.17463 0.3175,-0.7019 0.3175,-1.17173 0,-0.46982 -0.187098,-1.04132 -0.415775,-1.27 -0.228684,-0.22867 -0.638653,-0.41577 -0.911047,-0.41577 -0.272397,0 -0.680612,0.26462 -0.907145,0.58804 -0.226531,0.32342 -0.411877,0.8075 -0.411877,1.07572 0,0.26823 0.123251,0.71799 0.273891,0.99947 0.169402,0.31653 0.552971,0.51177 1.005417,0.51177 z m 4.541515,0.52917 c -0.154339,0 -0.264583,-0.88195 -0.264583,-2.11667 0,-1.16417 0.103664,-2.11667 0.230365,-2.11667 0.126701,0 0.720934,0.74414 1.320519,1.65365 l 1.090155,1.65364 0.0024,-1.65364 c 0.0013,-0.92445 0.119071,-1.65365 0.266981,-1.65365 0.154339,0 0.264583,0.88195 0.264583,2.11667 0,1.51883 -0.09341,2.11567 -0.330729,2.11314 -0.181901,-0.002 -0.775867,-0.68656 -1.319927,-1.52136 l -0.989198,-1.51782 -0.003,1.52135 c -0.0016,0.83675 -0.122036,1.52136 -0.267557,1.52136 z m 6.619068,0 h -1.34966 l 0.07728,-2.05053 0.07728,-2.05052 1.027054,-0.0842 c 0.56488,-0.0463 1.154239,0.043 1.309687,0.19844 0.200457,0.20045 -0.002,0.28263 -0.696325,0.28263 H 75.99393 v 0.66146 0.66146 h 0.79375 c 0.436563,0 0.79375,0.11906 0.79375,0.26458 0,0.14552 -0.357187,0.26458 -0.79375,0.26458 h -0.79375 v 0.66146 0.66146 h 0.778134 c 0.427974,0 0.851721,0.11906 0.941658,0.26458 0.100851,0.16318 -0.35374,0.26459 -1.186141,0.26459 z m 4.196454,0 c -0.564267,0 -1.025938,-0.11907 -1.025938,-0.26459 0,-0.14552 0.416719,-0.26458 0.926041,-0.26458 h 0.926042 v -0.48016 c 0,-0.28826 -0.370115,-0.65666 -0.926042,-0.92177 -0.677439,-0.32304 -0.926041,-0.61162 -0.926041,-1.07494 0,-0.34833 0.171394,-0.77558 0.380875,-0.94944 0.209482,-0.17385 0.706316,-0.27773 1.104075,-0.23083 0.397759,0.0469 0.768218,0.22254 0.823243,0.39033 0.06345,0.19348 -0.215895,0.29025 -0.763762,0.26458 -0.579131,-0.0271 -0.890302,0.0903 -0.944208,0.3564 -0.0475,0.23446 0.326247,0.61341 0.913334,0.92604 0.546557,0.29104 1.034743,0.74324 1.084855,1.0049 0.05012,0.26165 -0.05236,0.6486 -0.227711,0.85989 -0.178406,0.21497 -0.770686,0.38417 -1.344763,0.38417 z m 6.77927,0 h -0.419134 l 0.07728,-2.05053 c 0.04293,-1.1391 0.194876,-2.05052 0.341857,-2.05052 0.146982,0 0.298932,0.91142 0.341858,2.05052 l 0.07728,2.05053 z m 3.042709,0 c -0.15434,0 -0.264584,-0.88195 -0.264584,-2.11667 0,-1.16417 0.103664,-2.11667 0.230365,-2.11667 0.126701,0 0.720934,0.74414 1.32052,1.65365 l 1.090154,1.65364 0.0024,-1.65364 c 0.0013,-0.92445 0.11907,-1.65365 0.26698,-1.65365 0.15434,0 0.264584,0.88195 0.264584,2.11667 0,1.51883 -0.09341,2.11567 -0.33073,2.11314 -0.181901,-0.002 -0.775866,-0.68656 -1.319927,-1.52136 l -0.989197,-1.51782 -0.003,1.52135 c -0.0016,0.83675 -0.122036,1.52136 -0.267557,1.52136 z m 6.482292,0 H 96.63143 v -1.85209 -1.85208 h -0.677074 c -0.384005,0 -0.606292,-0.11452 -0.513551,-0.26458 0.08994,-0.14553 0.804313,-0.26459 1.587501,-0.26459 0.783187,0 1.497562,0.11906 1.5875,0.26459 0.09274,0.15006 -0.129546,0.26458 -0.513551,0.26458 h -0.677074 v 1.85208 1.85209 z m 4.634699,0 h -1.34966 l 0.0773,-2.05053 0.0773,-2.05052 1.02705,-0.0842 c 0.56488,-0.0463 1.15424,0.043 1.30969,0.19844 0.20046,0.20045 -0.002,0.28263 -0.69632,0.28263 h -0.97896 v 0.66146 0.66146 h 0.79375 c 0.43656,0 0.79375,0.11906 0.79375,0.26458 0,0.14552 -0.35719,0.26458 -0.79375,0.26458 h -0.79375 v 0.66146 0.66146 h 0.77813 c 0.42798,0 0.85172,0.11906 0.94166,0.26458 0.10085,0.16318 -0.35374,0.26459 -1.18614,0.26459 z m 5.30218,0 h -1.30791 l -0.41188,-0.58804 c -0.22653,-0.32342 -0.41188,-0.98368 -0.41188,-1.46724 0,-0.58069 0.2205,-1.09969 0.64944,-1.52862 0.35718,-0.35719 0.94276,-0.64944 1.30127,-0.64944 0.35852,0 0.83949,0.072 1.06884,0.16002 0.22935,0.088 0.35353,0.2627 0.27597,0.38821 -0.0776,0.1255 -0.4812,0.16016 -0.89696,0.077 -0.56179,-0.11235 -0.90599,-0.001 -1.34022,0.43311 l -0.58429,0.58428 0.16384,0.81919 c 0.0901,0.45055 0.31086,0.91257 0.49057,1.02672 0.17971,0.11414 0.65417,0.20936 1.05435,0.21159 l 0.7276,0.004 v -0.52917 c 0,-0.29104 -0.17157,-0.52916 -0.38126,-0.52916 -0.20969,0 -0.45484,-0.11907 -0.54478,-0.26459 -0.0954,-0.15436 0.17364,-0.26458 0.64584,-0.26458 h 0.80937 v 1.05833 1.05834 z m 3.95375,0 c -0.15434,0 -0.26458,-0.88195 -0.26458,-2.11667 v -2.11667 l 0.59531,0.004 c 0.32742,0.002 0.8645,0.0757 1.19352,0.16391 0.34112,0.0914 0.66856,0.4406 0.76191,0.81253 0.1066,0.42475 0.0162,0.79972 -0.25916,1.07509 l -0.42286,0.42286 0.54243,0.87767 0.54242,0.87766 h -0.41166 c -0.22641,0 -0.59637,-0.35719 -0.82212,-0.79375 -0.22576,-0.43656 -0.586,-0.79375 -0.80055,-0.79375 -0.25703,0 -0.39008,0.27073 -0.39008,0.79375 0,0.43656 -0.11906,0.79375 -0.26458,0.79375 z m 0.85719,-2.16442 c 0.32742,-0.0467 0.63507,-0.30716 0.6875,-0.582 0.0522,-0.27361 -0.0657,-0.59921 -0.26189,-0.72356 -0.19621,-0.12435 -0.50559,-0.22791 -0.68749,-0.23014 -0.19363,-0.002 -0.33073,0.33261 -0.33073,0.8081 v 0.81215 z m 3.52828,2.16442 c -0.27384,0 -0.15508,-0.53664 0.46806,-2.11489 0.45926,-1.16318 0.94793,-2.07804 1.08595,-2.03302 0.13801,0.045 0.5845,0.89576 0.99218,1.89051 0.40769,0.99476 0.74126,1.90962 0.74126,2.03303 0,0.1234 -0.12201,0.22437 -0.27113,0.22437 -0.14913,0 -0.38431,-0.29766 -0.52262,-0.66146 l -0.25149,-0.66146 h -0.77161 -0.77162 l -0.16601,0.66146 c -0.0913,0.3638 -0.33115,0.66146 -0.53297,0.66146 z m 1.44104,-1.85209 c 0.28792,0 0.51512,-0.0893 0.50489,-0.19844 -0.0102,-0.10914 -0.10504,-0.41807 -0.21069,-0.68652 l -0.19209,-0.48809 -0.31281,0.68653 -0.3128,0.68652 z m 4.88912,1.85209 h -1.19063 v -2.11667 c 0,-1.23472 0.11025,-2.11667 0.26458,-2.11667 0.1512,0 0.26459,0.79375 0.26459,1.85209 v 1.85208 h 0.92604 c 0.50932,0 0.92604,0.11906 0.92604,0.26458 0,0.14552 -0.53578,0.26459 -1.19062,0.26459 z m 4.49791,0 h -1.19062 v -2.11667 -2.11667 h 1.19062 c 0.65485,0 1.19063,0.11906 1.19063,0.26459 0,0.14552 -0.41672,0.26458 -0.92604,0.26458 h -0.92605 v 0.66146 0.66146 h 0.79375 c 0.43657,0 0.79375,0.11906 0.79375,0.26458 0,0.14552 -0.35718,0.26458 -0.79375,0.26458 h -0.79375 v 0.66146 0.66146 h 0.92605 c 0.50932,0 0.92604,0.11906 0.92604,0.26458 0,0.14552 -0.53578,0.26459 -1.19063,0.26459 z m 4.04812,0 c -0.55297,0 -1.00541,-0.11188 -1.00541,-0.24861 0,-0.13674 0.43727,-0.28557 0.97174,-0.33073 0.53445,-0.0452 1.0183,-0.22397 1.07521,-0.39733 0.0569,-0.17336 -0.29108,-0.5174 -0.7733,-0.76452 -0.48223,-0.24713 -0.96425,-0.58153 -1.07116,-0.74313 -0.10691,-0.16159 -0.19621,-0.50472 -0.19844,-0.7625 -0.002,-0.25778 0.28483,-0.60032 0.6379,-0.76119 0.35307,-0.16087 0.95325,-0.21436 1.33374,-0.11886 0.38048,0.0955 0.62009,0.28964 0.53246,0.43143 -0.0876,0.14178 -0.42876,0.19017 -0.75806,0.10752 -0.36681,-0.0921 -0.72677,0.004 -0.92928,0.24802 l -0.33055,0.39828 1.07778,0.68038 c 0.60492,0.38187 1.07778,0.88787 1.07778,1.1533 0,0.26012 -0.14287,0.61581 -0.3175,0.79044 -0.17462,0.17462 -0.76993,0.3175 -1.32291,0.3175 z m 7.85813,0 h -1.19062 v -2.11667 -2.11667 h 1.19062 c 0.65485,0 1.19063,0.11906 1.19063,0.26459 0,0.14552 -0.41672,0.26458 -0.92604,0.26458 h -0.92605 v 0.66146 0.66146 h 0.92605 c 0.50932,0 0.92604,0.11906 0.92604,0.26458 0,0.14552 -0.41672,0.26458 -0.92604,0.26458 h -0.92605 v 0.66146 0.66146 h 0.92605 c 0.50932,0 0.92604,0.11906 0.92604,0.26458 0,0.14552 -0.53578,0.26459 -1.19063,0.26459 z m 3.57188,0 c -0.15434,0 -0.26459,-0.88195 -0.26459,-2.11667 0,-1.51818 0.0935,-2.11601 0.33072,-2.11435 0.18191,10e-4 0.80699,0.74279 1.38907,1.64783 l 1.05834,1.64552 0.0788,-1.64783 c 0.0433,-0.90631 0.19215,-1.64784 0.33073,-1.64784 0.13857,0 0.25195,0.9525 0.25195,2.11667 v 2.11667 h -0.36266 c -0.19945,0 -0.85322,-0.74415 -1.45281,-1.65365 l -1.09015,-1.65365 -0.002,1.65365 c -10e-4,0.92444 -0.11908,1.65365 -0.26699,1.65365 z M 92.530389,162.4272 c -0.873125,-0.006 -2.034225,-0.16956 -2.580225,-0.36441 -0.545999,-0.19484 -1.397013,-0.66263 -1.891144,-1.03952 -0.49413,-0.37689 -1.177284,-1.25405 -1.518121,-1.94923 -0.460065,-0.93837 -0.644885,-1.83739 -0.717468,-3.49001 -0.05377,-1.22433 0.03019,-2.65308 0.186587,-3.175 0.156395,-0.52192 0.633809,-1.49994 1.060918,-2.17337 0.573006,-0.90348 1.161781,-1.4129 2.24617,-1.94344 l 1.46961,-0.71901 1.797878,-0.007 c 0.988833,-0.004 2.303894,0.13104 2.922357,0.29998 0.618464,0.16895 1.124479,0.45842 1.124479,0.64328 0,0.18485 -0.158765,0.55323 -0.352816,0.81861 l -0.352814,0.4825 -0.996273,-0.3288 c -0.55164,-0.18205 -1.737955,-0.28157 -2.658131,-0.22298 l -1.661859,0.10582 -0.92057,0.70215 c -0.506312,0.38619 -1.145066,1.15536 -1.419452,1.70928 -0.370203,0.74734 -0.49924,1.58722 -0.500256,3.25608 l -0.0013,2.24896 0.661459,1.1771 c 0.363802,0.6474 1.07252,1.41658 1.574927,1.70929 0.633081,0.36883 1.404609,0.53541 2.513541,0.54269 0.880042,0.006 2.046558,-0.0842 2.592261,-0.19992 l 0.992187,-0.21043 v 0.7933 0.7933 l -0.992187,0.27555 c -0.545703,0.15155 -1.706563,0.27098 -2.579688,0.2654 z m -40.216668,-0.25149 h -0.926042 v -7.27605 -7.27604 l 2.71198,0.0116 c 1.83878,0.008 3.135958,0.15694 4.028773,0.46302 0.9334,0.32 1.498653,0.72106 1.941407,1.37748 l 0.624615,0.92604 -0.104016,1.68745 -0.104015,1.68743 -0.933577,0.85556 c -0.513467,0.47056 -1.099455,0.91086 -1.302195,0.97844 -0.270566,0.0902 0.04632,0.82131 1.191332,2.74866 0.857969,1.44419 1.73215,2.89369 1.942626,3.22111 l 0.38268,0.59531 h -1.069282 -1.069279 l -1.67313,-2.9059 -1.673127,-2.9059 -1.521354,-0.005 -1.521354,-0.005 v 2.91042 2.91042 z m 2.050521,-7.41986 c 0.618463,-0.006 1.65594,-0.11407 2.305502,-0.2394 0.691746,-0.13347 1.376821,-0.46967 1.653646,-0.81154 0.284771,-0.35167 0.472623,-1.02185 0.472623,-1.6861 0,-0.60635 -0.182105,-1.36244 -0.404675,-1.6802 -0.222573,-0.31777 -0.847651,-0.70078 -1.389063,-0.85115 -0.541414,-0.15036 -1.609465,-0.27405 -2.37345,-0.27486 l -1.389062,-0.001 v 2.77813 2.77812 l 1.124479,-0.0115 z m 13.501378,7.41986 c -0.477139,0 -0.867524,-0.0836 -0.867524,-0.18572 0,-0.10214 1.259647,-3.37636 2.799215,-7.27604 l 2.799215,-7.09033 h 0.744353 c 0.409395,0 0.804563,0.14883 0.878157,0.33073 0.07359,0.1819 1.336487,3.40345 2.806433,7.15899 1.469946,3.75555 2.672628,6.88094 2.672628,6.94532 0,0.0644 -0.407747,0.11705 -0.906103,0.11705 h -0.906103 l -0.851947,-2.25727 -0.851948,-2.25727 -2.900106,0.0745 -2.900106,0.0745 -0.82432,2.18281 -0.824317,2.18282 z m 5.501876,-6.08542 c 1.578091,0 2.113722,-0.0864 2.050521,-0.33073 -0.04705,-0.1819 -0.502264,-1.49137 -1.011587,-2.90992 -0.509323,-1.41856 -0.985573,-2.57872 -1.058333,-2.57815 -0.07276,5.3e-4 -0.579478,1.22074 -1.126038,2.71148 -0.54656,1.49075 -0.993045,2.79974 -0.992188,2.90888 7.94e-4,0.10914 0.96279,0.19844 2.137625,0.19844 z m 34.773314,6.08542 h -4.10105 v -7.27605 -7.27604 h 4.10105 4.10104 v 0.79375 0.79375 h -3.175 -3.175 v 2.24896 2.24896 h 2.91041 2.91042 v 0.92604 0.92604 h -2.91042 -2.91041 v 2.51354 2.51355 h 3.175 3.175 v 0.79375 0.79375 z m 12.96458,0 h -0.92604 v -7.27605 -7.27604 h 0.92604 0.92604 l 0.006,3.50573 0.006,3.50573 1.11834,-1.19122 c 0.61509,-0.65517 2.07291,-2.24159 3.2396,-3.52537 l 2.12126,-2.33415 0.98706,0.0858 0.98706,0.0858 -2.87943,3.14551 -2.87942,3.1455 3.01316,4.0644 3.01317,4.06439 -1.12539,-0.0103 -1.12539,-0.0103 -2.54421,-3.42911 -2.54422,-3.4291 -0.69693,0.54821 -0.69693,0.5482 v 2.89122 2.89121 H 121.1054 Z M 90.016836,135.71737 c -0.07395,0 -5.52155,-5.38806 -12.105767,-11.97347 -6.584217,-6.58542 -11.971306,-12.09846 -11.971306,-12.25123 0,-0.15276 0.417677,-0.68257 0.928169,-1.17736 l 0.928169,-0.89962 -1.060461,-1.08053 c -0.583252,-0.59429 -1.06046,-1.20068 -1.06046,-1.34754 0,-0.14686 0.476797,-0.7326 1.059553,-1.30165 l 1.059553,-1.03463 -1.055127,-1.07509 -1.055126,-1.0751 12.166767,-12.164606 12.166764,-12.164609 12.098566,12.098569 12.09857,12.098576 -1.11568,1.1368 -1.11569,1.1368 1.11322,1.11322 1.11323,1.11323 -0.98397,1.00767 c -0.54118,0.55422 -0.98396,1.12732 -0.98396,1.27355 0,0.14623 0.47884,0.73345 1.06409,1.30493 l 1.06409,1.03906 -12.10937,12.11152 c -6.660149,6.66133 -12.169873,12.11151 -12.243824,12.11151 z m 0.177954,-0.79375 c 0.121653,0 5.455925,-5.23575 11.85394,-11.635 l 11.63275,-11.63501 -0.90401,-0.9327 c -0.4972,-0.51299 -1.03275,-0.93271 -1.1901,-0.93271 -0.15735,0 -5.02519,4.82204 -10.81742,10.71563 -5.792237,5.89359 -10.669987,10.71562 -10.839447,10.71562 -0.16946,0 -5.100053,-4.79084 -10.956867,-10.64632 l -10.64876,-10.64632 -0.861827,0.86933 -0.861828,0.86932 11.686191,11.62908 c 6.427404,6.396 11.785725,11.62908 11.907378,11.62908 z m 10.33242,-15.14056 10.64511,-10.64267 -0.83874,-0.86536 -0.83874,-0.86536 -9.755873,9.70385 -9.75587,9.70385 -9.633874,-9.63116 -9.633874,-9.63116 -0.939194,0.9103 -0.939196,0.9103 10.522574,10.52505 10.522572,10.52503 z m -10.510363,5.88014 c 0.0743,0 4.360548,-4.22671 9.525,-9.3927 l 9.389913,-9.39271 -9.389931,-9.39273 -9.389933,-9.392728 -9.460233,9.457495 -9.460233,9.457493 9.325166,9.32794 c 5.128839,5.13037 9.385953,9.32794 9.460251,9.32794 z M 68.321013,108.72987 c 0.08843,0 0.54129,-0.39259 1.006359,-0.87242 l 0.845579,-0.87241 -1.004856,-0.98122 -1.004858,-0.98121 -0.899057,0.92759 -0.899054,0.92759 0.897554,0.92604 c 0.493654,0.50932 0.969904,0.92604 1.058333,0.92604 z m 44.110817,-0.84967 0.87834,-0.85131 -0.9307,-0.9307 -0.9307,-0.9307 -0.85049,0.8505 -0.8505,0.8505 0.90286,0.93151 0.90286,0.93152 z m -41.743809,-1.54156 c 0.08059,-0.005 4.492315,-4.2839 9.803826,-9.507596 l 9.657292,-9.497625 9.58928,9.570523 9.589281,9.570518 0.85901,-0.85901 0.85901,-0.85901 L 100.399,94.109715 89.752269,83.462988 79.242516,93.97274 l -10.509753,10.50975 0.904362,0.93307 c 0.497398,0.51318 0.970301,0.92857 1.050896,0.92308 z m 41.812829,-3.03597 0.92608,-0.92608 -11.63776,-11.640028 C 95.388392,84.334548 90.031317,79.096536 89.884555,79.096536 c -0.146761,0 -5.478314,5.212487 -11.847899,11.583304 l -11.581059,11.5833 0.939327,0.91044 0.939329,0.91043 10.776352,-10.773953 10.776355,-10.773952 10.84391,10.846326 10.8439,10.846319 z"
       id="path311" /></g></svg>
