<?xml version="1.0" encoding="UTF-8" standalone="no"?>
<svg
   width="16"
   height="32"
   viewBox="0 0 1792 3584"
   version="1.1"
   id="svg27"
   sodipodi:docname="icon-calendar.svg"
   xmlns:inkscape="http://www.inkscape.org/namespaces/inkscape"
   xmlns:sodipodi="http://sodipodi.sourceforge.net/DTD/sodipodi-0.dtd"
   xmlns:xlink="http://www.w3.org/1999/xlink"
   xmlns="http://www.w3.org/2000/svg"
   xmlns:svg="http://www.w3.org/2000/svg">
  <sodipodi:namedview
     id="namedview29"
     pagecolor="#ffffff"
     bordercolor="#000000"
     borderopacity="0.25"
     inkscape:showpageshadow="2"
     inkscape:pageopacity="0.0"
     inkscape:pagecheckerboard="0"
     inkscape:deskcolor="#d1d1d1"
     showgrid="false"
     inkscape:zoom="8"
     inkscape:cx="32.6875"
     inkscape:cy="13.5"
     inkscape:window-width="1366"
     inkscape:window-height="642"
     inkscape:window-x="1366"
     inkscape:window-y="29"
     inkscape:window-maximized="1"
     inkscape:current-layer="svg27" />
  <defs
     id="defs21">
    <g
       id="icon">
      <path
         d="M 192,1664 H 480 V 1376 H 192 Z m 352,0 H 864 V 1376 H 544 Z M 192,1312 H 480 V 992 H 192 Z m 352,0 H 864 V 992 H 544 Z M 192,928 H 480 V 640 H 192 Z m 736,736 h 320 V 1376 H 928 Z M 544,928 H 864 V 640 H 544 Z m 768,736 h 288 V 1376 H 1312 Z M 928,1312 h 320 V 992 H 928 Z M 576,448 V 160 q 0,-13 -9.5,-22.5 Q 557,128 544,128 h -64 q -13,0 -22.5,9.5 Q 448,147 448,160 v 288 q 0,13 9.5,22.5 9.5,9.5 22.5,9.5 h 64 q 13,0 22.5,-9.5 Q 576,461 576,448 Z m 736,864 h 288 V 992 H 1312 Z M 928,928 h 320 V 640 H 928 Z m 384,0 h 288 V 640 h -288 z m 32,-480 V 160 q 0,-13 -9.5,-22.5 Q 1325,128 1312,128 h -64 q -13,0 -22.5,9.5 -9.5,9.5 -9.5,22.5 v 288 q 0,13 9.5,22.5 9.5,9.5 22.5,9.5 h 64 q 13,0 22.5,-9.5 9.5,-9.5 9.5,-22.5 z m 384,-64 v 1280 q 0,52 -38,90 -38,38 -90,38 H 192 q -52,0 -90,-38 -38,-38 -38,-90 V 384 q 0,-52 38,-90 38,-38 90,-38 H 320 V 160 Q 320,94 367,47 414,0 480,0 h 64 q 66,0 113,47 47,47 47,113 v 96 h 384 v -96 q 0,-66 47,-113 47,-47 113,-47 h 64 q 66,0 113,47 47,47 47,113 v 96 h 128 q 52,0 90,38 38,38 38,90 z"
         id="path18" />
    </g>
  </defs>
  <use
     xlink:href="#icon"
     x="0"
     y="0"
     fill="#447e9b"
     id="use23" />
  <use
     xlink:href="#icon"
     x="0"
     y="1792"
     fill="#003366"
     id="use25" />
  <path
     style="fill:#806600;stroke-width:9.89949"
     d="m 162.96982,3573.2142 c -16.53868,-4.8796 -43.26732,-22.6451 -59.39697,-39.4787 l -29.326638,-30.6064 -2.677225,-673.072 c -3.023171,-760.0439 -6.4764,-723.0857 71.069763,-760.625 30.21213,-14.6256 61.52332,-20.2366 112.92388,-20.2366 h 71.12071 v -66.976 c 0,-112.7803 48.7298,-172.3648 150.68661,-184.2524 88.48935,-10.3174 153.4332,14.2995 199.10372,75.4702 13.78651,18.4656 20.76806,47.5777 24.1874,100.8583 l 4.80681,74.8999 h 190.40815 190.40817 l 4.9008,-68.4954 c 9.7289,-135.9739 86.3576,-198.6943 223.2537,-182.733 101.521,11.8368 150.6866,71.5592 150.6866,183.0414 v 65.7652 l 87.0428,4.1619 c 93.729,4.4811 119.5358,15.4452 151.9043,64.5366 17.3551,26.3214 18.3128,62.521 18.3746,694.4886 0.069,735.6188 2.1437,710.5642 -61.9666,749.343 -30.9203,18.7027 -56.5189,19.4223 -749.72679,21.0734 -399.87736,0.952 -731.02989,-2.2198 -747.78371,-7.1624 z M 485.07525,3316.3308 V 3167.8384 H 336.58283 188.0904 v 148.4924 148.4925 h 148.49243 148.49242 z m 386.08031,0 V 3167.8384 H 702.86414 534.57273 v 141.8928 c 0,78.041 2.96979,144.8625 6.59971,148.4924 3.62981,3.6299 79.36094,6.6001 168.29141,6.6001 H 871.1556 Z m 383.87004,-2.4752 2.7396,-146.0176 H 1089.209 920.65303 v 148.7319 148.7317 l 165.81657,-2.7137 165.8165,-2.7149 z m 348.6925,2.4752 v -148.4924 h -148.4924 -148.4924 v 148.4924 148.4925 h 148.4924 148.4924 z M 485.07525,2945.0997 V 2781.7581 H 336.58283 188.0904 v 163.3416 163.3417 h 148.49243 148.49242 z m 386.08031,0 V 2781.7581 H 702.86414 534.57273 v 163.3416 163.3417 h 168.29141 168.29142 z m 386.08024,0 V 2781.7581 H 1088.9444 920.65303 v 163.3416 163.3417 h 168.29137 168.2914 z m 346.4823,0 v -163.3416 h -148.4924 -148.4924 v 163.3416 163.3417 h 148.4924 148.4924 z M 485.07525,2573.8686 V 2425.3762 H 336.58283 188.0904 v 148.4924 148.4926 h 148.49243 148.49242 z m 386.08031,0 V 2425.3762 H 702.86414 534.57273 v 148.4924 148.4926 h 168.29141 168.29142 z m 386.08024,0 V 2425.3762 H 1088.9444 920.65303 v 148.4924 148.4926 h 168.29137 168.2914 z m 346.4823,0 v -148.4924 h -148.4924 -148.4924 v 148.4924 148.4926 h 148.4924 148.4924 z M 573.8224,2257.7356 c 12.23864,-22.8681 13.65345,-306.6349 1.62343,-325.6098 -11.46878,-18.0897 -82.88634,-26.2254 -108.7425,-12.3876 -20.4149,10.9256 -21.22606,17.7463 -21.22606,178.4781 0,124.4318 3.16075,168.3936 12.37437,172.1113 6.80591,2.7462 33.3778,5.3446 59.04867,5.7747 36.51365,0.616 48.90517,-3.3869 56.92209,-18.3667 z m 756.8499,13.1393 c 13.4221,-5.1509 15.659,-29.8486 15.659,-172.8928 0,-160.4923 -0.8176,-167.319 -21.2261,-178.2439 -25.856,-13.8378 -97.2737,-5.7019 -108.7425,12.3876 -12.0299,18.9749 -10.6154,302.7417 1.624,325.6098 7.7392,14.4601 20.8711,19.1482 53.6377,19.1482 23.8643,0 50.4361,-2.7036 59.0485,-6.0088 z"
     id="path502" />
  <path
     style="fill:#806600;stroke-width:112"
     d="m 153.44217,3562.3944 c -10.88944,-6.1191 -32.04961,-22.4999 -47.0226,-36.4016 l -27.223611,-25.2758 0.05521,-663.8889 c 0.03577,-430.1419 3.689188,-676.9744 10.376441,-701.0542 13.53804,-48.7484 59.28996,-72.2623 158.71541,-81.5703 l 75.10185,-7.0313 10.30781,-78.0742 c 12.2188,-92.5484 29.73201,-122.9863 85.27271,-148.2036 120.5272,-54.7233 273.93924,17.8176 273.93924,129.5321 0,20.2931 2.78421,50.8177 6.18722,67.8324 l 6.18721,30.936 h 191.19614 191.1961 l 5.9282,-47.0226 c 13.8965,-110.2292 41.9373,-162.3148 100.5738,-186.8147 75.4092,-31.5079 200.6143,-5.0702 236.6828,49.978 9.258,14.1288 21.4944,61.0033 27.1929,104.1654 l 10.3611,78.4767 65.1491,5.6784 c 97.1281,8.465 140.3469,24.9198 161.6314,61.5373 17.1959,29.5838 18.2235,68.1834 18.2421,685.2865 0.01,427.4965 -3.5952,667.363 -10.4205,692.7096 -6.328,23.5008 -21.1274,46.0214 -37.573,57.1757 -25.7602,17.4722 -64.1828,18.5231 -759.69508,20.7791 -527.86148,1.7125 -738.09508,-0.728 -752.36161,-8.7494 z M 1257.2358,3331.5383 c 0,-72.8102 2.7037,-139.4287 6.0088,-148.041 5.3391,-13.9135 -13.4195,-15.6589 -168.2914,-15.6589 H 920.65303 l -0.0129,150.9672 -0.0129,150.9674 168.30417,-2.9266 168.304,-2.9265 V 3331.5383 Z M 485.07525,3316.3308 V 3167.8384 H 336.58283 188.0904 v 148.4924 148.4925 h 148.49243 148.49242 z m 386.08031,0 V 3167.8384 H 702.86414 534.57273 v 148.4924 148.4925 h 168.29141 168.29142 z m 732.56254,0 v -148.4924 h -148.4924 -148.4924 v 148.4924 148.4925 h 148.4924 148.4924 z M 485.07525,2945.0997 V 2781.7581 H 336.58283 188.0904 v 163.3416 163.3417 h 148.49243 148.49242 z m 386.08031,0 V 2781.7581 H 702.86414 534.57273 v 163.3416 163.3417 h 168.29141 168.29142 z m 386.08024,0 V 2781.7581 H 1088.9444 920.65303 v 163.3416 163.3417 h 168.29137 168.2914 z m 346.4823,0 v -163.3416 h -148.4924 -148.4924 v 163.3416 163.3417 h 148.4924 148.4924 z M 485.07525,2573.8686 V 2425.3762 H 336.58283 188.0904 v 148.4924 148.4926 h 148.49243 148.49242 z m 386.08031,0 V 2425.3762 H 702.86414 534.57273 v 148.4924 148.4926 h 168.29141 168.29142 z m 386.08024,0 V 2425.3762 H 1088.9444 920.65303 v 148.4924 148.4926 h 168.29137 168.2914 z m 346.4823,0 v -148.4924 h -148.4924 -148.4924 v 148.4924 148.4926 h 148.4924 148.4924 z M 572.19081,2265.0044 c 8.26571,-8.2656 11.87939,-60.8594 11.87939,-172.8928 0,-149.0576 -1.42184,-161.7745 -19.14819,-171.2613 -26.08675,-13.9611 -92.98731,-12.9464 -107.56534,1.6318 -12.81097,12.811 -17.70757,335.3744 -5.27968,347.8023 11.40131,11.4013 107.66416,7.1702 120.11387,-5.2797 z M 1344.101,2104.9517 c 1.8693,-114.7478 -0.8288,-171.2626 -8.6363,-180.6657 -13.3189,-16.0481 -81.009,-18.1901 -108.5778,-3.4362 -17.7263,9.4864 -19.1482,22.2037 -19.1482,171.2614 0,115.1044 3.5078,164.5209 12.3017,173.3152 7.6407,7.6406 32.959,11.204 66.8216,9.4046 l 54.5199,-2.8974 z"
     id="path504" />
  <path
     style="fill:#806600;stroke-width:9.89949"
     d="m 153.44217,3562.3944 c -10.88944,-6.1191 -32.04961,-22.4999 -47.0226,-36.4016 l -27.223611,-25.2758 0.05521,-663.8889 c 0.03577,-430.1419 3.689188,-676.9744 10.376441,-701.0542 13.53804,-48.7484 59.28996,-72.2623 158.71541,-81.5703 l 75.10185,-7.0313 10.30781,-78.0742 c 12.2188,-92.5484 29.73201,-122.9863 85.27271,-148.2036 81.03052,-36.7905 194.7909,-15.457 242.75907,45.5247 23.84275,30.3111 27.2123,41.9865 36.32165,125.8537 l 6.18274,56.9221 h 191.72124 191.72121 l 5.9282,-47.0226 c 13.8965,-110.2292 41.9373,-162.3148 100.5738,-186.8147 75.4092,-31.5079 200.6143,-5.0702 236.6828,49.978 9.258,14.1288 21.4944,61.0033 27.1929,104.1654 l 10.3611,78.4767 65.1491,5.6784 c 97.5364,8.5008 140.3253,24.8829 161.8908,61.9814 17.5349,30.1649 18.4803,65.2274 18.456,684.492 -0.02,434.7716 -3.5829,665.9093 -10.6803,692.2655 -6.533,24.2601 -21.151,46.6866 -37.7869,57.9702 -25.7602,17.4722 -64.1828,18.5231 -759.69513,20.7791 -527.86147,1.7125 -738.09508,-0.728 -752.36161,-8.7494 z M 1257.2358,3315.8795 V 3167.8384 H 1088.9444 920.65303 l -0.0129,150.9672 -0.0129,150.9674 168.30417,-2.9266 168.304,-2.9265 v -148.041 z m -772.16055,0.448 V 3167.8384 H 336.58283 188.0904 v 148.4924 148.4925 h 148.49243 148.49242 z m 386.08031,0 V 3167.8384 H 702.86414 534.57273 v 148.4924 148.4925 h 168.29141 168.29142 z m 732.56254,0 v -148.4924 h -148.4924 -148.4924 v 148.4924 148.4925 h 148.4924 148.4924 z M 485.07525,2945.0997 V 2781.7581 H 336.58283 188.0904 v 163.3416 163.3417 h 148.49243 148.49242 z m 386.08031,0 V 2781.7581 H 702.86414 534.57273 v 163.3416 163.3417 h 168.29141 168.29142 z m 386.08024,0 V 2781.7581 H 1088.9444 920.65303 v 163.3416 163.3417 h 168.29137 168.2914 z m 346.4823,0 v -163.3416 h -148.4924 -148.4924 v 163.3416 163.3417 h 148.4924 148.4924 z M 485.07525,2573.8686 V 2425.3762 H 336.58283 188.0904 v 148.4924 148.4926 h 148.49243 148.49242 z m 386.08031,0 V 2425.3762 H 702.86414 534.57273 v 148.4924 148.4926 h 168.29141 168.29142 z m 386.08024,0 V 2425.3762 H 1088.9444 920.65303 v 148.4924 148.4926 h 168.29137 168.2914 z m 346.4823,0 v -148.4924 h -148.4924 -148.4924 v 148.4924 148.4926 h 148.4924 148.4924 z M 572.19081,2265.0044 c 8.26571,-8.2656 11.87939,-60.8594 11.87939,-172.8928 0,-149.0576 -1.42184,-161.7745 -19.14819,-171.2613 -26.08675,-13.9611 -92.98731,-12.9464 -107.56534,1.6318 -12.81097,12.811 -17.70757,335.3744 -5.27968,347.8023 11.40131,11.4013 107.66416,7.1702 120.11387,-5.2797 z M 1344.101,2104.9517 c 1.8693,-114.7478 -0.8288,-171.2626 -8.6363,-180.6657 -13.3189,-16.0481 -81.009,-18.1901 -108.5778,-3.4362 -17.7263,9.4864 -19.1482,22.2037 -19.1482,171.2614 0,115.1044 3.5078,164.5209 12.3017,173.3152 7.6407,7.6406 32.959,11.204 66.8216,9.4046 l 54.5199,-2.8974 z"
     id="path508" />
  <path
     style="fill:#806600;stroke-width:0.618718"
     d="m 1722.3023,2512.1515 c -0.3584,-153.86 -0.7616,-206.3064 -2.0149,-265.4302 l -0.4368,-20.5723 h 3.8058 3.8057 v 227.379 227.3789 h -2.3811 -2.3811 z"
     id="path510" />
  <path
     style="fill:#806600;stroke-width:0.4375"
     d="m 1722.1312,2415 c 0,-1.3238 0.082,-1.8648 0.1792,-1.2029 0.1002,0.6608 0.1002,1.745 0,2.4058 -0.1003,0.6608 -0.1792,0.1232 -0.1792,-1.2029 z"
     id="path512" />
  <path
     style="fill:#806600;stroke-width:0.4375"
     d="m 1722.7283,2582.2344 c -0.1568,-14.618 -0.2912,-52.1719 -0.2912,-83.4531 -0.01,-64.9939 -0.6944,-189.4727 -1.12,-202.6719 l -0.2912,-8.8592 h 3.1103 3.1102 v 160.7813 160.7813 h -2.1157 -2.1156 z"
     id="path514" />
  <path
     style="fill:#806600;stroke-width:0.4375"
     d="m 1603.6522,2517.1562 c 0,-50.5313 0.051,-71.1381 0.112,-45.7931 0.062,25.3449 0.062,66.6887 0,91.8749 -0.062,25.1863 -0.112,4.4498 -0.112,-46.0818 z"
     id="path516" />
  <path
     style="fill:#806600;stroke-width:0.618718"
     d="m 1719.7779,2224.7568 c -0.1568,-0.7616 -0.448,-7.3786 -0.6496,-14.6945 -1.1749,-42.7227 -4.4195,-71.0193 -9.7406,-84.9569 -3.4295,-8.9824 -16.0986,-26.5943 -27.061,-37.6184 -23.1186,-23.2483 -49.939,-31.7842 -112.6392,-35.8489 -5.955,-0.3808 -20.5724,-1.1973 -32.4827,-1.801 l -21.6551,-1.0976 47.8713,-0.08 c 51.0204,-0.085 53.0324,0.01 66.2482,3.0811 34.7357,8.0764 67.8729,34.9052 85.1257,68.9195 2.0709,4.0835 4.9157,10.9054 6.3213,15.1586 5.7926,17.533 6.3448,22.7844 6.3448,60.3567 v 29.9762 h -3.7005 c -3.3409,0 -3.7285,-0.1344 -3.9838,-1.3921 z"
     id="path518" />
  <path
     style="fill:#806600;stroke-width:0.4375"
     d="m 1469.798,2046.6812 -1.2959,-0.28 -1.6419,-12.2486 -1.6419,-12.2486 -0.016,-27.125 c -0.016,-27.9656 -0.3024,-35.9222 -1.801,-49.4374 -4.6961,-42.4787 -18.7833,-76.6825 -41.0368,-99.6407 l -3.7105,-3.8282 h 4.4206 4.4206 l 3.3981,3.733 c 24.1431,26.5218 37.6308,57.746 40.4165,93.5649 0.5152,6.5542 0.616,107.9171 0.1106,107.8378 -0.1792,-0.028 -0.9072,-0.1792 -1.624,-0.3248 z"
     id="path520" />
  <path
     style="fill:#806600;stroke-width:0.618718"
     d="m 1088.5838,1973.7118 c 0.168,-41.7325 0.206,-42.3006 3.8372,-58.6651 4.7522,-21.4139 15.5667,-43.4443 30.4276,-61.984 6.3571,-7.9307 18.8,-20.3221 26.7303,-26.6197 17.8867,-14.2042 36.8825,-23.7581 57.7343,-29.0375 18.476,-4.6783 18.3338,-4.6693 72.5059,-4.6693 51.424,0 51.3007,-0.01 66.8215,3.2032 27.5875,5.7041 53.7737,19.8165 74.7878,40.3061 l 4.872,4.751 -3.8046,0.1792 -3.8047,0.1792 -4.7219,-4.1182 c -24.3065,-21.1989 -55.6839,-33.91 -96.718,-39.181 -16.6835,-2.1425 -28.4786,-2.7193 -48.4097,-2.3665 -25.4335,0.448 -41.0019,2.6454 -60.4641,8.5209 -62.7203,18.9374 -100.7886,67.4612 -113.7964,145.0511 -1.8228,10.873 -3.051,22.3696 -4.6931,43.929 l -1.4608,19.1803 z"
     id="path522" />
  <path
     style="fill:#806600;stroke-width:0.618718"
     d="m 1208.3645,2081.2141 c 0.016,-76.2003 2.8067,-132.8709 7.1971,-146.123 1.4124,-4.2627 5.3301,-7.8523 12.216,-11.1911 22.4333,-10.8785 67.328,-14.219 90.0929,-6.7043 8.4224,2.7799 15.6666,7.5936 18.6186,12.3699 1.4884,2.408 1.2656,3.5492 -0.2464,1.2465 -1.2253,-1.8704 -7.9912,-6.9865 -10.91,-8.2499 -6.0334,-2.6118 -6.9081,-2.6634 -45.2326,-2.6712 -31.1177,-0.01 -37.404,0.1344 -40.4797,0.9408 -10.9716,2.8582 -20.8491,13.2197 -23.1586,24.2948 -0.4816,2.3005 -0.6832,28.3752 -0.6832,87.3941 v 84.1152 h -3.7128 -3.7128 z"
     id="path524" />
  <path
     style="fill:#806600;stroke-width:0.618718"
     d="m 1253.2141,2274.3552 c -10.09,-0.8176 -18.2598,-2.3632 -22.2737,-4.2246 -5.9282,-2.7474 -11.9147,-9.4696 -13.6917,-15.3744 -3.7206,-12.3619 -6.916,-55.0528 -7.952,-106.257 -0.1904,-9.1884 -0.4816,-20.116 -0.672,-24.2847 l -0.336,-7.579 h 3.7419 3.7419 v 63.9073 c 0,69.8 -0.112,67.4583 3.5784,74.3116 2.9445,5.4668 8.9365,11.2155 14.6072,14.0121 7.3136,3.6076 10.1293,3.808 49.6823,3.5471 33.0522,-0.224 34.0161,-0.2576 38.0262,-1.5949 6.6181,-2.2053 12.1638,-6.356 17.1096,-12.8056 1.3608,-1.7752 1.4056,-1.7887 1.0192,-0.3136 -0.7392,2.8302 -3.4283,8.3294 -4.8037,9.8011 -3.8158,4.0869 -8.1099,4.8709 -34.4578,6.2922 -23.3642,1.26 -36.677,1.4168 -47.332,0.56 z"
     id="path528" />
  <path
     style="fill:#806600;stroke-width:0.4375"
     d="m 320.25,1967.0875 c 0,-12.2238 0.20608,-24.873 0.45808,-28.1095 2.97427,-38.1889 17.72773,-70.259 45.24468,-98.3497 26.46949,-27.0214 56.83751,-42.4696 92.54703,-47.0787 8.99181,-1.1603 21.78921,-1.5265 53.375,-1.5265 41.33441,0 50.21038,0.4704 65.18749,3.4742 24.80774,4.9706 47.84642,16.1249 67.89002,32.8702 29.19575,24.3914 48.48878,55.6831 55.44397,89.9254 2.85813,14.0712 3.52609,23.7927 3.53483,51.4421 l 0.006,19.5782 h -1.09424 c -0.86352,0 -1.09424,-0.224 -1.09424,-1.0528 0,-2.203 -1.78998,-27.0341 -2.43141,-33.727 -3.02868,-31.6222 -7.80416,-53.2449 -15.12036,-68.4709 -3.09224,-6.4354 -6.59441,-11.8076 -12.40667,-19.0312 -26.85354,-33.3747 -60.1001,-54.9974 -99.7591,-64.8807 -19.18816,-4.7824 -34.16061,-6.4333 -57.96876,-6.3952 -20.31042,0.033 -36.38673,1.3641 -52.93749,4.3848 -38.31339,6.9921 -66.59943,20.4855 -88.40432,42.1731 -11.67163,11.6088 -19.11051,22.1412 -26.64683,37.728 -12.54083,25.9372 -18.61071,55.9272 -19.54708,96.5777 l -0.29232,12.6943 h -2.9921 -2.99218 z"
     id="path530" />
  <path
     style="fill:#806600;stroke-width:0.4375"
     d="m 576.08551,2020.0469 -0.11648,-74.2656 -1.16055,-3.4026 c -3.1566,-9.2557 -10.82412,-17.2873 -19.67783,-20.6123 -5.35584,-2.0115 -7.06238,-2.0843 -45.22411,-1.932 l -35.875,0.1456 -3.06252,1.0192 c -5.14864,1.7204 -8.83501,3.9279 -12.75085,7.6351 -2.01051,1.9029 -3.65545,3.2222 -3.65545,2.9321 0,-2.3643 4.30237,-6.8779 9.56289,-10.034 6.10826,-3.6647 12.20405,-5.6661 22.15591,-7.2778 5.87955,-0.952 26.11151,-1.3496 33.96964,-0.672 18.28233,1.5859 33.37147,5.1229 43.90536,10.2939 9.10403,4.4688 11.68267,7.5242 13.31053,15.7749 3.59218,18.2057 6.12864,74.7125 6.15171,137.0469 l 0.007,17.6094 h -3.71168 -3.71134 z"
     id="path532" />
  <path
     style="fill:#806600;stroke-width:0.4375"
     d="m 560.39413,2267.6718 c 7.55697,-4.4587 13.97674,-13.6717 15.32721,-21.9955 0.308,-1.8984 0.46032,-27.3166 0.46256,-77.0981 l 0.003,-74.2657 h 3.75189 3.752 l -0.2688,16.5157 c -1.44469,88.5921 -4.70904,136.5242 -10.00933,146.9705 -1.75593,3.4608 -4.91108,7.4155 -7.60256,9.5278 -2.40833,1.8906 -2.66403,1.9858 -5.36267,1.9858 l -2.83382,3e-4 z"
     id="path534" />
  <path
     style="fill:#806600;stroke-width:0.4375"
     d="m 447.4158,2212.3282 c -1.1536,-29.042 -1.34501,-42.3513 -1.36394,-94.8282 -0.0197,-54.4915 0.19152,-68.1236 1.48378,-95.5938 0.18144,-3.8506 0.35952,39.0196 0.39648,95.2656 0.0372,56.2462 -3.3e-4,102.2657 -0.0833,102.2657 -0.083,0 -0.27776,-3.1987 -0.43344,-7.1098 z"
     id="path536" />
  <path
     style="fill:#806600;stroke-width:0.4375"
     d="m 505.53125,2275.6143 c -19.6411,-1.148 -27.97065,-1.8805 -37.1791,-3.2693 -10.34611,-1.5601 -12.07907,-2.4035 -14.05784,-6.8398 -0.95424,-2.1414 -2.79429,-8.5882 -2.79429,-9.7933 0,-0.3024 0.62944,0.4144 1.39765,1.6039 2.02462,3.1192 7.63851,8.5489 10.6559,10.3062 2.86284,1.6677 6.35029,3.1338 9.38392,3.9446 2.59168,0.6944 69.35236,1.064 74.66059,0.4144 1.98252,-0.2464 5.12344,-0.952 6.97962,-1.5736 2.30418,-0.7728 4.0815,-1.0864 5.60179,-1.008 2.19565,0.1232 2.15959,0.1456 -2.58574,1.3239 -11.45159,2.8403 -26.82999,4.7275 -40.03126,4.9112 -5.17339,0.072 -10.58747,0.062 -12.03124,-0.022 z"
     id="path538" />
  <path
     style="fill:#806600;stroke-width:0.4375"
     d="M 534.625,2488.2813 V 2425.5 h 168.21875 168.21874 v 62.7813 62.7812 h -3.5 -3.5 v -59.7187 -59.7189 h -160.125 -160.125 v 59.7189 59.7187 h -4.59379 -4.59379 z"
     id="path540" />
  <path
     style="fill:#806600;stroke-width:0.4375"
     d="m 864.06249,2624.3438 v -73.2813 h 3.5 3.5 v 73.2813 73.2811 h -3.5 -3.5 z"
     id="path542" />
  <path
     style="fill:#806600;stroke-width:0.618718"
     d="m 188.0904,2573.8686 v -148.4924 h 148.49243 148.49242 v 148.4924 148.4926 H 336.58283 188.0904 Z m 292.03511,2.1661 V 2431.5635 H 335.9641 191.80271 v 144.4707 144.4708 H 335.9641 480.12551 Z"
     id="path544" />
  <path
     style="fill:#806600;stroke-width:0.618718"
     d="m 534.57273,2633.8844 v -82.2895 h 4.64038 4.64039 v 82.2895 82.2895 h -4.64039 -4.64038 z"
     id="path546" />
  <path
     style="fill:#806600;stroke-width:1.23743"
     d="m 534.57273,2719.2675 c 0,-2.7104 0.53648,-3.0935 4.33104,-3.0935 3.50605,0 4.33104,0.4704 4.33104,2.4752 0,2.4618 0.82544,2.4752 160.86679,2.4752 h 160.8668 v -11.7556 c 0,-11.7144 0.0111,-11.7556 3.09355,-11.7556 h 3.09355 v 12.3743 12.3744 H 702.86414 534.57273 Z"
     id="path548" />
  <path
     style="fill:#806600;stroke-width:1.23743"
     d="m 920.65303,2573.8686 v -148.4924 h 168.29137 168.2914 v 148.4924 148.4926 H 1088.9444 920.65303 Z m 327.92077,2.4752 V 2431.5635 H 1087.707 926.84021 v 143.9551 c 0,79.1753 0.37072,144.3264 0.82544,144.7801 0.4536,0.4592 72.84375,0.8288 160.86675,0.8288 h 160.0414 z"
     id="path552" />
  <path
     style="fill:#806600;stroke-width:1.23743"
     d="m 1306.7333,2573.8686 v -148.4924 l 148.1831,7e-4 148.1831,7e-4 0.336,148.4917 0.336,148.4919 h -148.5239 -148.524 z m 293.2726,2.4752 v -144.78 h -144.1615 -144.1613 v 144.78 144.7802 h 144.1613 144.1615 z"
     id="path554" />
  <path
     style="fill:#806600;stroke-width:1.23743"
     d="m 1722.5121,2947.5746 c 0,-265.224 0.01,-266.0489 2.4752,-266.0489 2.4673,0 2.4752,0.8288 2.4752,266.0489 0,265.224 -0.01,266.0489 -2.4752,266.0489 -2.4674,0 -2.4752,-0.8288 -2.4752,-266.0489 z"
     id="path556" />
  <path
     style="fill:#806600;stroke-width:3.5"
     d="m 1727.0779,3335.5 c 0,-68.3375 0.4704,-96.2938 1.0416,-62.1251 0.5712,34.1689 0.5712,90.0813 0,124.25 -0.5712,34.1689 -1.0416,6.2127 -1.0416,-62.1249 z"
     id="path558" />
  <path
     style="fill:#806600;stroke-width:3.5"
     d="m 1726.0526,3391.5 c 0,-4.8126 0.7952,-6.7816 1.7651,-4.3747 0.9744,2.4057 0.9744,6.3437 0,8.7505 -0.9744,2.4058 -1.7651,0.4368 -1.7651,-4.3747 z"
     id="path560" />
  <path
     style="fill:#806600;stroke-width:112"
     d="m 204.23703,3573.7398 -46.01298,-1.9898 -24.99695,-17.0895 c -13.74831,-9.3993 -31.83906,-24.9111 -40.201653,-34.4708 L 77.82073,3502.8084 75.359978,3330.7792 C 71.621407,3069.4189 75.172938,2187.3373 80.075906,2159.5 c 9.387471,-53.2986 19.036285,-67.8386 56.424094,-85.0272 37.14605,-17.0774 53.9103,-20.2443 121.47012,-22.9472 35.04605,-1.4022 64.75661,-3.5862 66.02345,-4.8529 1.26683,-1.2668 3.52262,-28.7678 5.01278,-61.1133 2.11882,-45.9911 4.37992,-63.7681 10.37379,-81.5594 9.66634,-28.6922 25.04533,-52.9767 42.10669,-66.4896 L 394.75733,1827 h 115.45839 115.45835 l 16.19355,13.1249 c 26.79631,21.7187 42.89457,46.3696 49.17335,75.298 4.64016,21.3788 12.42192,101.1944 12.45053,127.702 l 0.009,7.8748 h 191.96467 191.96473 l 4.2098,-50.6846 c 6.6275,-79.7923 20.2531,-119.2602 53.1986,-154.0953 l 18.1776,-19.2201 h 116.9759 116.9759 l 11.8856,9.0652 c 16.1057,12.2845 34.4806,40.8203 43.8659,68.1233 5.7916,16.8468 8.4348,35.4151 10.4362,73.3111 l 2.6802,50.75 -0.8736,-50.75 c -0.8848,-51.5592 -1.4874,-54.6104 -20.9222,-106.75 -6.2093,-16.658 8.6464,7.0482 16.3179,26.0407 7.1714,17.7528 7.8624,25.2022 7.877,84.9427 l 0.017,65.4833 17.5,1.6564 c 9.6253,0.9072 42.7,3.2268 73.5,5.1453 72.6542,4.5259 97.3293,11.7267 120.8758,35.2732 25.8572,25.8571 31.0234,38.9815 34.8836,88.6173 1.8323,23.5621 3.7262,91.6652 4.2078,151.3402 l 0.8736,108.5 1.9533,-103.25 c 1.0752,-56.7874 1.3989,92.8375 0.7168,332.5 -1.4235,503.9621 -5.5048,763.9693 -12.7096,809.6273 -6.822,43.2372 -16.0641,59.5216 -43.0151,75.7951 -26.9793,16.2908 -31.5355,17.0792 -121.7928,21.0761 -77.5681,3.435 -1262.23346,3.6478 -1341.01306,0.2464 z m 942.49287,-110.8626 105.4798,-2.1616 2.0575,-38.9827 c 1.1312,-21.4403 2.4908,-86.1594 3.0206,-143.8201 l 0.9632,-104.8377 -8.7506,-2.4382 c -4.8126,-1.3406 -80.8062,-2.595 -168.875,-2.7877 l -160.12495,-0.3472 -10e-4,149.625 -10e-4,149.625 60.3762,-0.8512 c 33.20695,-0.4704 107.84215,-1.8278 165.85615,-3.0173 z M 486.5,3316.2124 v -148.7876 l -149.625,0.9072 -149.625,0.9072 -0.91504,143.4967 c -0.50288,78.9231 -0.15904,145.4668 0.76496,147.8749 1.30838,3.4093 34.6193,4.3781 150.54,4.3781 H 486.5 Z m 385,0.037 v -148.75 h -168 -168 v 136.0624 c 0,74.8345 0.9688,140.9055 2.15242,146.8247 2.74948,13.7475 -4.65316,13.1857 184.22257,13.982 L 871.5,3465 v -148.75 z m 731.5,0 v -148.75 H 1454.25 1305.5 v 148.75 148.75 H 1454.25 1603 Z m -1116.5,-371 v -162.75 H 336 185.5 v 162.75 162.75 H 336 486.5 Z m 385,0 v -162.75 h -168 -168 v 162.75 162.75 h 168 168 z m 385,0 v -162.75 h -168 -168 v 162.75 162.75 h 168 168 z m 346.5,0 v -162.75 H 1454.25 1305.5 v 162.75 162.75 H 1454.25 1603 Z M 486.50109,2575.1249 486.50221,2427.25 337.7511,2428.202 189,2429.154 V 2576.0739 2723 H 337.75 486.5 Z m 384.24655,-1.7505 C 870.19803,2464.07 869.45761,2440.7268 868,2486.75 l -1.99528,63 -0.75264,-60.3751 L 864.5,2429 h -161 -161 v 59.2084 c 0,43.9444 -1.12784,59.7346 -4.37506,61.25 -3.5,1.6329 -3.5,2.4505 0,4.0835 5.56506,2.5973 6.42612,162.4583 0.87472,162.4583 -1.92505,0 -3.5,1.5747 -3.5,3.5 0,2.2848 58.33334,3.5 168,3.5 h 168 z m 383.12726,147.3071 c -3.4014,-1.372 -4.3747,-34.0184 -4.3747,-146.6562 v -144.8908 l -164.5009,-0.9408 -164.50094,-0.9408 9.6e-4,147.875 9e-4,147.875 168.87498,-0.28 c 92.8812,-0.1568 166.9063,-1.0752 164.5,-2.0417 z M 1603,2576.0739 V 2429.148 l -148.7511,-0.952 -148.7511,-0.952 v 147.8749 147.8751 H 1454.25 1603 Z M 559.15188,2271.0554 c 19.09834,-6.057 20.12395,-11.0085 19.84289,-95.8054 -0.22176,-67.0453 0.0487,-71.1178 2.09631,-31.5 1.46597,28.3653 2.09384,0.027 1.66723,-75.25 -0.48608,-85.8538 -1.93144,-123.9844 -4.99979,-131.9419 -6.11901,-15.869 -27.99738,-23.6501 -66.74969,-23.7394 -35.93206,-0.083 -47.23317,2.7182 -54.2639,13.448 -7.363,11.2374 -12.12124,90.4082 -12.01904,199.9833 0.0851,91.242 3.24061,136.1164 10.05032,142.9261 8.91666,8.9163 78.24944,10.1651 104.37578,1.8794 z m 769.94622,1.746 c 5.3502,-1.4336 8.9644,-6.2484 11.3551,-15.1269 5.535,-20.554 4.9257,-303.4148 -0.6944,-320.5559 -6.3627,-19.4189 -17.956,-24.3714 -57.0127,-24.3545 -37.9971,0.016 -61.29,7.4928 -68.3924,21.952 -9.8336,20.0186 -8.0573,297.4674 2.072,323.765 4.8474,12.5852 18.8861,16.2349 62.82,16.3314 23.1,0.051 45.5316,-0.8512 49.8481,-2.0115 z"
     id="path562" />
  <path
     style="fill:#806600;stroke-width:3.5"
     d="m 1702.8288,3522.75 c 12.6203,-36.8054 16.0305,-72.411 18.94,-197.75 l 2.5592,-110.25 0.5824,131.9937 c 0.5488,124.2483 0.1792,133.0919 -6.4164,150.7093 -6.897,18.4349 -21.2753,41.6479 -15.6687,25.297 z"
     id="path564" />
  <path
     style="fill:#806600;stroke-width:0.618718"
     d="m 1306.7333,3342.317 v -122.5063 h 2.4752 2.4752 v 118.1753 118.1752 h 144.1614 144.1615 V 3337.986 c 0,-117.7628 0,-118.1753 1.2376,-118.1753 1.2331,0 1.2376,0.4144 1.2376,122.5063 v 122.5063 h -147.8737 -147.8737 z"
     id="path570" />
  <path
     style="fill:#806600;stroke-width:0.618718"
     d="m 920.65303,3342.317 v -122.5063 h 3.40289 3.4029 v 118.1753 118.1752 h 160.55758 160.5574 V 3337.986 3219.8107 h 4.1003 4.1014 l -0.3808,9.1258 c -0.2128,5.0198 -1.2611,58.8246 -2.3419,119.5674 -1.0752,60.7426 -2.1291,110.6075 -2.3307,110.8106 -0.2912,0.2912 -316.03088,5.6258 -327.82404,5.534 l -3.24823,-0.025 z"
     id="path572" />
  <path
     style="fill:#806600;stroke-width:0.618718"
     d="m 535.81016,2945.4092 v -162.4137 h 167.6727 167.6727 v 162.4137 162.4135 h -167.6727 -167.6727 z m 328.53949,-1.5468 V 2783.6142 H 704.10157 543.8535 v 160.2481 160.2481 h 160.24807 160.24808 z"
     id="path574" />
  <path
     style="fill:#806600;stroke-width:1.75"
     d="M 92.124038,3520.3495 75.316372,3502.1991 73.554236,3120.912 C 71.527842,2682.445 71.247809,2319.7645 72.90486,2279.8125 l 1.14315,-27.5625 h 187.54245 187.54248 l 2.49603,8.3126 c 1.72424,5.7423 3.84877,8.9432 6.87097,10.3533 5.79253,2.7015 38.99846,5.9203 56.74144,5.4992 l 14.13356,-0.336 -15.75,-1.1872 c -13.9594,-1.0528 -13.26306,-1.1267 6.12495,-0.6608 34.72973,0.8288 52.05921,-4.7667 55.35017,-17.8791 l 1.02928,-4.1014 319.62278,0.045 319.62268,0.045 3.3052,7.1602 c 2.5177,5.4544 5.227,8.0494 11.375,10.892 7.588,3.509 10.6848,3.7229 51.8201,3.5874 28.5565,-0.094 45.4246,-0.84 48.5719,-2.1482 4.312,-1.7909 7.8893,-7.2901 10.7453,-16.5201 0.896,-2.8919 11.4365,-3.0621 189.1278,-3.0621 103.4989,0 188.341,0.2016 188.5377,0.4368 0.2016,0.2352 0.8064,36.2687 1.3642,80.0625 l 1.008,79.625 0.3808,-80.0624 c 0.336,-69.8285 0.7168,-80.0626 3.0117,-80.0626 2.3195,0 2.6253,24.8889 2.6253,213.5 0,141.1667 -0.5936,213.5 -1.7506,213.5 -1.1334,0 -1.867,-25.7424 -2.0821,-73.0625 -0.1792,-40.1844 -0.8736,102.9438 -1.5254,318.0625 -0.7392,240.6141 -1.9712,411.6645 -3.2155,444.5 -3.8932,102.7513 -9.8314,141.4048 -25.1997,164.0506 l -3.8517,5.675 -790.34656,0.012 -790.34664,0.012 z M 1102.5,3463.0376 c 81.3313,-1.0976 148.4343,-2.4931 149.1179,-3.0979 0.6832,-0.6048 2.0395,-40.8613 3.0117,-89.4577 0.9744,-48.5964 2.2736,-112.8484 2.8896,-142.7824 1.0752,-52.0184 0.9744,-54.4821 -2.137,-55.7111 -7.6977,-3.0385 -66.3398,-4.3601 -196.1954,-4.4217 L 920.5,3167.5 v 149.7653 149.7651 l 17.06249,-0.9968 c 9.38437,-0.5488 83.60621,-1.8961 164.93751,-2.9948 z M 484.75,3316.25 V 3167.5 H 341.46875 c -78.80469,0 -145.74667,0.4928 -148.75995,1.0976 l -5.4787,1.0976 0.448,146.3418 0.448,146.3416 7.87494,1.0528 c 4.33127,0.5824 71.07188,1.1682 148.3125,1.3127 l 140.4375,0.2576 z m 386.75,0 V 3167.5 H 703.37855 535.25709 l 0.78512,138.6875 c 0.43232,76.2781 1.4765,141.7888 2.32109,145.5794 1.30805,5.871 2.41416,7.1198 7.46626,8.4291 11.51524,2.9837 67.22341,4.275 195.73252,4.5382 L 871.5,3465.003 Z m 731.5,-0.01 v -148.7599 l -148.3125,0.448 -148.3126,0.448 -0.4816,25.8125 c -0.4144,22.1902 -0.1094,25.8126 2.1874,25.8126 2.3688,0 2.6712,13.3723 2.6712,118.1249 v 118.125 H 1456 c 143.9454,0 145.25,0.031 145.25,3.4899 0,3.4552 -1.4594,3.4944 -147.4375,3.948 l -147.4376,0.4592 148.3126,0.4256 148.3125,0.4256 V 3316.2401 Z M 484.75,2945.25 V 2782.5 H 336 187.25 V 2945.25 3108 H 336 484.75 Z m 386.75,0 V 2782.5 h -168 -168 V 2945.25 3108 h 168 168 z m 385,0 V 2782.5 h -168 -168 V 2945.25 3108 h 168 168 z m 346.5,0 V 2782.5 H 1454.25 1305.5 V 2945.25 3108 H 1454.25 1603 Z M 483.43749,2721.841 C 481.71219,2721.1448 481.25,2690.3 481.25,2575.8542 V 2430.75 H 336.01982 190.78965 l -0.45696,146.1252 -0.45696,146.1251 147.875,-0.1344 c 81.33125,-0.076 146.89062,-0.5376 145.68749,-1.0192 z m 387.66914,-115.6535 c -0.21616,-64.2469 -0.62832,-103.2281 -0.91616,-86.625 -0.4368,25.2159 -0.94864,30.1875 -3.10665,30.1875 -2.22757,0 -2.58373,-8.2006 -2.58373,-59.5 v -59.5 h -161 -161 v 59.5 c 0,58.3333 -0.0686,59.5 -3.5,59.5 -1.92506,0 -3.5,0.784 -3.5,1.7506 0,0.9632 1.57494,1.7505 3.5,1.7505 3.44982,0 3.5,1.1671 3.5,81.375 V 2716 l -3.93747,0.1344 c -2.42704,0.085 -2.93048,0.4704 -1.31253,1.008 1.44379,0.4704 4.2,1.5736 6.12494,2.4405 5.97722,2.6891 13.33413,2.8224 172.8125,3.1248 L 871.5,2723 Z m 366.58087,115.672 11.8125,-1.12 V 2575.747 2430.75 H 1087.5765 925.65293 l 0.48608,145.2503 c 0.38416,114.9406 0.0317,145.2503 -1.69154,145.25 -1.71584,-2e-4 -2.2746,-31.2587 -2.63513,-147.4378 l -0.45696,-147.4376 -0.42784,148.3126 -0.42784,148.3125 152.6875,-0.012 c 83.9781,-0.01 158.003,-0.5152 164.4999,-1.1278 z m 363.9801,-144.9843 -0.4592,-146.1252 h -145.2301 -145.2302 v 145.1042 c 0,114.4458 -0.4592,145.2906 -2.1874,145.9868 -1.2028,0.4816 64.3562,0.9408 145.6875,1.0192 l 147.875,0.1344 -0.4592,-146.1251 z m 121.4914,-50.3127 c -0.4816,-1.2029 -0.8848,-0.224 -0.8848,2.1874 0,2.4057 0.392,3.3902 0.8848,2.1873 0.4816,-1.2028 0.4816,-3.1718 0,-4.3747 z"
     id="path576" />
  <path
     style="fill:#806600;stroke-width:0.875"
     d="m 64.994337,2378.0313 c 0.299152,-244.6783 -0.198688,-223.2447 5.594064,-240.8438 12.235572,-37.1734 44.706729,-70.0194 81.396179,-82.3356 16.21855,-5.4443 20.02324,-5.8195 61.51542,-6.057 30.50865,-0.1792 34.50264,-0.08 20.125,0.4816 -45.37788,1.7629 -69.40498,8.1234 -111.38406,29.4861 -16.22286,8.2555 -23.865364,15.3883 -30.453795,28.4222 -9.555717,18.9039 -15.277099,55.126 -18.284168,115.7566 -2.230659,44.9762 -2.773982,82.819 -3.231782,225.0938 l -0.48776,151.5937 h -2.530024 -2.530024 z"
     id="path578" />
  <path
     style="fill:#806600;stroke-width:0.875"
     d="m 326.75624,1994.5625 c 5e-4,-12.5125 0.1232,-17.5096 0.27328,-11.1048 0.15008,6.4053 0.14896,16.6424 -9.1e-4,22.75 -0.15008,6.1074 -0.27216,0.8624 -0.27216,-11.6454 z"
     id="path580" />
  <path
     style="fill:#806600;stroke-width:0.875"
     d="M 320.25,2018.1875 V 1989.75 h 3.06253 3.06253 v 16.1102 c 0,9.4595 -0.55776,20.3867 -1.34994,26.4687 -1.76299,13.5284 -1.94981,14.296 -3.47928,14.296 -1.11776,0 -1.29584,-3.9054 -1.29584,-28.4374 z"
     id="path582" />
  <path
     style="fill:#806600;stroke-width:0.4375"
     d="m 67.2356,3484.0803 c -0.430752,-1.1222 -2.021969,-11.3818 -2.474628,-15.9548 -0.296576,-2.9971 -0.448448,-55.3974 -0.448448,-154.7655 v -150.2351 h 4.156252 4.156253 l 0.0098,1.6408 c 0.09711,16.1809 1.285525,299.1434 1.292648,307.7813 l 0.01001,12.1406 h -3.234476 c -2.355416,0 -3.297773,-0.168 -3.467453,-0.6048 z"
     id="path584" />
  <path
     style="fill:#806600;stroke-width:0.4375"
     d="m 68.838119,3484.3741 c -1.660109,-0.2128 -1.53673,0.2016 -2.941927,-9.7496 l -1.08136,-7.6563 -0.175168,-81.9219 -0.175168,-81.9219 h 4.245215 4.245214 l 0.273168,65.9532 c 0.150192,36.2742 0.33096,77.1258 0.40152,90.7813 l 0.128352,24.828 -1.769611,-0.07 c -0.97328,-0.039 -2.390886,-0.1456 -3.150235,-0.2464 z"
     id="path586" />
  <path
     style="fill:#806600;stroke-width:0.875"
     d="m 70.475568,3494.7049 c -2.85964,-9.053 -2.837655,-9.5805 0.399392,-9.5805 H 73.5 v 8.3126 c 0,4.5719 -0.17976,8.3127 -0.399392,8.3127 -0.219632,0 -1.400941,-3.1708 -2.62504,-7.0448 z"
     id="path588" />
  <path
     style="fill:#806600;stroke-width:0.4375"
     d="m 479.60938,3579.7492 c 0.66192,-0.1003 1.74451,-0.1003 2.40621,0 0.66192,0.1002 0.11984,0.1792 -1.20311,0.1792 -1.32339,0 -1.8648,-0.082 -1.2031,-0.1792 z"
     id="path592" />
  <path
     style="fill:#806600;stroke-width:0.4375"
     d="m 583.96779,3580.177 c 1.27131,-0.089 3.24005,-0.088 4.37505,0 1.1349,0.09 0.0947,0.1568 -2.31156,0.1568 -2.40621,0 -3.3348,-0.075 -2.06349,-0.168 z"
     id="path594" />
  <path
     style="fill:#806600;stroke-width:1.75"
     d="M 179.20689,3582.2264 C 139.71644,3578.0242 106.37779,3556.593 83.36236,3520.614 79.863062,3515.1439 77,3510.08 77,3509.3612 c 0,-0.7168 9.646874,8.2051 21.4375,19.8309 22.42208,22.1086 41.95347,36.3337 58.2683,42.4378 19.38944,7.2543 86.58423,7.998 720.0442,7.9632 748.1071,-0.04 749.5656,-0.08 787.4176,-21.442 15.866,-8.9544 29.318,-20.0253 33.2432,-27.3598 1.6565,-3.0957 2.8885,-3.9245 3.7543,-2.5245 1.8939,3.0643 -11.0925,17.6143 -25.4344,28.4964 -15.2629,11.581 -27.1103,17.587 -44.4607,22.539 l -13.3947,3.8225 -713.12496,0.2128 c -392.21875,0.112 -718.71315,-0.3808 -725.54312,-1.1088 z"
     id="path596" />
  <path
     style="fill:#806600;stroke-width:0.4375"
     d="m 1637.7813,3577.4887 c 14.8219,-5.0412 23.673,-9.7922 37.1874,-19.9616 13.3542,-10.0486 26.4688,-23.9174 26.4688,-27.9918 0,-0.3808 0.6384,-1.251 1.428,-1.941 3.7453,-3.2883 14.0151,-23.7563 17.5767,-35.0305 3.2368,-10.248 4.6077,-26.8387 4.6166,-55.8921 v -14.1093 h 1.3462 1.3463 l -0.1792,23.2969 c -0.168,21.1984 -0.2688,23.8289 -1.1234,29.2031 -1.6666,10.444 -4.6211,21.0091 -8.2578,29.5292 -12.4977,29.278 -38.9467,55.9763 -68.3931,69.0378 -4.8698,2.1604 -16.0906,6.0132 -17.38,5.9684 -0.4144,-0.015 1.9936,-0.9632 5.3614,-2.11 z"
     id="path600" />
  <path
     style="fill:#806600;stroke-width:0.4375"
     d="m 1697.9861,3528.6562 c 0.097,-0.2352 0.8064,-1.6565 1.5881,-3.1461 4.1664,-7.9923 7.9442,-20.309 10.574,-34.4794 2.7832,-14.9961 5.7108,-41.827 6.8622,-62.8907 0.168,-3.0677 0.4704,-5.5776 0.6832,-5.5776 0.5152,0 0.4704,2.0127 -0.2912,13.224 -2.6275,38.6209 -6.0682,59.5593 -13.7446,83.6375 -1.2197,3.826 -2.2176,7.3013 -2.2176,7.7247 0,0.56 -0.2464,0.7056 -0.8848,0.5376 -0.5264,-0.1344 -1.2668,0.1022 -1.8133,0.5824 -0.504,0.448 -0.84,0.6272 -0.7504,0.3808 z"
     id="path602" />
  <path
     style="fill:#806600;stroke-width:0.4375"
     d="m 1701.8751,3527.3894 c 0,-0.392 1.1883,-4.5047 2.6409,-9.1314 5.4903,-17.492 8.4079,-32.046 10.8965,-54.3515 0.9072,-8.083 2.3912,-26.4588 2.9165,-35.9843 l 0.2912,-5.3592 h 3.0005 3.0004 l -0.01,14.5469 c -0.015,22.5178 -0.896,38.2284 -2.66,47.4507 -1.9925,10.4104 -9.3285,27.642 -16.6623,39.1345 -2.3912,3.7464 -3.4172,4.8563 -3.4172,3.6948 z"
     id="path606" />
  <path
     style="fill:#806600;stroke-width:0.4375"
     d="m 1725.0621,3361.8594 c -2e-4,-33.3867 -0.1344,-72.0726 -0.2912,-85.9688 l -0.2912,-25.2657 h 1.6699 1.6699 l -0.3472,6.234 c -0.1904,3.4294 -0.5152,33.9936 -0.7168,67.9218 -0.2016,33.9282 -0.4816,63.7196 -0.6272,66.2033 -0.2016,3.4967 -0.112,4.7309 0.3584,5.469 0.4816,0.7392 0.6944,3.8349 0.9296,13.531 l 0.3136,12.5782 h -1.3373 -1.3372 z"
     id="path608" />
  <path
     style="fill:#806600;stroke-width:0.4375"
     d="m 1720.7221,3316.4323 c 0.021,-0.5152 0.1232,-0.616 0.2688,-0.2688 0.1232,0.3136 0.1107,0.6944 -0.035,0.84 -0.1456,0.1456 -0.2464,-0.112 -0.2352,-0.5712 z"
     id="path610" />
  <path
     style="fill:#806600;stroke-width:0.4375"
     d="m 1709.3125,3501.5901 c 0,-0.3248 0.4928,-2.7832 1.0976,-5.4533 3.2133,-14.2356 6.0615,-38.0744 7.6407,-63.9489 1.8704,-30.6451 2.7081,-55.5431 4.816,-143.0625 1.3742,-57.0508 1.26,-59.5192 1.7539,37.8438 l 0.3024,59.9375 -0.04,-68.1407 -0.04,-68.1406 h 1.4784 1.4784 l -0.2576,2.0776 c -0.6832,5.4208 -1.792,142.6138 -1.1659,144.2585 1.4381,3.7822 1.2824,69.9143 -0.1904,78.5384 -1.0304,6.0435 -3.5538,16.1188 -5.4286,21.6562 -1.3653,4.0309 -1.7876,4.835 -2.6007,4.9526 -0.5376,0.077 -0.9744,0.063 -0.9744,-0.031 0,-0.094 0.8064,-2.3005 1.7831,-4.9033 2.2209,-5.8946 3.202,-9.6948 4.0779,-15.8029 1.3765,-9.595 1.6464,-15.2724 1.7785,-37.3717 l 0.1344,-22.5313 -0.336,20.5626 c -0.4032,24.743 -1.0752,34.9373 -2.8828,43.75 -0.6608,3.2144 -3.2357,11.3551 -4.5999,14.5377 l -0.8064,1.8681 h -3.5157 c -2.6801,0 -3.5156,-0.1456 -3.5156,-0.5936 z"
     id="path612" />
  <path
     style="fill:#806600;stroke-width:0.4375"
     d="m 1717.6961,3417.2031 c 2.2456,-40.8495 4.1608,-125.8892 4.3568,-193.4844 0.033,-11.3093 0.1904,-24.9921 0.3584,-30.4062 l 0.3024,-9.8437 0.095,10.0621 c 0.092,9.8146 0.5824,18.04 1.1783,19.5793 0.1568,0.4256 0.56,0.7616 0.8848,0.7616 1.5747,0 1.9196,-3.0128 2.352,-20.5942 0.2464,-10.117 0.336,-5.3536 0.392,22.2349 l 0.072,35.1093 h -1.531 -1.531 v -17.7916 c 0,-9.7855 -0.112,-17.6758 -0.2576,-17.5341 -0.1456,0.1456 -0.8176,24.5378 -1.5076,54.2135 -1.9868,85.8096 -2.6488,109.2317 -3.9323,139.2685 -0.4928,11.4032 -0.6944,13.7813 -1.2163,13.7813 -0.168,0 -0.1792,-2.4114 -0.016,-5.3592 z"
     id="path614" />
  <path
     style="fill:#806600;stroke-width:0.4375"
     d="m 1602.5053,3259.2656 c -0.063,-36.2515 -0.1792,-39.5179 -1.3653,-39.4236 -0.7168,0.057 -0.7616,-1.4448 -0.7616,-25.9219 v -25.9826 h 1.3127 1.3126 v 62.125 c 0,34.1688 -0.099,62.125 -0.224,62.125 -0.1232,0 -0.2464,-14.8148 -0.28,-32.9219 z"
     id="path616" />
  <path
     style="fill:#806600;stroke-width:0.4375"
     d="m 1727.9039,2766.0938 c 0,-88.55 0.05,-124.7098 0.1117,-80.3551 0.061,44.3547 0.061,116.8047 0,161 -0.062,44.1953 -0.1117,7.905 -0.1117,-80.6449 z"
     id="path618" />
  <path
     style="fill:#806600;stroke-width:0.4375"
     d="m 1727.2391,2716.3282 c -0.01,-17.8388 -0.4816,-32.5356 -1.0976,-34.1251 -0.3248,-0.84 -1.7348,-1.0304 -2.1907,-0.2912 -0.1568,0.2576 -0.4368,2.2758 -0.616,4.4845 l -0.3248,4.0152 -0.062,-4.7029 -0.062,-4.7029 h 2.4057 2.4058 v 26.9062 c 0,14.7985 -0.098,26.9064 -0.224,26.9064 -0.1232,0 -0.224,-8.3183 -0.2352,-18.4844 z"
     id="path620" />
  <path
     style="fill:#806600;stroke-width:0.4375"
     d="m 1727.1194,2698.3906 c -0.1456,-7.7605 -0.4368,-14.7 -0.6384,-15.4219 -0.4592,-1.5747 -2.5099,-2.1425 -2.8594,-0.7952 -0.1568,0.6272 -0.2128,0.5824 -0.2576,-0.1904 -0.046,-0.896 0.1456,-0.9856 2.137,-0.9856 h 2.1874 v 15.75 c 0,8.6621 -0.069,15.75 -0.1568,15.75 -0.085,0 -0.2688,-6.3492 -0.4144,-14.1094 z"
     id="path622" />
  <path
     style="fill:#806600;stroke-width:0.4375"
     d="M 1306.8125,2854.6875 V 2782.5 H 1454.9062 1603 v 72.1875 72.1874 h -1.3126 -1.3127 v -71.5311 -71.5313 H 1456 1311.6251 v 71.5313 71.5311 h -2.4069 -2.4058 z"
     id="path626" />
  <path
     style="fill:#806600;stroke-width:0.875"
     d="M 921.375,2945.25 V 2782.5 H 1088.9375 1256.5 V 2945.25 3108 H 1088.9375 921.375 Z m 327.2499,-1.3126 V 2783.3749 H 1088.0625 927.5 V 2943.9375 3104.5 h 160.5625 160.5624 z"
     id="path628" />
  <path
     style="fill:#806600;stroke-width:0.875"
     d="m 1312.0532,2943.9375 c 0,-88.0688 0.1026,-123.9672 0.224,-79.7744 0.1232,44.193 0.1232,116.2492 0,160.1251 -0.1232,43.8759 -0.224,7.7179 -0.224,-80.3507 z"
     id="path630" />
  <path
     style="fill:#806600;stroke-width:0.875"
     d="m 1307.25,3017.4375 v -90.5626 h 2.1874 2.1873 v 88.8126 88.8125 H 1456 1600.3749 v -88.8125 c 0,-78.3612 0.1568,-88.8126 1.3127,-88.8126 1.1581,0 1.3126,10.6456 1.3126,90.5626 V 3108 h -147.875 -147.875 z"
     id="path632" />
  <path
     style="fill:#806600;stroke-width:0.875"
     d="m 1312.0127,3194.1875 c -5e-4,-14.4375 0.1232,-20.4666 0.2688,-13.3978 0.1456,7.0683 0.1456,18.8812 8e-4,26.25 -0.1456,7.3685 -0.2688,1.5848 -0.2688,-12.8522 z"
     id="path634" />
  <path
     style="fill:#806600;stroke-width:0.875"
     d="m 1307.25,3193.75 v -25.3751 h 2.1874 2.1873 v 25.3751 25.3749 h -2.1873 -2.1874 z"
     id="path636" />
  <path
     style="fill:#806600;stroke-width:0.875"
     d="m 1248.6249,3195.4833 v -23.6416 l 2.4069,0.5376 c 5.9853,1.3317 5.469,-0.9408 5.469,24.0568 v 22.691 h -3.9379 -3.938 z"
     id="path638" />
  <path
     style="fill:#806600;stroke-width:0.875"
     d="m 625.18749,3463.203 c -46.2994,-0.8288 -80.39939,-3.0084 -83.26055,-5.3335 -3.30568,-2.6857 -4.45021,-28.9092 -5.07349,-116.2449 -0.26656,-37.2968 -0.7112,-91.5359 -0.98896,-120.5311 l -0.504,-52.7189 h 4.00725 4.00725 v 143.9376 143.9375 H 703.93749 864.5 v -143.9375 -143.9376 h 3.06253 3.06253 v 147.8751 147.8749 l -105.21875,-0.1456 c -57.87031,-0.082 -120.96876,-0.4256 -140.21876,-0.7728 z"
     id="path640" />
  <path
     style="fill:#806600;stroke-width:0.875"
     d="m 921.375,3193.75 v -25.3751 h 3.06253 3.06253 v 25.3751 25.3749 h -3.06253 -3.06253 z"
     id="path642" />
  <path
     style="fill:#806600;stroke-width:0.875"
     d="m 212.18749,3463.1596 c -10.1062,-0.3808 -19.55624,-1.0304 -21,-1.4537 l -2.62494,-0.7728 -0.22176,-145.1339 c -0.224,-147.1887 -0.23744,-146.4809 2.62763,-146.5393 0.36064,-0.01 0.65632,64.5615 0.65632,143.4865 v 143.5 H 336 480.375 v -143.9375 -143.9375 h 2.18747 2.18747 v 147.875 147.875 l -127.09374,-0.1456 c -69.90157,-0.078 -135.36251,-0.448 -145.46876,-0.8288 z"
     id="path644" />
  <path
     style="fill:#806600;stroke-width:0.875"
     d="M 188.125,2945.25 V 2782.5 H 336.43749 484.75 V 2945.25 3108 H 336.43749 188.125 Z m 292.25,-1.3126 V 2783.3749 H 336 191.625 V 2943.9375 3104.5 H 336 480.375 Z"
     id="path646" />
  <path
     style="fill:#806600;stroke-width:0.875"
     d="M 64.75,2905.4375 V 2647.75 h 2.555358 c 2.500031,0 2.565752,0.1232 3.035368,5.469 0.263984,3.0083 0.690032,90.7156 0.946848,194.9062 0.256704,104.1907 0.720944,217.6891 1.031408,252.2188 l 0.564592,62.7812 H 68.816813 64.75 Z"
     id="path648" />
  <path
     style="fill:#806600;stroke-width:0.4375"
     d="M 64.420889,2719.6094 64.3125,2599.6249 h 2.841104 2.841104 l 0.114688,-34.4531 c 0.06309,-18.9491 0.143136,-7.5801 0.177744,25.2657 0.03469,32.8453 -0.07303,59.2266 -0.239344,58.625 -0.271376,-0.9856 -0.559104,-1.1088 -2.79916,-1.2253 l -2.496704,-0.1344 -0.111343,95.9437 -0.111342,95.9437 z"
     id="path650" />
  <path
     style="fill:#806600;stroke-width:0.4375"
     d="m 192.17187,3582.386 c 0.42112,-0.1101 1.10992,-0.1101 1.53127,0 0.42112,0.11 0.0766,0.2016 -0.76608,0.2016 -0.84224,0 -1.18675,-0.09 -0.76608,-0.2016 z"
     id="path652" />
  <path
     style="fill:#d4aa00;stroke-width:9.89949"
     d="m 162.96982,1781.4056 c -16.53868,-4.8796 -43.26732,-22.6451 -59.39697,-39.4787 L 74.246212,1711.3205 71.255326,1036.326 C 68.509726,416.68866 69.644415,358.70783 85.091105,329.33919 112.19052,277.81534 142.92888,263.89864 240.06275,259.1763 l 86.62059,-4.2112 v -65.76517 c 0,-76.55089 20.42161,-123.660651 67.56514,-155.863204 59.41477,-40.5847265 171.79096,-40.4932034 231.5265,0.188608 54.53009,37.136694 69.63826,67.189516 74.88609,148.961656 l 4.80677,74.89987 h 190.43644 190.43652 l 4.8067,-74.89992 c 5.2545,-81.87442 20.3454,-111.819299 75.166,-149.150214 59.5985,-40.5846514 171.9771,-40.4931262 231.5265,0.188608 46.8694,32.019267 67.2852,79.254436 67.2852,155.674646 v 65.76513 l 87.0428,4.16158 c 93.729,4.48124 119.5358,15.44533 151.9043,64.5367 17.355,26.32131 18.3128,62.52097 18.3746,694.48851 0.069,735.6188 2.1437,710.5642 -61.9666,749.3429 -30.9203,18.7028 -56.5189,19.4224 -749.72676,21.0735 -399.87737,0.952 -731.0299,-2.2198 -747.78372,-7.1624 z M 485.07525,1524.5223 V 1376.0298 H 336.58283 188.0904 v 148.4925 148.4924 h 148.49243 148.49242 z m 386.08031,0 V 1376.0298 H 702.86414 534.57273 v 141.8928 c 0,78.041 2.96979,144.8626 6.59971,148.4924 3.62981,3.6299 79.36094,6.6001 168.29141,6.6001 H 871.1556 Z m 383.87004,-2.4752 2.7396,-146.0176 H 1089.209 920.65303 v 148.7319 148.7317 l 165.81657,-2.7137 165.8165,-2.7138 z m 348.6925,2.4752 v -148.4925 h -148.4924 -148.4924 v 148.4925 148.4924 h 148.4924 148.4924 z M 485.07525,1153.2911 V 989.94949 H 336.58283 188.0904 v 163.34161 163.3417 h 148.49243 148.49242 z m 386.08031,0 V 989.94949 H 702.86414 534.57273 v 163.34161 163.3417 h 168.29141 168.29142 z m 386.08024,0 V 989.94949 H 1088.9444 920.65303 v 163.34161 163.3417 h 168.29137 168.2914 z m 346.4823,0 V 989.94949 h -148.4924 -148.4924 v 163.34161 163.3417 h 148.4924 148.4924 z M 485.07525,782.06009 V 633.56767 H 336.58283 188.0904 v 148.49242 148.49244 h 148.49243 148.49242 z m 386.08031,0 V 633.56767 H 702.86414 534.57273 v 148.49242 148.49244 h 168.29141 168.29142 z m 386.08024,0 V 633.56767 H 1088.9444 920.65303 v 148.49242 148.49244 h 168.29137 168.2914 z m 346.4823,0 V 633.56767 h -148.4924 -148.4924 v 148.49242 148.49244 h 148.4924 148.4924 z M 573.8224,465.92707 c 12.23864,-22.86812 13.65345,-306.63496 1.62343,-325.60991 -11.46878,-18.08969 -82.88634,-26.22527 -108.7425,-12.38747 -20.4149,10.92573 -21.22606,17.7463 -21.22606,178.47799 0,124.43184 3.16075,168.39355 12.37437,172.11132 6.80591,2.74624 33.3778,5.34487 59.04867,5.77472 36.51365,0.61152 48.90517,-3.38688 56.92209,-18.36665 z m 756.8499,13.1393 c 13.4221,-5.15054 15.659,-29.84869 15.659,-172.89287 0,-160.49226 -0.8176,-167.31906 -21.2261,-178.24381 -25.856,-13.8378 -97.2737,-5.70225 -108.7425,12.38747 -12.0299,18.97495 -10.6154,302.74179 1.624,325.60991 7.7392,14.46007 20.8711,19.14818 53.6377,19.14818 23.8643,0 50.4361,-2.70402 59.0485,-6.00891 z"
     id="path662" />
  <path
     style="fill:#d4aa00;stroke-width:3.5"
     d="m 1309,1669.5 c 0,-2.2781 51.3333,-3.5 147,-3.5 95.6667,0 147,1.2219 147,3.5 0,2.2781 -51.3333,3.5 -147,3.5 -95.6667,0 -147,-1.2219 -147,-3.5 z"
     id="path666" />
  <path
     style="fill:#d4aa00;stroke-width:3.5"
     d="m 1702.8288,1730.75 c 13.4355,-39.1829 16.3928,-74.8413 19.0124,-229.25 l 2.4046,-141.75 0.6272,163.4937 c 0.5936,155.7893 0.3024,164.3757 -6.375,182.2094 -6.897,18.4348 -21.2753,41.6478 -15.6687,25.2969 z"
     id="path668" />
  <path
     style="fill:#d4aa00;stroke-width:3.5"
     d="m 386.49499,1785.0932 -217.25502,-2.1313 -20.63288,-10.3559 c -11.72342,-5.8842 -31.46523,-20.9353 -45.71884,-34.856 l -25.085941,-24.5 -2.166316,-119 C 72.748495,1435.6337 72.822443,419.7644 75.723761,388.54734 L 78.005196,364 H 260.7148 443.42442 l 2.06035,48.17384 c 2.1765,50.88939 5.23264,64.93385 14.94101,68.65928 12.49209,4.79372 76.83434,6.51661 91.70861,2.45572 22.24806,-6.0741 25.3579,-13.41433 29.70263,-70.10796 L 585.606,364 H 896.13201 1206.658 l 2.5267,42.875 c 4.4576,75.6326 9.7149,81.11299 75.3149,78.5074 22.1374,-0.8792 43.1269,-2.77738 46.643,-4.21792 10.2861,-4.21389 13.3539,-17.93759 15.4354,-69.0395 L 1348.5388,364 h 182.7451 182.7452 l 2.212,32.375 c 4.5315,66.33532 6.5408,902.0347 2.5984,1080.625 -3.9312,178.0512 -7.2419,221.6241 -18.9472,249.3776 -11.1406,26.4141 -42.9548,46.1155 -83.8639,51.9341 -14.7814,2.1022 -178.6066,4.8619 -394.528,6.6461 -402.58315,3.3264 -508.02373,3.3432 -835.00496,0.1344 z m 770.80001,-114.2624 95.0451,-2.109 1.9723,-42.4856 c 1.0864,-23.3671 2.7855,-89.3418 3.7789,-146.6107 l 1.8054,-104.1249 H 1090.1983 920.5 v 149.8396 149.8397 l 70.875,-1.12 c 38.9813,-0.616 113.6453,-2.0687 165.92,-3.229 z M 486.5,1524.25 V 1375.5 H 336 185.5 V 1524.25 1673 H 336 486.5 Z m 385,0 V 1375.5 H 701.22111 530.94219 l 2.24112,137.3749 c 1.23256,75.5564 3.21351,141.624 4.40194,146.817 2.8149,12.3001 -2.21368,11.9503 182.53977,12.6966 L 871.5,1673 Z m 554.75,145.25 c -1.3816,-2.2356 9.3658,-3.5 29.75,-3.5 20.3842,0 31.1316,1.2645 29.75,3.5 -1.4112,2.2826 19.2137,3.5 59.2935,3.5 H 1606.5 V 1524.25 1375.5 H 1456 1305.5 V 1524.25 1673 h 61.4565 c 40.0798,0 60.7043,-1.2174 59.2935,-3.5 z M 486.5,1153.25 V 987 H 336 185.5 v 166.25 166.25 H 336 486.5 Z m 385,0 V 987 H 701.75 532 v 166.25 166.25 H 701.75 871.5 Z m 388.5,0 V 987 H 1090.25 920.5 v 166.25 166.25 H 1090.25 1260 Z m 346.5,0 V 987 H 1456 1305.5 v 166.25 166.25 h 150.5 150.5 z m -1120,-371 V 633.5 H 336 185.5 V 782.25 931 H 336 486.5 Z m 385,0 V 633.5 H 701.75 532 V 782.25 931 H 701.75 871.5 Z m 388.5,0 V 633.5 H 1090.25 920.5 V 782.25 931 H 1090.25 1260 Z m 346.5,0 V 633.5 H 1456 1305.5 V 782.25 931 h 150.5 150.5 z"
     id="path670" />
  <path
     style="fill:#d4aa00;stroke-width:3.5"
     d="m 1721.4064,546 c -1.3899,-106.91337 -3.883,-187.25027 -6.1275,-197.45559 -5.189,-23.59417 -1.9309,-24.55491 4.7969,-1.41422 4.7264,16.2593 5.3637,43.90604 4.582,199.0012 l -0.9072,180.1186 z"
     id="path676" />
  <path
     style="fill:#d4aa00;stroke-width:0.4375"
     d="m 1725.0573,459.92187 c -0.01,-74.26225 -0.84,-96.39431 -4.1284,-110.14062 -2.1436,-8.9563 -6.1532,-19.46874 -7.4244,-19.46874 -1.4952,0 -1.2802,3.7558 0.8512,14.875 1.3059,6.81329 1.8681,12.33753 2.1392,21.01619 0.1792,5.85144 0.1568,6.26282 -0.2016,3.04629 -3.1125,-27.87644 -5.413,-35.84468 -14.0672,-48.73112 -6.7496,-10.04659 -12.1837,-16.87407 -19.1471,-24.05321 -19.5184,-20.12323 -42.697,-29.3938 -85.4114,-34.16135 -16.002,-1.78605 -26.2064,-2.4521 -73.8551,-4.82064 l -20.3438,-1.01136 55.1251,0.0842 c 59.5133,0.0909 56.5936,-0.0128 68.2728,2.42614 29.0761,6.07186 56.4308,24.21543 76.189,50.53421 12.6361,16.83173 19.9439,34.10662 23.4181,55.35805 0.9632,5.88426 0.9632,6.16157 1.0976,74.48438 l 0.1344,68.57812 h -1.3249 -1.3261 l -0.01,-48.01562 z"
     id="path678" />
  <path
     style="fill:#d4aa00;stroke-width:0.4375"
     d="m 1466.1718,254.75374 -0.9856,-0.18928 v -39.67269 c 0,-21.81999 -0.2016,-42.92113 -0.448,-46.89145 -1.0752,-17.54932 -3.2424,-33.06639 -6.3705,-45.57928 -0.5824,-2.32949 -1.064,-4.3475 -1.064,-4.48437 0,-0.13664 2.0496,-0.24864 4.5561,-0.24864 h 4.5551 l 1.1088,4.70311 c 1.2577,5.3182 2.222,10.70473 3.2334,18.04687 0.5936,4.31144 0.7168,12.87078 0.8624,59.82813 l 0.168,54.79688 -2.3173,-0.0596 c -1.2745,-0.0328 -2.7608,-0.14448 -3.3017,-0.24864 z"
     id="path680" />
  <path
     style="fill:#d4aa00;stroke-width:0.4375"
     d="m 1088.7153,146.23438 c 3.1562,-32.71446 13.1709,-58.465186 32.2854,-83.015631 20.3121,-26.088629 47.8628,-45.894061 76.8744,-55.2627383 14.694,-4.7451701 26.6881,-6.7800174 44.6249,-7.57079118 16.6179,-0.73262896 78.9042,-0.252196 86.9726,0.67084418 25.4157,2.9076141 45.4429,9.7691923 66.2248,22.6895923 20.3188,12.632472 41.2559,33.912841 54.0511,54.937328 6.5486,10.760545 12.5381,24.463536 16.0507,36.722256 l 0.6608,2.31145 -4.6177,-0.12432 -4.6178,-0.12432 -1.5198,-5.03126 c -9.4551,-31.31236 -26.122,-55.436061 -51.6198,-74.717539 -24.9966,-18.90256 -58.4328,-30.3003744 -99.8974,-34.0532972 -11.0855,-1.0033296 -33.5878,-1.0007906 -44.625,0.00503 -39.8333,3.6300499 -71.0525,13.8378842 -96.25,31.4711022 -28.3898,19.867266 -43.9004,36.403212 -54.2411,57.826661 -6.4759,13.416703 -11.6145,31.720493 -14.2782,50.859383 l -0.7459,5.35942 h -2.8085 -2.8084 z"
     id="path682" />
  <path
     style="fill:#d4aa00;stroke-width:0.4375"
     d="m 1208.5099,277.48438 c 0.1344,-27.13048 0.448,-54.7422 0.6944,-61.35938 1.3194,-34.90393 2.7731,-54.89671 4.8541,-66.73761 1.4246,-8.10835 2.4472,-10.05189 7.14,-13.58033 12.068,-9.07167 41.5668,-15.26065 68.9835,-14.47314 20.8578,0.5992 34.3848,4.48885 42.7842,12.30288 2.3318,2.1691 5.3211,6.25161 5.3368,7.28851 0,0.14784 -1.7181,-1.44491 -3.8237,-3.53965 -4.2179,-4.19675 -7.7773,-6.43384 -13.1614,-8.27187 l -3.3544,-1.14509 -35.875,-0.13888 c -38.5732,-0.14896 -39.9296,-0.0877 -45.5244,2.0701 -8.7013,3.35597 -16.2634,11.34726 -19.3776,20.47847 l -1.1603,3.4029 -0.112,86.51562 -0.112,86.51563 h -3.7677 -3.7676 z"
     id="path684" />
  <path
     style="fill:#d4aa00;stroke-width:0.4375"
     d="M 1344.0648,341.14062 1344,250.25 h 1.1581 1.1592 l -0.2688,69.23438 c -0.2352,63.10788 -0.6384,90.25196 -1.5837,106.61879 -0.1904,3.26043 -0.3696,-34.9727 -0.4032,-84.96255 z"
     id="path686" />
  <path
     style="fill:#d4aa00;stroke-width:0.4375"
     d="m 1256.5,484.44085 c -12.1486,-0.74368 -22.831,-3.55791 -28.6179,-7.53951 -5.2069,-3.58221 -9.7451,-9.88859 -11.1944,-15.55591 -3.5616,-13.92639 -6.7469,-59.7499 -7.6485,-110.03295 -0.1344,-7.33902 -0.3472,-15.85391 -0.4816,-18.92188 l -0.2464,-5.57816 h 3.7475 3.7476 v 62.0865 c 0,69.86424 -0.168,65.98273 3.2412,72.88225 4.2448,8.57897 11.586,14.74743 20.6901,17.38606 l 3.4116,0.98896 h 36.75 c 34.4996,0 36.9376,-0.05 39.8125,-0.8176 7.6361,-2.03762 14.286,-6.79493 18.9885,-13.58341 2.0249,-2.92364 2.1145,-2.84648 0.9744,0.83776 -1.6274,5.24877 -4.0007,9.15421 -6.6125,10.8826 -4.5898,3.03777 -20.2399,5.57144 -42.1624,6.8264 -7.1311,0.40768 -28.5852,0.49392 -34.4046,0.13776 z"
     id="path688" />
  <path
     style="fill:#d4aa00;stroke-width:0.4375"
     d="m 1344.0673,211.42187 c 0.037,-21.35546 0.2128,-36.85938 0.392,-34.45312 0.448,5.99054 1.2208,35.77522 1.4661,56.32812 L 1346.127,250.25 H 1345.0643 1344 Z"
     id="path690" />
  <path
     style="fill:#d4aa00;stroke-width:0.4375"
     d="m 1088.114,191.36494 c -0.028,-18.0696 0.077,-34.95163 0.2341,-37.51564 l 0.2856,-4.66177 h 2.6842 2.6842 l -0.7493,6.4531 c -0.887,7.63459 -2.1807,24.37033 -3.864,49.98438 l -1.2219,18.59375 z"
     id="path692" />
  <path
     style="fill:#d4aa00;stroke-width:0.4375"
     d="M 702.27164,204.09375 C 699.9535,167.64998 698.97453,156.7378 696.6786,141.75 692.33404,113.38878 684.62491,92.370391 672.40466,75.56883 671.2196,73.9395 670.25,72.504491 670.25,72.379923 c 0,-0.124544 1.69422,-0.169568 3.76499,-0.100081 l 3.76499,0.126448 3.02792,4.812494 c 9.08119,14.433479 16.15139,32.146126 19.58808,49.073406 3.16534,15.59066 3.6186,24.42904 3.45206,67.30159 l -0.1288,33.25 z"
     id="path694" />
  <path
     style="fill:#d4aa00;stroke-width:0.4375"
     d="m 320.36661,162.85938 c 0.23408,-18.474 0.68656,-23.82475 2.98458,-35.31542 4.98616,-24.92766 15.32196,-46.67335 31.96273,-67.247128 5.16534,-6.386166 19.8261,-20.975014 25.80184,-25.675281 22.08735,-17.37299 44.51998,-27.6144961 70.03667,-31.974907 12.53963,-2.14282992 15.70193,-2.29424944 52.62882,-2.52000448 51.04592,-0.31207344 62.08616,0.36800736 80.5,4.95881228 30.92495,7.7099872 59.91747,26.2706622 82.31278,52.6956722 3.59856,4.246099 10.65601,13.561848 10.65601,14.065883 0,0.187264 -1.64528,0.34048 -3.65624,0.34048 h -3.65632 l -2.60714,-3.171862 C 658.66039,58.467662 644.72396,46.30637 628.25,34.913106 603.11134,17.527395 571.51756,7.2722619 532,3.6709882 520.96287,2.6651632 498.4604,2.6626242 487.375,3.6659538 450.99957,6.9582598 419.54341,16.582932 396.8368,31.368009 362.57917,53.674368 341.94104,84.070284 332.58384,126 c -3.2223,14.43923 -5.77133,36.1656 -5.77133,49.19136 v 4.62112 h -3.33021 -3.33021 z"
     id="path696" />
  <path
     style="fill:#d4aa00;stroke-width:0.4375"
     d="m 576.09496,174.23438 -0.14,-20.45313 -1.1536,-3.40289 c -3.13118,-9.23612 -10.81314,-17.28571 -19.671,-20.61225 -5.35588,-2.01138 -7.0624,-2.0843 -45.22411,-1.93236 l -35.875,0.14336 -3.06253,1.02368 c -5.75635,1.92405 -8.87432,3.877 -13.45312,8.42621 -2.34607,2.33095 -4.26563,4.09808 -4.26563,3.92695 0,-0.66192 3.18808,-5.58175 4.51259,-6.96461 3.48577,-3.63911 11.84769,-8.06703 18.72157,-9.91379 8.57259,-2.30306 15.22075,-3.00362 28.82829,-3.03767 13.2642,-0.0332 19.08478,0.39536 29.72102,2.18703 21.7478,3.66385 37.154,10.42563 40.63706,17.83554 1.13983,2.42491 2.04859,6.8684 3.13488,15.32881 0.79856,6.2235 2.39893,26.45475 2.72888,34.50804 l 0.13888,3.39058 h -2.71902 -2.71903 z"
     id="path698" />
  <path
     style="fill:#d4aa00;stroke-width:0.4375"
     d="m 576.18749,282.18751 v -87.50002 h 2.78152 2.78152 l 0.30016,7.98437 c 1.40527,37.43269 1.86872,86.50767 1.19314,126.32813 -0.27104,16.00156 -0.62048,31.70234 -0.77616,34.89062 l -0.28224,5.7969 h -2.99891 -2.99891 z"
     id="path700" />
  <path
     style="fill:#d4aa00;stroke-width:0.4375"
     d="m 446.01564,367.76716 c -0.15792,-1.05616 -0.19376,-39.00384 -0.079,-84.32812 0.19712,-77.93127 0.43344,-94.11873 1.59017,-109.31404 0.19264,-2.52661 0.37744,40.44141 0.41104,95.48438 0.0608,98.75334 0.0504,100.07813 -0.78624,100.07813 -0.6664,0 -0.90944,-0.41104 -1.13613,-1.92036 z"
     id="path702" />
  <path
     style="fill:#d4aa00;stroke-width:0.4375"
     d="m 513.40625,484.04716 c -28.42901,-0.928 -53.0453,-3.70703 -56.43171,-6.37078 -1.93969,-1.52575 -4.43374,-7.52278 -5.24587,-12.61389 l -0.3136,-1.96873 1.44032,2.18747 c 2.1075,3.20085 7.69317,8.58872 10.77854,10.39707 3.88293,2.27573 8.33807,3.75211 12.93518,4.28658 2.64846,0.308 15.77112,0.4144 38.36879,0.31136 34.0632,-0.15568 34.36994,-0.16464 37.55002,-1.13378 9.66034,-2.94269 17.57821,-10.04785 21.46007,-19.25748 2.20864,-5.24003 2.23989,-5.93186 2.23989,-49.54803 v -40.64944 h 3.06252 3.06253 l -0.001,1.42184 c -8.7e-4,0.78176 -0.19712,6.14689 -0.43568,11.92187 -1.69109,40.84697 -3.80195,65.67871 -6.60621,77.71412 -1.14531,4.91546 -4.05899,9.73639 -8.19985,13.56714 -5.40221,4.99778 -12.29116,7.56684 -23.77534,8.8666 -5.89142,0.6664 -21.85305,1.1303 -29.88732,0.868 z"
     id="path704" />
  <path
     style="fill:#d4aa00;stroke-width:0.4375"
     d="m 447.3887,419.67187 c -0.67984,-17.4958 -1.11776,-33.62143 -1.12784,-41.56249 -0.009,-6.97939 0.0953,-8.42184 0.60928,-8.42184 0.34048,0 0.71904,-0.2464 0.84,-0.54656 0.12096,-0.30128 0.23632,12.69297 0.25536,28.875 0.019,16.18204 -0.0351,29.42188 -0.11984,29.42188 -0.0851,0 -0.29008,-3.49451 -0.45696,-7.76563 z"
     id="path706" />
  <path
     style="fill:#d4aa00;stroke-width:0.4375"
     d="m 320.25,217.43749 v -37.625 h 3.06253 3.06253 v 37.35523 37.35523 l -0.98448,0.26432 c -0.54096,0.1456 -1.91957,0.26656 -3.06253,0.26992 l -2.07816,0.006 z"
     id="path708" />
  <path
     style="fill:#d4aa00;stroke-width:0.4375"
     d="m 64.423922,419.23438 c 0.144144,-47.43711 0.167328,-48.57698 1.107568,-54.35938 3.455599,-21.25296 10.68667,-38.32415 23.541395,-55.5768 5.508809,-7.3935 18.245995,-20.49018 25.457715,-26.17624 15.29693,-12.0608 32.92012,-20.46038 50.62565,-24.12924 11.86674,-2.45896 8.65859,-2.34496 68.6875,-2.441 l 55.5625,-0.0889 -28.875,1.45413 c -32.48751,1.63606 -45.47697,2.47315 -58.1875,3.74983 -49.20018,4.94176 -76.10285,15.03244 -95.83094,35.94431 -10.185414,10.79658 -21.850178,29.7064 -25.704783,41.67015 -5.168688,16.04235 -8.302504,52.31385 -9.279771,107.40626 -0.1344,7.57971 -0.354144,15.40546 -0.488096,17.39062 l -0.243712,3.60942 h -3.259884 -3.259872 z"
     id="path710" />
  <path
     style="fill:#d4aa00;stroke-width:0.4375"
     d="m 64.3125,590.18749 v -122.5 h 3.337667 3.337656 l -0.27216,14.98438 c -0.149744,8.24141 -0.39872,63.36641 -0.553504,122.5 L 69.880927,712.68749 H 67.09673 64.312534 Z"
     id="path712" />
  <path
     style="fill:#d4aa00;stroke-width:0.4375"
     d="m 188.125,725.81249 v -91.875 H 336.43751 484.75 v 91.875 91.875 H 482.56249 480.375 V 728.65625 639.625 H 336 191.625 v 89.03125 89.03124 h -1.75 -1.75 z"
     id="path714" />
  <path
     style="fill:#d4aa00;stroke-width:0.4375"
     d="m 64.3125,817.68749 v -105 H 67.156249 70 v 35.3649 c 0,19.45069 0.13104,66.70069 0.2912,105 l 0.2912,69.63512 h -3.134958 -3.134959 z"
     id="path716" />
  <path
     style="fill:#d4aa00;stroke-width:0.4375"
     d="m 188.125,874.125 v -56.43751 h 1.75 1.75 V 873.03125 928.375 H 336 480.375 v -55.34375 -55.34376 h 2.18747 2.18747 V 874.125 930.56251 H 336.43751 188.125 Z"
     id="path718" />
  <path
     style="fill:#d4aa00;stroke-width:0.4375"
     d="m 64.3125,975.18751 v -52.5 h 2.992069 2.992069 l 0.289184,12.53992 c 0.15904,6.89696 0.289184,30.52196 0.289184,52.5 v 39.96007 H 67.593753 64.3125 Z"
     id="path720" />
  <path
     style="fill:#d4aa00;stroke-width:0.4375"
     d="M 534.625,738.28125 V 633.93749 H 702.84375 871.06249 V 738.28125 842.625 h -3.5 -3.5 v -101.5 -101.5 h -160.125 -160.125 v 101.5 101.5 h -4.59379 -4.59379 z"
     id="path722" />
  <path
     style="fill:#d4aa00;stroke-width:0.4375"
     d="M 534.625,886.59375 V 842.625 h 4.59379 4.59379 v 42.875 42.875 h 160.12491 160.125 V 885.5 842.625 h 3.5 3.5 v 43.96875 43.96876 H 702.84375 534.625 Z"
     id="path724" />
  <path
     style="fill:#d4aa00;stroke-width:0.4375"
     d="m 920.93751,725.15625 v -91.21876 h 167.99999 168 v 91.21876 91.21875 h -4.3747 -4.3748 V 728 639.625 H 1088.0625 927.93751 V 728 816.375 h -3.5 -3.5 z"
     id="path726" />
  <path
     style="fill:#d4aa00;stroke-width:0.875"
     d="m 921.375,873.25 v -56.875 h 3.06253 3.06253 v 56 56 h 160.56254 160.5623 v -56 -56 h 3.938 3.9379 v 56.875 56.875 H 1088.9375 921.375 Z"
     id="path728" />
  <path
     style="fill:#d4aa00;stroke-width:0.875"
     d="M 1307.25,782.25 V 634.375 H 1455.1249 1603 V 782.25 930.125 H 1455.1249 1307.25 Z M 1600.3749,784 V 639.625 H 1456 1311.6249 V 784 928.375 H 1456 1600.3749 Z"
     id="path730" />
  <path
     style="fill:#d4aa00;stroke-width:0.875"
     d="m 1603.4284,1153.25 c 0,-89.7531 0.1025,-126.4703 0.224,-81.5937 0.1232,44.8765 0.1232,118.3109 0,163.1875 -0.1232,44.8765 -0.224,8.1592 -0.224,-81.5938 z"
     id="path732" />
  <path
     style="fill:#d4aa00;stroke-width:0.875"
     d="M 1307.25,1153.25 V 990.5 H 1455.1249 1603 V 1153.25 1316 H 1455.1249 1307.25 Z m 293.1249,-1.3126 V 991.375 H 1456 1311.6249 V 1151.9375 1312.5 H 1456 1600.3749 Z"
     id="path734" />
  <path
     style="fill:#d4aa00;stroke-width:0.875"
     d="M 921.375,1153.25 V 990.5 H 1088.9375 1256.5 V 1153.25 1316 H 1088.9375 921.375 Z m 327.2499,-1.3126 V 991.375 H 1088.0625 927.5 V 1151.9375 1312.5 h 160.5625 160.5624 z"
     id="path736" />
  <path
     style="fill:#d4aa00;stroke-width:2.47488"
     d="m 534.57273,1153.2911 c 0,-143.5426 0.45024,-163.3416 3.71235,-163.3416 3.262,0 3.71235,19.6615 3.71235,162.1042 v 162.1042 h 162.10423 162.10423 v -162.1042 c 0,-106.4195 0.85008,-162.1042 2.47487,-162.1042 1.62489,0 2.47486,56.0971 2.47486,163.3416 v 163.3417 H 702.86414 534.57273 Z"
     id="path738" />
  <path
     style="fill:#d4aa00;stroke-width:2.47488"
     d="m 188.69103,1152.6724 0.60032,-163.96035 0.65408,162.72295 0.65408,162.7229 h 144.76233 144.76231 v -162.1042 c 0,-106.4195 0.85008,-162.1042 2.47487,-162.1042 1.62489,0 2.47486,56.0971 2.47486,163.3416 v 163.3417 H 336.58283 188.0904 Z"
     id="path740" />
  <path
     style="fill:#d4aa00;stroke-width:2.47488"
     d="m 264.19277,1312.3032 c 39.81453,-0.3808 104.96558,-0.3808 144.78011,0 39.81454,0.3808 7.23901,0.6944 -72.39005,0.6944 -79.62907,0 -112.20459,-0.3136 -72.39006,-0.6944 z"
     id="path742" />
  <path
     style="fill:#d4aa00;stroke-width:0.4375"
     d="m 223.9249,1311.7344 c 17.64464,-0.063 46.3884,-0.063 63.875,10e-5 17.48662,0.063 3.0501,0.112 -32.08115,0.112 -35.13126,0 -49.43848,-0.052 -31.79385,-0.1121 z"
     id="path744" />
  <path
     style="fill:#d4aa00;stroke-width:0.4375"
     d="m 190.74947,1286.1406 c -2.8e-4,-15.2195 -0.13104,-36.6789 -0.29008,-47.6875 -0.26768,-18.4884 -0.23408,-20.0156 0.43792,-20.0156 0.67424,0 0.728,3.4529 0.728,46.8125 v 46.8125 l 29.64062,0.066 c 16.30235,0.036 28.75469,0.1904 27.67189,0.336 -1.08304,0.1456 18.18516,0.4368 42.81773,0.6272 43.86777,0.3472 136.50886,-0.091 132.61976,-0.6272 -1.08304,-0.1456 10.97578,-0.3024 26.79688,-0.336 28.49587,-0.065 28.76562,-0.058 28.76562,0.8064 0,0.8736 -0.2912,0.8736 -144.59375,0.8736 H 190.75 Z"
     id="path746" />
  <path
     style="fill:#d4aa00;stroke-width:0.4375"
     d="m 189.98533,1171.4062 c 0.005,-0.9632 0.0944,-1.3048 0.19936,-0.7616 0.10465,0.5488 0.10068,1.3317 -0.009,1.7506 -0.10951,0.4144 -0.19488,-0.027 -0.1904,-0.9856 z"
     id="path748" />
  <path
     style="fill:#d4aa00;stroke-width:0.4375"
     d="m 190.91931,1218.5402 c -0.3528,-0.2352 -0.57456,-20.6781 -0.80528,-73.9308 L 189.79547,1071 h 0.91504 0.91504 v 73.9375 c 0,40.6656 -0.0492,73.9345 -0.10938,73.9308 -0.0602,0 -0.32816,-0.1568 -0.59584,-0.3248 z"
     id="path750" />
  <path
     style="fill:#d4aa00;stroke-width:0.4375"
     d="m 189.875,1058.8222 c 0,-6.6979 -0.13104,-24.9088 -0.29008,-40.4688 l -0.29008,-28.29089 h 146.47024 146.47024 l -0.26992,1.35004 c -0.30631,1.52638 -1.12553,20.97455 -1.28948,30.58745 -0.0595,3.4891 -0.15156,-1.8758 -0.20456,-11.9219 L 480.375,991.81251 H 336 191.625 v 39.59379 c 0,39.302 -0.006,39.5937 -0.87472,39.5937 -0.85456,0 -0.87472,-0.2912 -0.87472,-12.1778 z"
     id="path752" />
  <path
     style="fill:#d4aa00;stroke-width:0.4375"
     d="m 188.125,1086.3854 c 0,-68.2538 0.13664,-96.32289 0.46928,-96.32289 0.33376,0 0.37968,27.82499 0.16128,96.14059 -0.16912,52.8773 -0.3808,96.2227 -0.46928,96.3229 -0.0886,0.1003 -0.16128,-43.163 -0.16128,-96.1406 z"
     id="path754" />
  <path
     style="fill:#d4aa00;stroke-width:0.4375"
     d="m 187.68749,1086.3125 c 0,-53.0177 0.10274,-96.2931 0.22848,-96.16754 0.30912,0.30912 0.32592,192.00934 0.0165,192.31854 -0.1344,0.1344 -0.24528,-43.1333 -0.24528,-96.151 z"
     id="path756" />
  <path
     style="fill:#d4aa00;stroke-width:0.4375"
     d="m 190.1499,1062.5781 c -0.14112,-4.3914 -0.33712,-22.5039 -0.43344,-40.25 l -0.17584,-32.26559 h 146.2515 c 140.89657,0 146.2439,0.029 146.04448,0.79184 -0.11424,0.43568 -0.36176,3.63462 -0.54992,7.10942 l -0.34272,6.31783 -0.0655,-4.86721 c -0.036,-2.67691 -0.18816,-5.4824 -0.33936,-6.23436 l -0.27328,-1.36719 H 335.94531 191.625 v 16.99056 c 0,25.1148 -0.53312,61.7594 -0.89936,61.7594 -0.17472,0 -0.43456,-3.5929 -0.57568,-7.9843 z"
     id="path760" />
  <path
     style="fill:#d4aa00;stroke-width:0.4375"
     d="m 188.67283,999.03125 c 0.005,-0.96208 0.0944,-1.3048 0.19936,-0.76048 0.10464,0.54432 0.10067,1.33168 -0.009,1.75003 -0.1095,0.4177 -0.19488,-0.027 -0.1904,-0.98899 z"
     id="path762" />
  <path
     style="fill:#d4aa00;stroke-width:0.4375"
     d="m 64.3125,1104.0313 v -76.3438 h 3.229542 3.229543 l 0.2604,19.7969 c 0.143248,10.8883 0.356832,45.2429 0.474768,76.3438 l 0.214256,56.5469 h -3.704288 -3.704288 z"
     id="path766" />
  <path
     style="fill:#d4aa00;stroke-width:0.4375"
     d="m 64.3125,1274.2187 v -93.8436 h 3.664987 3.664987 l 0.26712,64.6405 c 0.146944,35.5524 0.382032,77.782 0.52248,93.8438 l 0.25536,29.2031 h -4.187489 -4.18749 z"
     id="path768" />
  <path
     style="fill:#d4aa00;stroke-width:0.4375"
     d="m 64.3125,1490.5625 v -122.5 h 4.086947 4.086947 l 0.288512,62.2344 c 0.158704,34.2289 0.417872,89.3539 0.576016,122.5 l 0.287504,60.2656 h -4.662974 -4.662974 z"
     id="path770" />
  <path
     style="fill:#d4aa00;stroke-width:0.4375"
     d="m 188.125,1494.7187 v -118.3436 h 1.75 1.75 v 118.3436 118.3438 h -1.75 -1.75 z"
     id="path772" />
  <path
     style="fill:#d4aa00;stroke-width:0.4375"
     d="m 188.125,1643.0313 v -29.9688 h 1.75 1.75 v 25.5937 25.5938 H 336 480.375 v -73.0625 -73.0624 h 2.18747 2.18747 V 1595.5625 1673 H 336.43751 188.125 Z"
     id="path774" />
  <path
     style="fill:#d4aa00;stroke-width:1.75"
     d="M 70.195228,1700.5625 C 65.842362,1684.4529 64.75,1673.0831 64.75,1643.8862 V 1613.5 h 4.375 4.375 v 47.25 c 0,25.9875 -0.291424,47.25 -0.647584,47.25 -0.35616,0 -1.551906,-3.3466 -2.6572,-7.4379 z"
     id="path776" />
  <path
     style="fill:#d4aa00;stroke-width:0.875"
     d="m 736.31249,1672.0647 c -121.05581,-0.5824 -150.84016,-1.1671 -178.24264,-3.4989 -13.72389,-1.1682 -15.74034,-1.6856 -17.03165,-4.3725 -1.22584,-2.5502 -2.60131,-16.393 -3.81685,-38.4131 -0.67312,-12.1895 -2.40106,-87.777 -2.57634,-112.6865 -0.0199,-2.8325 -0.002,-2.8437 4.35501,-2.8437 h 4.37506 v 77 77 H 703.93749 864.5 v -77 -77 h 3.06253 3.06253 V 1591.6249 1673 l -2.8438,-0.1568 c -1.56408,-0.087 -60.725,-0.4368 -131.46875,-0.7728 z"
     id="path778" />
  <path
     style="fill:#d4aa00;stroke-width:0.875"
     d="m 864.5,1443.3125 v -66.9376 h 3.06253 3.06253 v 66.9376 66.9375 H 867.56249 864.5 Z"
     id="path780" />
  <path
     style="fill:#d4aa00;stroke-width:0.875"
     d="m 534.625,1443.3125 v -66.9376 h 4.375 4.375 v 66.9376 66.9375 H 539 534.625 Z"
     id="path782" />
  <path
     style="fill:#d4aa00;stroke-width:0.875"
     d="m 480.375,1447.25 v -70.8751 h 2.18747 2.18747 v 70.8751 70.8749 h -2.18747 -2.18747 z"
     id="path784" />
  <path
     style="fill:#d4aa00;stroke-width:0.875"
     d="m 921.375,1524.6875 v -148.3126 h 3.06253 3.06253 v 143.9376 143.9375 h 160.56254 160.5623 v -143.9375 -143.9376 h 4.4946 4.4946 l -0.56,19.0313 c -0.3024,10.4675 -1.5904,75.9282 -2.8527,145.4687 -1.2622,69.5407 -2.3531,126.5107 -2.4225,126.6 -0.1063,0.1344 -320.84828,5.544 -327.99961,5.5295 h -2.40621 z"
     id="path786" />
  <path
     style="fill:#d4aa00;stroke-width:0.875"
     d="m 1307.25,1524.6875 v -148.3126 h 2.1874 2.1873 V 1520.3125 1664.25 H 1456 1600.3749 v -143.9375 c 0,-127.3611 0.1568,-143.9376 1.3127,-143.9376 1.1614,0 1.3126,16.8273 1.3126,146.1947 v 146.1944 l -2.4057,-0.5152 c -6.9123,-1.4644 -56.3032,-2.2262 -144.5945,-2.2262 -88.2913,0 -137.6822,0.7616 -144.5938,2.2299 -1.3238,0.28 -2.4058,0.8512 -2.4058,1.2768 0,1.2724 4.8631,1.801 23.1875,2.5156 l 17.5,0.6832 -21.2187,0.1344 -21.2188,0.1344 z"
     id="path788" />
  <path
     style="fill:#d4aa00;stroke-width:0.875"
     d="m 1720.6648,1700.3438 c 3.7308,-9.4886 4.8093,-36.1544 4.8228,-119.2189 0.014,-87.4171 -1.1682,-225.1156 -1.7696,-206.0624 -0.2576,8.1816 -0.5488,-59.6422 -0.6608,-150.7187 l -0.1904,-165.5938 h 2.1963 2.1963 l -0.2464,312.1562 c -0.224,284.9625 -0.3696,312.6535 -1.671,317.8632 -2.7956,11.1966 -3.4295,13.1055 -4.3524,13.1055 -0.5376,0 -0.6832,-0.6496 -0.336,-1.531 z"
     id="path790" />
  <path
     style="fill:#d4aa00;stroke-width:0.4375"
     d="m 1721.8743,1468.9062 c 0.1456,-13.2344 0.392,-77.8093 0.5488,-143.5 0.2016,-82.4958 0.3248,-102.1169 0.392,-63.4375 0.059,30.8 0.2576,71.061 0.448,89.4688 0.2912,28.0622 0.1792,42.1969 -0.6496,87.5 -0.5488,29.7172 -0.8848,43.2031 -0.7392,29.9687 z"
     id="path792" />
  <path
     style="fill:#d4aa00;stroke-width:0.4375"
     d="m 1727.9039,1359.0938 c 0,-88.55 0.05,-124.7098 0.1117,-80.3551 0.061,44.3547 0.061,116.8047 0,161 -0.062,44.1953 -0.1117,7.905 -0.1117,-80.6449 z"
     id="path794" />
  <path
     style="fill:#d4aa00;stroke-width:0.4375"
     d="m 1602.8859,1449.1094 c -0.092,-38.9211 -0.3248,-71.2086 -0.5152,-71.75 -0.2688,-0.7616 -0.1904,-0.9856 0.3584,-0.9856 0.6496,0 0.7056,5.9629 0.7056,71.75 0,39.4624 -0.087,71.75 -0.1904,71.75 -0.1059,0 -0.2688,-31.8446 -0.3584,-70.7656 z"
     id="path796" />
  <path
     style="fill:#d4aa00;stroke-width:0.4375"
     d="m 1600.4345,1381.7344 c -0.033,-2.9479 0.095,-5.3592 0.28,-5.3592 0.1904,0 0.28,2.0182 0.2016,4.4844 -0.2128,6.6002 -0.4144,6.9664 -0.4816,0.8736 z"
     id="path798" />
  <path
     style="fill:#d4aa00;stroke-width:0.4375"
     d="m 1547.8751,1672.7016 c 23.6074,-0.392 48.3332,-1.447 53.1248,-2.2657 l 1.7819,-0.3024 0.224,-75.4567 0.224,-75.4566 0.1075,76.8907 0.1076,76.8906 -30.9531,-0.096 c -17.0243,-0.053 -28.0985,-0.1456 -24.6094,-0.2016 z"
     id="path802" />
  <path
     style="fill:#d4aa00;stroke-width:0.875"
     d="m 503.34375,1787.8626 c 1.80465,-0.1904 4.75776,-0.1904 6.56253,0 1.80465,0.1904 0.32816,0.3472 -3.28127,0.3472 -3.60942,0 -5.08592,-0.1568 -3.28126,-0.3472 z"
     id="path808" />
  <path
     style="fill:#d4aa00;stroke-width:0.4375"
     d="m 921.04606,1556.9531 0.10856,-116.4844 0.111,116.2406 0.111,116.2405 1.85853,0.168 1.85853,0.168 -2.07816,0.076 -2.07816,0.076 z"
     id="path810" />
  <path
     style="fill:#d4aa00;stroke-width:0.4375"
     d="m 921.375,1475.9062 v -99.5311 h 3.06253 3.06253 v 99.5311 99.5313 h -3.06253 -3.06253 z"
     id="path812" />
  <path
     style="fill:#d4aa00;stroke-width:0.4375"
     d="m 921.14574,1410.2813 c 3e-5,-18.7688 0.0539,-26.3831 0.11984,-16.9207 0.0658,9.4629 0.0658,24.8187 -7e-5,34.125 -0.0659,9.3061 -0.11984,1.5646 -0.11977,-17.2043 z"
     id="path814" />
  <path
     style="fill:#d4aa00;stroke-width:0.4375"
     d="m 921.07753,1421 c 0,-1.5646 0.0794,-2.2042 0.17696,-1.4224 0.097,0.784 0.097,2.0619 0,2.8437 -0.0971,0.784 -0.17696,0.1456 -0.17696,-1.4224 z"
     id="path816" />
  <path
     style="fill:#d4aa00;stroke-width:0.4375"
     d="m 921.375,1475.9062 v -99.5311 h 3.06253 3.06253 v 99.5311 99.5313 h -3.06253 -3.06253 z"
     id="path818" />
  <path
     style="fill:#d4aa00;stroke-width:0.4375"
     d="m 921.375,1475.9062 v -99.5311 h 3.06253 3.06253 v 99.5311 99.5313 h -3.06253 -3.06253 z"
     id="path820" />
  <path
     style="fill:#d4aa00;stroke-width:0.4375"
     d="m 921.375,1475.9062 v -99.5311 h 3.06253 3.06253 v 99.5311 99.5313 h -3.06253 -3.06253 z"
     id="path822" />
  <path
     style="fill:#d4aa00;stroke-width:0.4375"
     d="m 921.375,1475.9062 v -99.5311 h 3.06253 3.06253 v 99.5311 99.5313 h -3.06253 -3.06253 z"
     id="path824" />
  <path
     style="fill:#d4aa00;stroke-width:112"
     d="m 920.6929,1379.6543 c -0.76496,5.2741 0.87248,10.5605 0.4592,15.8191 -0.36512,4.6435 -1.53664,9.1885 -2.24403,13.7915 -0.21392,1.3955 0.45024,0.3472 -0.43792,2.1246 -0.2352,0.4704 -0.63952,0.84 -0.87472,1.3126 -0.61824,1.2376 -0.70672,2.6936 -1.31253,3.938 -13.71526,26.0298 -1.38802,1.279 -6.76503,14.3333 -0.68096,1.6531 -1.30827,3.3465 -2.22835,4.8809 -0.84784,1.4124 -1.26112,0.784 -1.72043,2.5357 -0.15232,0.5824 -0.22512,5.5205 0,6.0839 0.15344,0.3808 0.72128,0.4928 0.87472,0.8736 0.38304,0.952 0.30464,4.0622 0.43792,4.7958 0.28112,1.5456 1.19851,2.9042 1.75,4.3747 1.26448,3.3723 2.51317,6.5207 4.36968,9.6141 0.74256,1.2376 0.68208,5.2539 1.31253,6.9832 0.34048,0.9296 1.0192,1.7226 1.33179,2.6656 0.29232,0.8848 0.1344,1.8782 0.46368,2.7462 1.09872,2.8997 2.15421,3.5168 2.74859,5.8868 0.19712,0.784 0.8568,1.4089 1.11104,2.2657 0.19712,0.6608 0.14,2.8459 0.43792,3.5941 0.24192,0.6048 0.70224,-0.2688 0.70224,-0.6048"
     id="path889" />
  <path
     style="fill:#d4aa00;stroke-width:112"
     d="m 914.78089,1413.5501 5.60582,-34.0672"
     id="path891" />
  <path
     style="fill:#d4aa00;stroke-width:112"
     d="m 913.70844,1404.4129 c 0.36288,5.3256 -0.53088,9.9759 -1.32025,15.3317 -0.63056,4.2762 -1.36965,8.6419 -1.8648,12.9453 -0.0634,0.5488 0.17472,1.139 0,1.6654 -0.10143,0.3024 -0.37968,0.5488 -0.43232,0.8624 -0.41552,2.5167 0,5.3391 0,7.8747 0,1.4045 -0.47936,4.5876 0,6.1141 0.0566,0.1792 0.26768,0.2688 0.40096,0.4032 0,0.6496 -0.19264,1.3317 0,1.9533 0.12208,0.392 0.71232,0.4928 0.87472,0.8736 0.52976,1.2354 0.44912,2.6622 0.87472,3.9379 1.57662,4.7197 1.31969,1.9533 1.31969,5.7019 0,5.3357 0,10.6714 0,16.0071 0,3.0453 -0.4984,6.8779 0.87472,9.6253"
     id="path893" />
  <path
     style="fill:#d4aa00;stroke-width:112"
     d="m 913.77579,1364.6099 c 0.46032,11.7062 -0.6776,23.5051 0,35.1987 0.24192,4.1776 0.74368,8.3384 1.00464,12.5154 0.36064,5.7927 2.64555,11.0746 2.64555,16.5703 0,0.5824 0.14112,1.1839 0,1.7506 -0.35392,1.4157 -1.54795,2.436 -0.58016,2.4774 0.36736,0.016 6.41323,-6.7155 6.85888,-7.8299 0.1624,-0.4032 0,-0.8736 0,-1.3126 0.43568,-0.8736 0.9184,-1.7204 1.30704,-2.6141 0.78624,-1.8099 -0.67088,-7.4951 -1.2917,-9.3274 -0.4424,-1.3048 0,-3.8853 0,-5.1957 0,-5.5585 0,-11.1182 0,-16.6773 0,-1.0976 -0.40768,-6.8354 0,-7.6171 0.18256,-0.3472 0.64512,-0.4928 0.83552,-0.84 0.64176,-1.1604 -0.15232,-12.6855 -0.86912,-14.8629 -0.39872,-1.2107 -1.54011,-2.0608 -2.52212,-2.8728 -0.9184,-0.7616 -3.2881,-0.6944 -4.34818,-0.8736 -0.7168,-0.1232 -0.93632,-0.8512 -1.55198,-0.8512"
     id="path1004" />
  <path
     style="fill:#d4aa00;stroke-width:112"
     d="m 888.53916,1430.6151 -0.32032,-39.9661"
     id="path1006" />
  <path
     style="fill:#d4aa00;stroke-width:112"
     d="m 902.59823,1458.0197 -0.64736,212.1115"
     id="path1008" />
  <path
     style="fill:#d4aa00;stroke-width:112"
     d="m 928.60042,1676.3014 c -2.79664,-2.4561 -5.79488,-4.6995 -8.38981,-7.3685 -1.72603,-1.7752 -3.36268,-5.2987 -4.81958,-7.4468 -0.51408,-0.7616 -0.26544,-1.2802 -0.81312,-2.0463 -0.5432,-0.7616 -1.31029,-1.3641 -1.75,-2.1873 -0.88816,-1.6632 -1.5801,-3.4328 -2.17638,-5.2226 -0.60144,-1.8032 -0.0907,-3.659 -1.48972,-5.059 l 3.68461,-8.9708"
     id="path1010" />
  <path
     style="fill:#d4aa00;stroke-width:112"
     d="m 891.44978,1655.0308 24.07857,19.2469"
     id="path1012" />
  <path
     style="fill:#d4aa00;stroke-width:112"
     d="M 912.57554,1667.3579 907.9582,607.04663"
     id="path1014" />
  <path
     style="fill:#d4aa00;stroke-width:112"
     d="m 1692.7768,1750.8206 c -4.2896,0 -8.7001,-0.7392 -12.8051,0.8624 -2.7004,1.0528 -4.0578,5.3435 -6.6607,6.6607 -4.8921,2.4752 -0.3248,-1.0416 -5.0848,2.5424 -0.6496,0.4928 -0.9632,1.475 -1.7337,1.7337 -1.5546,0.5152 -5.8722,-0.1792 -7.2453,0.8736 -3.444,2.6522 -6.9698,2.5021 -11.2,3.3477 -2.4943,0.504 -3.7845,3.0565 -5.7815,4.247 -0.1568,0.097 -0.3808,0 -0.5712,0 -0.8288,0.2912 -1.7449,0.4144 -2.4942,0.8736 -0.7056,0.4368 -1.0304,1.3407 -1.7506,1.7506 -3.0632,1.7506 -7.9856,4.1205 -11.3749,5.2494 -2.4595,0.8176 -5.0848,1.1503 -7.5197,1.6565 -7.8713,1.6375 3.8685,-0.032 -6.1253,2.6253 -3.1852,0.8512 -6.5452,0.9184 -9.7283,1.7674 -1.2947,0.3472 -2.3094,1.4257 -3.5974,1.7987 -3.6815,1.064 -14.2675,-0.1344 -17.2879,0 -10.1696,0.4368 -16.4966,0.8736 -26.646,0.8736 -1.3698,0 -4.2471,0.2912 -5.4197,0 -0.8848,-0.224 -2.9165,-3.6512 -2.9523,-3.8103 -0.2016,-0.896 -0.9296,-19.3713 0,-22.4076 0.6608,-2.1493 1.1502,-4.5438 2.6857,-6.1857 5.2125,-5.572 15.8084,-11.792 23.2475,-14.282 1.6453,-0.5488 3.4709,0 5.2069,0 8.2219,0 16.4812,0.784 24.6649,0 3.3219,-0.3248 6.3851,-1.988 9.66,-2.6332 4.2392,-0.84 8.6408,-0.7616 12.8354,-1.7998 0.8288,-0.2016 1.0192,-1.493 1.8054,-1.8054 2.417,-0.952 5.0815,-1.1088 7.5612,-1.8906 4.5886,-1.4358 10.0284,-4.1619 14.9944,-5.2808 2.6858,-0.6048 13.888,-0.3696 16.5504,0 4.3433,0.6048 8.7505,0.896 13.0197,1.9074 7.6698,1.8121 14.9163,5.1564 22.5657,7.0526 0.8288,0.2016 2.1605,-0.5488 2.539,0.784 0.392,1.3642 -2.2254,-0.4816 -5.4678,0.4368 -1.008,0.2912 -1.6845,1.279 -2.6253,1.7506 -1.0752,0.5376 -2.9747,0.4368 -4.1541,0.8736 -0.8176,0.3024 -2.838,5.3446 -4.0476,6.5531"
     id="path1030" />
  <path
     style="fill:#d4aa00;stroke-width:112"
     d="m 1633.9473,1762.031 c 4.8933,2.753 9.5581,-1.1401 7.4189,5.0748"
     id="path1032" />
  <ellipse
     style="fill:#d4aa00;stroke-width:112"
     id="path1090"
     cx="1607.7488"
     cy="1756.556"
     rx="57.012253"
     ry="34.687912" />
  <path
     style="fill:#d4aa00;stroke-width:112"
     id="path1110"
     d="m 1550.1165,1712.6557 c -1.0416,7.7157 -5.3043,14.4353 -9.3206,20.9267 -3.0195,4.4609 -6.0794,8.8603 -8.3563,13.7511 -1.7372,4.6043 -2.482,9.5099 -3.0263,14.3789 -0.2912,5.9438 0.3696,11.8895 0.7504,17.8177 0.4032,2.3588 -0.2688,7.1087 1.4616,9.0351 0.2352,0.2576 0.5712,0.4144 0.8624,0.6272 3.733,1.1816 7.8579,0.5712 11.6427,-0.078 1.1716,-0.504 5.1856,-0.5712 6.1063,-1.5982 0.1065,-0.1232 -0.089,-0.3472 -0.2352,-0.4144 -0.56,-0.2912 -2.2423,-0.448 -2.7429,-0.5152 -5.0982,-0.4032 -10.1763,-0.9856 -15.2762,-1.4045 -2.464,-0.2016 -4.9325,-0.3248 -7.3976,-0.4928 -0.336,-0.024 -0.6832,0.015 -1.008,-0.08 -0.448,-0.1344 0.2352,-0.4144 0.4256,-0.5264 2.5916,-0.8176 5.3401,-0.9184 8.0337,-1.0752 0,0 -0.4032,-0.061 -0.4032,-0.061 v 0 c -2.6981,0.1568 -5.4577,0.2464 -8.0494,1.0976 -0.2128,0.1456 -0.896,0.4816 -0.4256,0.6384 0.3248,0.1072 0.6832,0.056 1.0192,0.08 2.4696,0.168 4.9437,0.2912 7.4121,0.4928 5.0938,0.4144 10.1674,1.008 15.2602,1.4045 0.4816,0.064 2.1638,0.224 2.7283,0.4816 0.1232,0.058 0.336,0.2464 0.2352,0.3472 -1.0192,1.064 -4.8373,1.0416 -6.0906,1.5904 -3.5336,0.6048 -7.3483,1.2129 -10.8371,0.094 -0.2912,-0.2016 -0.6272,-0.3472 -0.8624,-0.6048 -1.7416,-1.8984 -1.0752,-6.6774 -1.4795,-9.016 -0.392,-5.9248 -1.0304,-11.8691 -0.7504,-17.8107 0.5376,-4.8664 1.2913,-9.7675 3.0363,-14.3655 2.268,-4.8888 5.3155,-9.2893 8.3283,-13.7479 4.0197,-6.5028 8.2835,-13.228 9.3554,-20.9477 0,0 -0.4144,0 -0.4144,0 z" />
  <path
     style="fill:#d4aa00;stroke-width:112"
     id="path1120"
     d="m 1556.841,1759.2752 c 6.3493,0.3472 12.7094,0.4928 19.0665,0.6272 2.7832,0.083 5.5709,0.011 8.353,0.09 0.5488,0.016 1.1088,0.023 1.6565,0.092 0.1075,0.014 0.392,0.112 0.2912,0.1568 -0.448,0.168 -0.9408,0.1792 -1.4135,0.2688 -7.5476,2.8884 -15.5696,4.4363 -23.5177,5.796 -5.4544,0.7168 -10.7722,2.0473 -16.055,3.5448 -4.2762,1.0528 -8.4459,2.4595 -12.6353,3.8091 -3.3521,1.3317 -6.4053,3.4507 -9.2075,5.7086 -0.7728,0.616 -2.6029,2.6757 -1.5277,3.7968 0.2464,0.2576 0.5824,0.3808 0.8848,0.5712 4.2515,0.728 8.6139,0.4816 12.9141,0.5936 0.6272,-1.0304 1.6788,0.4816 2.4024,0.1344 0,-9e-4 -0.1792,-0.9632 -0.4256,-1.1211 -0.2464,-0.1456 -0.5712,0.01 -0.8512,0.013 -0.4704,0.01 -0.9296,0.016 -1.4012,0.024 -4.8092,2e-4 -9.539,1.0864 -14.2793,1.7987 -0.052,-0.029 -3.687,0.5152 -3.7273,0.7392 -0.2688,1.5344 1.0976,1.3059 2.0316,1.3664 5.5272,0.112 11.0578,0.053 16.5866,0.047 2.866,0 5.7321,-0.011 8.5993,-0.01 0.4032,-0.011 5.4477,0.019 5.4499,0.01 0.1232,-0.4256 -0.1568,-0.8736 -0.2352,-1.3115 -3.2323,0.01 -6.4657,0.012 -9.698,0.018 -0.9184,0.01 -3.6636,0.057 -2.7485,0.02 1.4504,-0.058 2.9411,0.2464 4.3545,-0.085 1.0976,-0.2576 -2.2635,-0.091 -3.3947,-0.1456 -4.0421,-0.1792 -2.5569,-0.1 -6.6461,-0.3696 -5.6772,-0.2912 -11.2742,-1.2074 -16.7502,-2.7026 -6.6327,-2.1101 -13.6171,-2.2758 -20.5094,-2.576 -7.9363,-0.3024 -15.8762,-0.2688 -23.8157,-0.2464 0,0 7.9643,1.2488 7.9643,1.2488 v 0 c -1.9152,-0.012 -3.8304,-0.019 -5.7456,-0.037 -0.9184,-0.01 1.8401,0 2.7608,0.01 3.7441,0.023 7.4883,0.074 11.231,0.1904 6.785,0.2688 13.6665,0.4032 20.2074,2.4371 5.5171,1.5792 11.1664,2.5559 16.9093,2.8426 7.0997,0.5264 14.1362,0.5936 21.2669,0.6608 0.9968,0.01 4.0029,0.01 3.0016,0.02 -2.2333,0.023 -4.4666,0.012 -6.6999,0.018 0.099,-0.4368 0.392,-0.8736 0.2912,-1.3116 -0.038,-0.1904 -0.3808,0 -0.5712,0 -1.5792,0.01 -3.1584,0.01 -4.7364,0.01 -2.8583,0 -5.7165,0 -8.5748,0.014 -3.4462,0.01 -2.8896,0.01 4.9224,0.01 0.5376,0 -1.064,-9e-4 -1.5982,0 -0.8512,0 -1.7573,0 -2.613,-0.014 -0.336,0 -0.6832,-0.011 -1.0192,-0.017 -0.8064,-0.022 -2.0025,-0.4256 -1.9073,0.9072 0.01,0.1232 0.2464,-0.076 0.3584,-0.1034 1.1233,-0.2464 1.7472,-0.3248 2.9814,-0.5264 4.7847,-0.7616 9.5738,-1.7674 14.4412,-1.6632 0.504,-0.01 1.008,-0.01 1.5053,-0.026 0.3136,-0.011 0.6832,0.112 0.952,-0.058 0.392,-0.2464 0.7616,-1.1088 0.3584,-1.3306 -0.784,-0.4256 -1.9869,0.5488 -2.6746,-0.1456 -4.2089,-0.1112 -8.4325,0.018 -12.6289,-0.3808 -0.2464,0.01 -0.504,0.059 -0.7504,0.017 -1.0752,-0.1904 1.008,-2.6902 1.3059,-2.6208 2.7541,-2.2366 5.7815,-4.2302 9.1437,-5.4185 4.1306,-1.3967 8.2779,-2.7317 12.5111,-3.789 5.2091,-1.4638 10.4574,-2.7317 15.8204,-3.4978 8.0663,-1.484 16.2091,-3.1136 23.8764,-6.0715 0.5488,-0.5712 1.3339,-0.9856 1.6554,-1.7113 0.392,-0.896 -1.1783,-0.8288 -2.3565,-0.8624 -2.8112,-0.081 -5.628,0.039 -8.4392,-0.067 -6.2115,-0.1024 -12.4246,-0.2352 -18.628,-0.5824 0,0 -8.2667,1.1805 -8.2667,1.1805 z" />
  <path
     style="fill:#d4aa00;stroke-width:112"
     id="path1122"
     d="m 1491.4884,1791.0594 c 3.1271,-0.9856 6.4042,-1.0752 9.6421,-1.3753 4.2347,-0.504 8.512,-0.5264 12.7485,-0.9744 3.5829,-0.4592 7.1389,-1.064 10.7375,-1.3944 3.1024,0.028 6.076,-0.8064 9.091,-1.4202 2.2176,-0.3696 4.471,-0.4368 6.7133,-0.5264 1.3944,-0.055 1.008,0.2912 1.4806,-0.2688 -0.5488,-0.3584 -1.0192,-0.9184 -1.6553,-1.0864 -0.9072,-0.2352 -1.8828,-0.05 -2.8236,-0.084 -1.0864,-0.04 -2.1694,-0.077 -3.2524,-0.1344 -3.2223,-0.1904 -6.4389,-0.504 -9.6556,-0.7616 -5.5966,-0.4368 -11.2085,-0.6272 -16.82,-0.7168 -8.6699,-0.067 -17.3413,-0.021 -26.0119,-0.041 -2.2702,-0.044 -6.5688,0.5936 -2.6813,3.1584 2.1997,1.1872 4.6402,1.6408 7.0975,1.8917 4.8664,0.3024 9.7596,0.1792 14.6282,0.1792 2.884,-0.015 5.7691,-0.031 8.6531,-0.041 5.5574,-0.02 11.1149,-2e-4 16.6731,-0.01 5.9461,0 0.6384,-10e-4 -2.8706,0.01 -0.728,0 1.4572,0 2.1852,0 2.1974,-10e-5 4.3937,0 6.5912,0 2.0328,0 4.0667,0.01 6.0995,0.01 0,0 8.1054,-1.2835 8.1054,-1.2835 v 0 c -2.0686,-5e-4 -4.1384,0.01 -6.207,0.01 -7.2509,0.015 -14.5014,0 -21.7522,0.012 -5.5765,-0.01 -11.153,0.014 -16.73,0 -2.9826,-0.01 -5.9651,-0.02 -8.9477,0 14.92,0.01 5.1486,0.076 1.7136,-0.097 -2.4069,-0.168 -4.8115,-0.504 -7.0213,-1.5333 -0.3024,-0.1456 -0.6048,-0.3024 -0.896,-0.448 -0.168,10e-5 -0.336,0.05 -0.4928,4e-4 -0.2464,-0.078 0.448,-0.28 0.7056,-0.336 1.0528,-0.2464 1.9074,-0.2128 3.0139,-0.2688 1.6823,-0.01 7.6933,-0.024 -1.7617,-0.013 -1.1536,0 2.3072,0 3.4608,0 1.5601,0 4.3825,0.014 5.9976,0.025 0.8512,0.01 1.699,0.014 2.5491,0.021 5.6504,0.075 11.3024,0.224 16.9389,0.6496 3.2222,0.2576 6.4445,0.5824 9.6701,0.7952 1.0528,0.069 2.1078,0.1017 3.1617,0.1568 0.8624,0.045 1.7562,0.336 2.6018,0.1456 0.5488,-0.1232 0.8848,-0.6944 1.3328,-1.0528 0.2688,-0.5264 0.1456,-0.168 -1.1301,-0.1003 -2.2714,0.1232 -4.5584,0.2016 -6.7962,0.6384 -2.9803,0.6384 -5.9483,1.2992 -9.0137,1.344 -3.5874,0.3808 -7.1378,1.008 -10.724,1.3933 -4.1922,0.3584 -8.4,0.5376 -12.5862,0.9968 -3.3824,0.2688 -6.7872,0.4368 -10.0352,1.5209 0,0 8.2801,1.0304 8.2801,1.0304 z" />
  <path
     style="fill:#d4aa00;stroke-width:112"
     id="path1127"
     d="m 1709.7751,1649.6156 c 0.392,4.2213 -0.952,8.2276 -2.2994,12.1657 -1.8547,5.1218 -3.8304,10.1942 -5.0579,15.5095 -0.728,3.4698 -1.7998,6.8276 -2.9691,10.1674 -0.6832,2.4562 -1.6139,4.8339 -2.4472,7.2408 -0.6608,1.9186 -1.1984,3.7744 -2.1874,5.5507 -1.9902,-2.651 -0.504,-0.4256 7.9744,-0.84 0,0 -8.2712,-0.01 -8.2712,-0.01 v 0 c 8.4583,1.7147 7.0381,4.2067 8.5199,1.2107 1.6587,-4.2336 2.8257,-8.6587 4.5494,-12.8738 1.2275,-3.3499 2.1806,-6.7592 2.8694,-10.2637 1.232,-5.2606 2.9602,-10.3846 4.8922,-15.4287 1.4347,-4.0241 2.9266,-8.0908 2.7418,-12.4301 0,0 -8.3138,0 -8.3138,0 z" />
  <path
     style="fill:#d4aa00;stroke-width:112"
     id="path1129"
     d="m 1712.2463,1660.5709 c -1.8503,2.893 -3.7408,5.7647 -5.6796,8.6005 -2.8134,3.6837 -4.5539,8.0326 -6.403,12.2467 -1.176,2.482 -2.1963,5.0311 -3.1998,7.5869 0,0 7.9699,0.3024 7.9699,0.3024 v 0 c 0.9856,-2.5435 1.9768,-5.0893 3.1505,-7.5555 1.8503,-4.2123 3.826,-8.3989 6.6047,-12.0927 1.9085,-2.8784 3.7688,-5.7927 5.8867,-8.5255 0,0 -8.3294,-0.56 -8.3294,-0.56 z" />
  <path
     style="fill:#d4aa00;stroke-width:112"
     id="path1131"
     d="m 1707.7825,1670.9445 c -0.7728,3.7464 -2.1302,7.346 -3.2166,11.0084 -0.9968,2.9871 -1.1245,6.1029 -1.2309,9.2176 -0.085,2.473 -0.1078,4.9482 -0.079,7.4223 0.014,2.5222 0.026,5.0456 0.032,7.5678 0.091,2.3251 -0.066,4.6032 -0.504,6.8858 -0.784,2.6589 -2.053,5.1419 -3.248,7.6328 -1.129,2.987 -2.4517,5.8867 -3.621,8.8614 -1.7013,4.4565 -5.413,7.6776 -8.8189,10.8595 -2.324,2.0026 -4.4251,4.2762 -6.9249,6.0637 -2.1034,1.4471 -4.041,3.1215 -5.9293,4.8351 -2.3083,2.2657 -4.8272,4.303 -7.3864,6.2776 -2.2355,1.8726 -4.7387,3.3454 -7.2341,4.8328 0,0 7.9576,0.8288 7.9576,0.8288 v 0 c 2.5379,-1.4952 5.0613,-3.005 7.3114,-4.9247 2.5984,-2.0126 5.2169,-4.0107 7.5588,-6.3246 1.8884,-1.6935 3.8338,-3.3208 5.9248,-4.7623 2.3957,-1.8905 4.508,-4.107 6.7492,-6.1745 3.407,-3.3175 7.1489,-6.6483 8.858,-11.2028 1.2096,-2.9669 2.6477,-5.8218 3.808,-8.8066 1.176,-2.5648 2.3599,-5.1408 3.2212,-7.8321 0.4928,-2.3319 0.616,-4.6693 0.4928,-7.0493 0,-2.5234 0.01,-5.0467 0,-7.5712 0.01,-2.464 -0.05,-4.9269 -0.01,-7.3909 0.1,-3.0408 0.3248,-6.0794 1.1827,-9.0171 1.0528,-3.7307 2.2769,-7.4055 3.4619,-11.0914 0,0 -8.3597,-0.1456 -8.3597,-0.1456 z" />
  <path
     style="fill:#d4aa00;stroke-width:112"
     id="path1135"
     sodipodi:type="arc"
     sodipodi:cx="1650.0336"
     sodipodi:cy="1738.5138"
     sodipodi:rx="41.634544"
     sodipodi:ry="29.95652"
     sodipodi:start="0"
     sodipodi:end="2.8457152"
     sodipodi:arc-type="slice"
     d="m 1691.6681,1738.5138 a 41.634544,29.95652 0 0 1 -35.4976,29.6293 41.634544,29.95652 0 0 1 -45.9623,-20.8946 l 39.8254,-8.7347 z" />
  <rect
     style="fill:#d4aa00;stroke-width:112"
     id="rect1189"
     width="1413.9843"
     height="30.735474"
     x="175.28107"
     y="1760.6073" />
  <path
     style="fill:#d4aa00;stroke-width:0.875"
     d="m 165.375,1788.8399 c -14.41125,-3.1278 -31.23494,-10.4096 -43.16042,-18.6811 -13.80669,-9.5765 -27.976143,-23.8844 -36.86121,-37.2213 -4.135311,-6.2073 -10.97837,-18.7737 -10.97837,-20.1603 0,-0.28 5.382182,5.1207 11.960405,12.0095 6.578219,6.8891 15.457235,15.9419 19.731145,20.1173 21.33543,20.8432 51.62123,38.346 66.35151,38.346 2.42895,0 2.58194,0.2128 2.58194,3.5 0,4.0578 -0.27776,4.1182 -9.625,2.0899 z"
     id="path1191" />
  <path
     style="fill:#d4aa00;stroke-width:0.875"
     d="m 1657.2769,1773.8438 c 4.3725,-4.7141 6.5363,-6.3011 10.724,-7.8646 8.68,-3.2391 14.2109,-7.028 18.8271,-12.8967 1.2286,-1.5624 2.4964,-2.2456 3.8136,-2.0552 3.6097,0.5264 -16.9286,17.4408 -30.521,25.143 -3.4743,1.9689 -6.7682,3.5795 -7.3192,3.5795 -0.5488,0 1.4627,-2.6578 4.4755,-5.9058 z"
     id="path1193" />
  <path
     style="fill:#d4aa00;stroke-width:0.4375"
     d="m 1691.0351,1749.1749 -1.4336,-1.2275 2.6757,-3.2391 c 1.4717,-1.7819 3.5941,-4.0689 4.7152,-5.0825 1.6991,-1.5355 2.3442,-1.8458 3.873,-1.8592 1.008,-0.01 1.9454,0.168 2.0821,0.3808 0.392,0.6384 -9.3722,12.3325 -10.2436,12.2667 -0.1344,-0.01 -0.8848,-0.5712 -1.6688,-1.2444 z"
     id="path1197" />
  <path
     style="fill:#d4aa00;stroke-width:0.4375"
     d="m 1703.2802,1736.564 c -0.9968,-0.1904 -0.9968,-0.1904 0.3136,-1.6867 3.1282,-3.5627 10.8942,-18.4904 14.481,-27.8328 1.5983,-4.163 2.1392,-5.1363 2.9423,-5.2931 0.5488,-0.1064 0.9856,0.025 0.9856,0.2912 0.01,1.3888 -4.0959,11.4056 -7.1949,17.5487 -2.8314,5.6135 -10.0229,17.4836 -10.4339,17.2217 -0.051,-0.033 -0.5488,-0.1456 -1.0976,-0.2464 z"
     id="path1199" />
  <path
     style="fill:#d4aa00;stroke-width:0.4375"
     d="m 1711.5345,1694.1318 c -0.049,-2.6208 1.1693,-11.366 1.9074,-13.6943 0.9072,-2.8706 0.8176,-1.3261 -0.4256,7.1232 -1.2332,8.372 -1.4303,9.2456 -1.4807,6.571 z"
     id="path1201" />
  <path
     style="fill:#d4aa00;stroke-width:0.4375"
     d="m 1716.4832,1645.4375 c 0.1232,-2.2859 0.5488,-9.4719 0.9296,-15.9688 0.392,-6.4971 0.9632,-17.3249 1.2723,-24.0625 0.3136,-6.7379 0.5936,-10.4776 0.6272,-8.3126 0.1232,8.5265 -2.0372,50.8882 -2.6387,51.8436 -0.2688,0.4256 -0.336,-0.8064 -0.1904,-3.5 z"
     id="path1205" />
  <path
     style="fill:#d4aa00;stroke-width:0.4375"
     d="m 1726.7214,1637.7813 c 0.1001,-24.3031 0.3248,-80.7079 0.504,-125.3438 0.3136,-77.7042 0.3248,-75.9177 0.2352,42 -0.054,76.2035 -0.2464,123.9902 -0.504,125.3438 -0.2688,1.428 -0.3584,-13.1579 -0.2352,-42 z"
     id="path1207" />
  <path
     style="fill:#d4aa00;stroke-width:0.4375"
     d="m 1720.8625,1533.6562 c 6e-4,-3.6098 0.068,-5.0277 0.1456,-3.1517 0.082,1.876 0.082,4.8295 0,6.5621 -0.083,1.7338 -0.1456,0.2016 -0.1456,-3.4104 z"
     id="path1209" />
  <path
     style="fill:#d4aa00;stroke-width:0.4375"
     d="m 1724.694,1441.1251 c 0,-0.6048 0.099,-0.8512 0.224,-0.5488 0.1232,0.3024 0.1232,0.7952 0,1.0976 -0.1232,0.3024 -0.224,0.055 -0.224,-0.5488 z"
     id="path1211" />
  <rect
     style="fill:#d4aa00;stroke-width:112"
     id="rect1213"
     width="31.238876"
     height="1287.2385"
     x="1696.8453"
     y="381.56406"
     ry="3.9971809" />
</svg>
