<?xml version="1.0" encoding="UTF-8" standalone="no"?>
<svg
   width="16"
   height="32"
   viewBox="0 0 1792 3584"
   version="1.1"
   id="svg2066"
   sodipodi:docname="icon-clock.svg"
   inkscape:export-filename="../24379da6/clock.svg"
   inkscape:export-xdpi="96"
   inkscape:export-ydpi="96"
   xmlns:inkscape="http://www.inkscape.org/namespaces/inkscape"
   xmlns:sodipodi="http://sodipodi.sourceforge.net/DTD/sodipodi-0.dtd"
   xmlns:xlink="http://www.w3.org/1999/xlink"
   xmlns="http://www.w3.org/2000/svg"
   xmlns:svg="http://www.w3.org/2000/svg">
  <sodipodi:namedview
     id="namedview2068"
     pagecolor="#ffffff"
     bordercolor="#000000"
     borderopacity="0.25"
     inkscape:showpageshadow="2"
     inkscape:pageopacity="0.0"
     inkscape:pagecheckerboard="0"
     inkscape:deskcolor="#d1d1d1"
     showgrid="false" />
  <defs
     id="defs2060">
    <g
       id="icon">
      <path
         d="m 1024,544 v 448 q 0,14 -9,23 -9,9 -23,9 H 672 q -14,0 -23,-9 -9,-9 -9,-23 v -64 q 0,-14 9,-23 9,-9 23,-9 H 896 V 544 q 0,-14 9,-23 9,-9 23,-9 h 64 q 14,0 23,9 9,9 9,23 z m 416,352 q 0,-148 -73,-273 -73,-125 -198,-198 -125,-73 -273,-73 -148,0 -273,73 -125,73 -198,198 -73,125 -73,273 0,148 73,273 73,125 198,198 125,73 273,73 148,0 273,-73 125,-73 198,-198 73,-125 73,-273 z m 224,0 q 0,209 -103,385.5 Q 1458,1458 1281.5,1561 1105,1664 896,1664 687,1664 510.5,1561 334,1458 231,1281.5 128,1105 128,896 128,687 231,510.5 334,334 510.5,231 687,128 896,128 1105,128 1281.5,231 1458,334 1561,510.5 1664,687 1664,896 Z"
         id="path2057" />
    </g>
  </defs>
  <use
     xlink:href="#icon"
     x="0"
     y="0"
     fill="#447e9b"
     id="use2062" />
  <use
     xlink:href="#icon"
     x="0"
     y="1792"
     fill="#003366"
     id="use2064" />
  <path
     style="fill:#806600;stroke-width:7.1537"
     d="M 817.07156,3447.8208 C 500.30987,3414.5649 231.18814,3181.1361 154.73828,2873.3311 47.392715,2441.1327 332.1458,2008.3749 772.30478,1934.7751 c 241.54972,-40.39 487.97462,39.1937 662.85052,214.0696 137.0142,137.0141 212.639,307.815 222.268,501.9992 20.2727,408.8312 -282.5093,758.4537 -690.33277,797.1274 -42.05069,3.9872 -81.28455,6.8163 -87.18634,6.2854 -5.90184,-0.5264 -34.17648,-3.4272 -62.83263,-6.4355 z m 192.92894,-224.7369 c 105.8781,-22.4396 192.3491,-69.4104 270.6127,-146.9961 62.3264,-61.7866 99.5705,-119.4214 128.6358,-199.0622 53.8198,-147.4696 42.8104,-307.3958 -30.8643,-448.3469 -41.8778,-80.119 -142.9444,-181.1856 -223.0634,-223.0635 -276.17476,-144.3556 -612.24107,-37.7172 -748.06364,237.3708 -44.90256,90.9433 -59.2004,160.5349 -55.0614,267.9988 2.7841,72.2853 7.2016,100.7893 22.7688,146.9154 61.31638,181.6824 219.29757,325.4758 401.0752,365.056 57.67525,12.5583 175.00626,12.6222 233.96024,0.1232 z"
     id="path2070" />
  <path
     style="fill:#806600;stroke-width:7.1537"
     d="m 652.41677,2802.8168 c -4.84983,-4.8496 -8.58447,-28.082 -8.58447,-53.401 0,-36.9874 2.4173,-46.1103 13.83709,-52.2219 7.8895,-4.2224 63.18617,-7.4055 128.64769,-7.4055 h 114.8106 l 1.90725,-187.7844 1.90725,-187.7844 49.90585,-2.1526 c 40.82013,-1.7607 51.56477,0.112 59.01797,10.3096 11.6721,15.9625 13.2441,453.6295 1.7068,475.1873 -7.0092,13.0967 -16.69349,13.837 -180.98846,13.837 -125.47077,0 -175.96239,-2.3789 -182.16746,-8.5848 z"
     id="path2072" />
  <path
     style="fill:#806600;stroke-width:0.894211"
     d="m 1023.1921,2482.3314 c -0.7773,-63.7134 -4.0533,-135.5849 -6.9457,-152.3691 -1.0158,-5.8957 -1.7039,-7.5678 -4.1726,-10.1382 -3.9092,-4.0712 -8.0963,-6.1365 -14.97035,-7.3831 -6.71541,-1.2174 -36.57889,-1.2286 -59.96978,-0.021 -9.09866,0.4704 -19.96327,0.8512 -24.14372,0.8512 h -7.60077 l 2.23552,-1.8883 c 1.22954,-1.0416 4.44876,-2.9366 7.15367,-4.2179 l 4.91814,-2.3285 h 40.23952 40.23947 l 5.0255,2.3565 c 9.9841,4.6816 15.9208,12.4218 17.7406,23.1307 0.6843,4.0286 0.9083,31.0393 0.7302,88.0777 -0.1411,45.2471 -0.3573,74.0184 -0.4805,63.9362 z"
     id="path2074" />
  <path
     style="fill:#806600;stroke-width:0.894211"
     d="m 902.53158,2593.4372 c 0.31024,-27.4189 1.05728,-101.398 1.65995,-164.3981 l 1.09536,-114.5458 30.9017,-1.0864 c 16.99593,-0.5936 31.90768,-1.232 33.13722,-1.4078 1.22953,-0.1792 -12.2507,-0.112 -29.95608,0.1344 -21.44409,0.3024 -31.89308,0.1568 -31.29742,-0.4368 0.49168,-0.4928 3.35832,-2.1359 6.37011,-3.6546 l 5.47591,-2.7619 h 39.96072 39.96072 l 4.67253,2.2109 c 7.1388,3.3768 11.7638,7.8478 15.0753,14.5733 l 2.9437,5.9786 0.065,51.8845 c 0.036,28.5364 -0.051,49.2689 -0.1938,46.0721 -0.1422,-3.1964 -0.6932,-16.6771 -1.225,-29.956 -1.1227,-28.0571 -3.2115,-58.4369 -4.5566,-66.2753 -1.1994,-6.9888 -3.3474,-10.463 -8.4837,-13.72 -5.0601,-3.2088 -10.97655,-4.546 -19.40702,-4.3848 l -6.43899,0.1232 8.04787,0.728 c 12.31534,1.1088 20.14954,4.6548 23.15644,10.4754 5.3059,10.2715 8.3424,85.7912 9.2026,228.8719 l 0.5499,91.4331 h -60.64107 -60.64069 z"
     id="path2076" />
  <path
     style="fill:#806600;stroke-width:0.894211"
     d="m 896.20195,2486.1318 0.24528,-157.1578 2.03537,-4.9179 c 1.11888,-2.7048 2.93026,-6.0065 4.02394,-7.3371 l 1.98856,-2.4192 -0.2184,20.3036 c -1.1555,107.374 -2.9185,286.6125 -2.91525,296.3913 l 0.004,12.2953 h -2.70424 -2.70424 z"
     id="path2078" />
  <path
     style="fill:#806600;stroke-width:0.894211"
     d="m 665.33393,2814.9025 c -9.96231,-1.9704 -17.83079,-8.2234 -22.27494,-17.7014 l -2.35637,-5.0254 v -39.3454 c 0,-28.7063 0.29904,-40.3267 1.10656,-42.9751 2.64947,-8.6934 10.51478,-16.7072 19.46058,-19.829 4.14803,-1.447 12.78804,-1.5792 119.6008,-1.8189 L 896,2687.9484 v -22.3295 -22.3295 h 2.68262 2.68263 v 7.0101 c 0,3.8561 -0.26432,14.3179 -0.588,23.2495 l -0.588,16.2391 -81.4557,0.01 c -44.80063,0 -90.30839,0.4032 -101.12835,0.8848 -34.49138,1.5355 -53.38003,3.425 -59.46507,5.9483 -7.43489,3.0834 -11.64114,10.0935 -13.42986,22.381 -1.52645,10.4865 -0.6944,54.3698 1.23838,65.3 1.82807,10.3387 4.59055,17.8147 7.21941,19.5373 5.17866,3.3936 24.49709,5.2864 68.46111,6.711 41.18025,1.3339 251.1302,0.6608 265.13374,-0.8512 22.81199,-2.4629 28.60939,-5.8945 30.73949,-18.1934 2.3588,-13.6197 4.3276,-51.414 5.4262,-104.1692 0.5746,-27.6131 0.6686,-21.9265 0.588,35.5331 -0.088,62.253 -0.2341,68.7499 -1.6224,72.2174 -3.5367,8.8335 -9.9602,15.2576 -18.8018,18.8048 -3.54197,1.4213 -15.42202,1.5378 -168.79223,1.661 -92.15405,0.074 -166.74044,-0.2128 -168.96547,-0.6608 z"
     id="path2080" />
  <path
     style="fill:#806600;stroke-width:0.4375"
     d="m 941.5,3230.4629 c 38.84291,-3.3107 71.6105,-9.2299 106.75,-19.2823 71.4435,-20.4395 142.7322,-58.9855 201.25,-108.8166 20.7005,-17.6275 43.2818,-40.2171 61.0628,-61.0852 9.4472,-11.088 22.1858,-27.54 30.6537,-39.5913 2.3945,-3.4082 2.7484,-3.7296 4.2291,-3.8539 0.8848,-0.075 1.6161,-0.021 1.6161,0.1232 0,0.8064 -14.2141,19.5724 -22.5939,29.8278 -21.0872,25.8068 -50.9394,56.2524 -77.1561,78.6897 -68.0134,58.2087 -143.269,95.5722 -232.0937,115.2318 -14.1876,3.1405 -27.7944,5.2304 -45.71878,7.0235 -10.6232,1.064 -26.88274,2.2288 -29.96875,2.1493 -1.41243,-0.036 -0.71456,-0.1792 1.96873,-0.4144 z"
     id="path2084" />
  <path
     style="fill:#806600;stroke-width:0.4375"
     d="m 1350.7304,2987.5782 c 26.6382,-40.4551 46.9615,-81.9413 61.7789,-126.1095 3.4339,-10.2356 4.2537,-12.2729 4.9873,-12.3897 0.4816,-0.077 0.8736,-0.033 0.8736,0.097 0,0.8512 -8.0528,24.2957 -11.5115,33.5115 -14.9943,39.9463 -32.0068,73.7721 -53.0848,105.5469 l -6.3123,9.5155 h -1.717 -1.7169 z"
     id="path2086" />
  <path
     style="fill:#806600;stroke-width:0.4375"
     d="m 1416.6251,2849.2332 c 0,-0.097 1.064,-3.8808 2.3755,-8.4079 10.5213,-36.4492 16.8452,-72.1604 19.705,-111.2628 0.7616,-10.4798 1.5378,-29.5736 1.5412,-38.1719 v -6.0155 h 1.3127 c 1.5635,0 1.4661,-1.9679 0.8624,17.5 -1.4011,45.2478 -7.6429,87.2433 -19.249,129.5 -4.1821,15.2261 -4.5394,16.2897 -5.6067,16.6844 -0.5152,0.1904 -0.9408,0.2688 -0.9408,0.1792 z"
     id="path2088" />
  <path
     style="fill:#806600;stroke-width:0.4375"
     d="m 1440.2473,2681.9668 c -0.01,-6.1589 -0.8848,-26.4308 -1.5355,-35.5293 -2.0888,-29.049 -6.5005,-58.1423 -13.0534,-86.0781 -1.4605,-6.2283 -1.4616,-6.2339 -0.5152,-6.2339 0.8624,0 1.1088,0.6608 2.7552,7.5466 8.8267,36.7995 13.731,75.529 14.6965,116.0469 l 0.1792,7.4379 -1.26,0.092 -1.26,0.092 v -3.3734 z"
     id="path2092" />
  <path
     style="fill:#806600;stroke-width:0.4375"
     d="m 1423.2228,2550.4521 c -3.9794,-15.6552 -12.0196,-40.9178 -17.7675,-55.8272 -6.8275,-17.7101 -12.3616,-30.2478 -21.0476,-47.6874 -10.5045,-21.09 -20.5054,-38.4975 -33.2573,-57.8847 -3.4518,-5.2472 -6.2753,-9.6275 -6.2753,-9.7339 0,-0.1064 0.448,-0.1904 0.9856,-0.1904 0.7616,0.01 1.8558,1.2421 4.7633,5.3592 14.3369,20.2998 23.6691,36.0466 34.5444,58.2886 15.8927,32.5039 28.587,65.9491 37.7864,99.555 3.0957,11.3088 3.1495,11.6107 2.1079,11.8832 -0.7168,0.1904 -0.9632,-0.3136 -1.8379,-3.7676 z"
     id="path2096" />
  <path
     style="fill:#806600;stroke-width:0.4375"
     d="m 1341.122,2374.2031 c -3.8628,-5.5194 -13.9599,-19.1031 -17.5829,-23.6552 -1.306,-1.6408 -2.277,-3.0811 -2.1583,-3.1998 0.4368,-0.4368 19.2567,23.0621 24.317,30.3549 l 0.9856,1.4224 h -1.064 c -0.8512,0 -1.7282,-0.952 -4.5035,-4.9224 z"
     id="path2098" />
  <path
     style="fill:#806600;stroke-width:0.4375"
     d="m 392.62963,2475.0469 c 20.59051,-47.2142 43.2988,-86.2243 71.66319,-123.1087 69.5257,-90.4097 167.02876,-156.67 277.67178,-188.698 7.27899,-2.1067 8.86121,-2.4236 11.97681,-2.3934 4.21097,0.041 4.56467,-0.1117 -7.56639,3.257 -30.42856,8.4515 -61.44739,20.5026 -91.875,35.695 -77.24134,38.5663 -142.77958,92.9626 -193.65454,160.7317 -26.66765,35.5232 -50.2276,76.3355 -67.11738,116.2656 -2.0104,4.7533 -2.50264,5.5776 -3.32684,5.5776 -0.90944,0 -0.77616,-0.4368 2.22846,-7.3281 z"
     id="path2110" />
  <path
     style="fill:#806600;stroke-width:0.4375"
     d="m 1235.2691,2261.9299 c -1.4797,-1.4062 -14.0069,-10.8385 -22.025,-16.5835 -15.9837,-11.4522 -37.143,-24.8337 -54.7441,-34.6211 -8.5829,-4.7726 -31.4079,-16.2457 -40.0313,-20.1218 -47.4696,-21.3371 -98.4891,-35.7122 -149.8437,-42.2195 -68.08787,-8.6274 -136.2409,-5.1397 -201.68751,10.3219 -7.2502,1.7125 -10.10587,2.2031 -12.45828,2.1392 -1.67866,-0.046 -3.10039,-0.1344 -3.15941,-0.1904 -0.19488,-0.1904 19.62713,-5.0445 27.86769,-6.8174 20.8956,-4.4957 44.30566,-8.0898 65.625,-10.0755 28.48477,-2.6522 64.02506,-2.8975 93.18751,-0.6384 72.2985,5.5921 143.4661,25.5439 209.1251,58.6294 20.4829,10.3208 36.067,19.8523 55.8986,34.1865 11.3329,8.1917 32.7237,25.0086 33.5872,26.4059 0.4368,0.7168 -0.448,0.448 -1.3417,-0.4144 z"
     id="path2114" />
  <path
     style="fill:#806600;stroke-width:0.618718"
     d="m 353.05388,2640.0715 c 0.90384,-32.0908 8.13915,-73.981 18.87626,-109.2871 5.94507,-19.5487 17.06382,-48.7506 18.27152,-47.9876 0.45696,0.2912 -0.3192,2.9669 -2.36466,8.1637 -4.31222,10.9547 -11.6713,32.713 -14.97972,44.2911 -10.40536,36.4142 -15.65566,65.9848 -19.81946,111.6259 -0.14,1.5311 -0.13216,-1.531 0.0161,-6.8062 z"
     id="path2116" />
  <path
     style="fill:#806600;stroke-width:0.618718"
     d="m 475.72641,3036.1705 c -46.24269,-56.2636 -79.14458,-114.9735 -101.05629,-180.3241 -11.05123,-32.9596 -16.09089,-57.3491 -19.20843,-92.9593 -0.99456,-11.3579 -1.12862,-17.7567 -0.21392,-10.2088 5.52227,45.5826 15.47892,86.9248 30.58732,127.0056 20.76216,55.0794 53.17495,110.774 90.72485,155.8916 3.32237,3.9917 6.04072,7.4032 6.04072,7.5791 0,1.064 -1.57528,-0.5376 -6.874,-6.9843 z"
     id="path2118" />
  <path
     style="fill:#806600;stroke-width:0.618718"
     d="m 839.60091,3230.524 c -35.18218,-2.6213 -51.47597,-4.9139 -74.24621,-10.4468 -77.63178,-18.8636 -151.24395,-56.4224 -215.62338,-110.0165 -18.96948,-15.7916 -39.35615,-35.2239 -55.25008,-52.6635 -4.96216,-5.4444 -9.85913,-10.8047 -10.88214,-11.9103 -1.02256,-1.1088 -1.58301,-2.0104 -1.24432,-2.0104 0.33824,0 4.96518,4.8025 10.28104,10.6724 30.58543,33.7742 65.34899,63.4356 104.42744,89.101 76.56313,50.2839 157.90193,78.6363 249.6529,87.0217 l 5.56841,0.504 -4.94972,-0.024 c -2.72239,-0.014 -6.20268,-0.1232 -7.73394,-0.2352 z"
     id="path2120" />
  <path
     style="fill:#806600;stroke-width:0.618718"
     d="m 1636.921,2871.0082 c 7.8691,-31.8884 14.2976,-69.3282 17.8202,-103.79 9.9814,-97.6525 0.56,-202.3226 -26.6465,-296.0165 -3.248,-11.1843 -11.5353,-37.098 -13.0358,-40.7597 -0.2464,-0.616 0.3248,-0.7616 2.361,-0.616 l 2.6936,0.1904 3.5862,10.5179 c 45.1832,132.5029 52.393,284.0513 20.1777,424.1315 -1.6822,7.3169 -3.4798,14.7642 -3.9939,16.5507 l -0.9296,3.248 h -2.6757 -2.6757 z"
     id="path2122" />
  <path
     style="fill:#806600;stroke-width:0.618718"
     d="m 1614.5552,2428.9339 c -0.1456,-0.4256 -2.3576,-6.3728 -4.9191,-13.2171 -29.8771,-79.8105 -76.78,-158.1208 -134.2938,-224.2206 -8.9891,-10.3309 -8.484,-9.2759 -4.4375,-9.2759 h 3.4564 l 4.7544,5.4141 c 2.6152,2.977 9.7944,11.7159 15.9546,19.4186 45.5708,56.98 83.6033,121.0143 111.1136,187.0786 4.7623,11.4378 13.6218,34.3642 13.6218,35.2523 0,0.7168 -5.0019,0.28 -5.2494,-0.448 z"
     id="path2126" />
  <path
     style="fill:#806600;stroke-width:0.618718"
     d="m 1462.2266,2176.7488 c -36.1689,-39.9376 -78.0509,-77.3654 -122.1493,-109.1585 -11.0969,-8.0001 -31.8754,-21.8924 -42.8539,-28.6511 l -7.9632,-4.9023 4.7208,-0.1792 4.7208,-0.1792 10.3578,6.5935 c 58.3074,37.1198 114.162,84.4434 158.9437,134.6672 l 6.4702,7.2565 -3.705,-0.052 -3.7049,-0.052 -4.8351,-5.339 z"
     id="path2128" />
  <path
     style="fill:#806600;stroke-width:0.875"
     d="m 129.78865,2737.2187 c -1.17869,-8.326 -0.86352,-89.0328 0.41104,-105.2187 8.22225,-104.4322 31.95978,-192.693 75.61083,-281.1361 46.85713,-94.9391 111.35037,-178.4801 189.52678,-245.5025 6.53968,-5.6067 7.64422,-6.2339 10.93747,-6.2104 l 3.66318,0.026 -2.69147,2.3811 c -1.4803,1.3093 -8.3599,7.3024 -15.28783,13.318 -15.5004,13.4593 -51.3126,48.9667 -64.86468,64.3126 -62.93516,71.2659 -111.00862,149.8694 -144.22156,235.8125 -36.88742,95.4513 -54.07576,196.7532 -50.7008,298.8125 0.47712,14.4375 1.04384,26.7422 1.25855,27.3437 0.224,0.6272 -0.31696,1.0976 -1.26907,1.0976 -1.35442,0 -1.79055,-0.9296 -2.37183,-5.031 z"
     id="path2136" />
  <path
     style="fill:#806600;stroke-width:0.4375"
     d="m 402.62463,2098.8518 c 1.13826,-1.0528 13.03931,-10.696 17.81288,-14.433 15.59719,-12.2095 30.44864,-22.9563 47.68749,-34.5076 72.51816,-48.5922 148.67737,-83.2181 230.54666,-104.8183 l 9.82789,-2.5928 11.17211,0.034 11.17211,0.034 -3.71874,0.8848 c -2.04534,0.4816 -8.79412,2.1437 -14.99748,3.6859 -82.05036,20.3905 -159.82104,54.1318 -230.65877,100.0727 -23.70062,15.3707 -43.29134,29.7043 -69.56249,50.8954 -1.16335,0.9408 -1.79548,1.064 -5.56282,1.1502 -3.16691,0.068 -4.11488,-0.034 -3.71874,-0.4032 z"
     id="path2138" />
  <path
     style="fill:#806600;stroke-width:0.4375"
     d="m 403.81251,2098.1675 c 4.10838,-3.4877 21.91052,-17.5383 28.53509,-22.5223 23.43344,-17.6304 50.86656,-35.923 76.46489,-50.9876 59.73387,-35.1532 121.69347,-61.074 189,-79.0683 l 11.15621,-2.9826 9.36365,0.224 9.36365,0.224 -15.26994,3.8192 c -86.33785,21.5951 -165.59583,56.5137 -238.61369,105.1258 -19.13338,12.7381 -33.98853,23.6124 -54.3528,39.7872 -4.50812,3.5807 -8.83804,6.6943 -9.62215,6.9194 -0.784,0.224 -2.70648,0.4032 -4.27224,0.392 l -2.84659,-0.015 z"
     id="path2140" />
  <path
     style="fill:#806600;stroke-width:0.618718"
     d="m 1282.3887,2029.9745 c -10.1248,-6.1735 -27.7368,-15.8292 -42.7864,-23.4577 -90.763,-46.0061 -187.3204,-72.8523 -289.25078,-80.4214 -27.73416,-2.0595 -73.20842,-2.3655 -98.37623,-0.6621 -39.87219,2.6992 -78.92149,7.9991 -113.17565,15.3604 -7.11793,1.5299 -8.60428,1.6464 -17.37395,1.363 -11.07422,-0.3584 -11.83131,0.029 8.66208,-4.4195 28.79849,-6.2507 58.97351,-10.9402 88.7861,-13.7978 42.46392,-4.0701 96.51391,-4.5551 139.52101,-1.2511 88.65662,6.8107 173.79472,28.4777 252.74642,64.3221 26.5585,12.0577 64.7959,32.3457 83.5271,44.3178 l 3.7128,2.3722 -4.9493,-0.01 -4.9493,-0.01 -6.0928,-3.715 z"
     id="path2146" />
  <path
     style="fill:#806600;stroke-width:0.4375"
     d="m 1547.0326,3087.1094 c 20.0688,-33.1243 38.0104,-68.2358 52.5918,-102.9219 8.3004,-19.7436 17.0919,-43.7396 23.5434,-64.257 3.2794,-10.4283 9.1068,-30.4584 9.7855,-33.6336 l 0.3024,-1.4224 h 2.8089 c 1.5445,0 2.809,0.168 2.809,0.3696 0,0.6048 -4.2302,15.8235 -6.8275,24.5659 -3.2928,11.0812 -11.1955,34.6466 -15.241,45.4476 -16.3408,43.6252 -35.5146,83.5354 -59.6652,124.1929 l -5.5227,9.2971 h -2.7899 -2.7899 z"
     id="path2152" />
  <path
     style="fill:#806600;stroke-width:0.4375"
     d="m 1442.6917,3221.2031 c 25.8995,-26.2705 52.2625,-57.8193 75.2193,-90.0156 6.0715,-8.5143 21.0967,-31.0549 25.1515,-37.7309 l 2.8437,-4.6816 2.7496,-0.012 c 3.2973,-0.015 3.6994,-1.1839 -3.537,10.2692 -27.18,43.0154 -57.5312,81.9299 -93.4108,119.7657 l -9.4382,9.9534 h -3.509 -3.5089 z"
     id="path2154" />
  <path
     style="fill:#806600;stroke-width:0.4375"
     d="m 1242.9375,3368.5682 c 0,-0.1 3.4104,-1.9465 7.579,-4.1037 62.7378,-32.4681 126.0487,-78.2471 176.6461,-127.7298 l 8.1648,-7.9845 3.4462,0.023 3.4463,0.023 -7.6564,7.4525 c -52.7941,51.392 -110.8292,94.0821 -175.2685,128.9259 l -6.6125,3.575 h -4.872 c -2.6802,0 -4.872,-0.082 -4.872,-0.1792 z"
     id="path2156" />
  <path
     style="fill:#806600;stroke-width:1.23743"
     d="m 901.47276,3454.0556 c 41.46217,-2.828 94.48105,-8.3283 117.55654,-12.1947 74.5045,-12.4838 150.7688,-36.5604 210.1713,-66.3508 8.4929,-4.2594 13.3525,-5.9942 16.0488,-5.7299 3.3521,0.3248 1.5646,1.512 -13.4189,8.8793 -44.4551,21.8604 -90.8285,39.1947 -139.1737,52.0228 -55.4679,14.7181 -129.291,24.5951 -179.42839,24.0061 -9.86854,-0.112 -15.15861,-0.4032 -11.75565,-0.6384 z"
     id="path2164" />
  <path
     style="fill:#806600;stroke-width:0.4375"
     d="m 441.64399,3307.6094 c -44.60946,-32.5265 -86.15586,-70.4798 -122.49482,-111.901 -52.72124,-60.0946 -97.56999,-130.8386 -129.3111,-203.974 l -0.80752,-1.8592 h 2.60949 c 1.43517,0 2.60949,0.1792 2.60949,0.392 0,0.8176 9.51955,21.3492 15.53802,33.516 33.09953,66.9135 75.41565,127.9139 127.31597,183.5312 9.7934,10.4944 33.25716,33.709 43.30226,42.8417 22.36936,20.3376 51.43938,43.8711 72.86394,58.9864 l 3.25562,2.2971 h -4.81578 -4.81577 z"
     id="path2166" />
  <path
     style="fill:#806600;stroke-width:0.4375"
     d="m 697.375,3430.5984 c -84.60744,-22.3108 -166.32218,-60.4867 -241.38843,-112.7728 l -8.85718,-6.1689 4.65125,-0.1232 4.65136,-0.1232 3.11214,2.1896 c 6.39285,4.4968 24.81179,16.6997 32.20588,21.3367 68.03776,42.6685 141.05752,74.105 217.875,93.7997 l 9.84379,2.5234 -9.84379,-0.012 c -7.17069,-0.01 -10.4972,-0.1792 -12.25,-0.6496 z"
     id="path2168" />
  <path
     style="fill:#806600;stroke-width:0.4375"
     d="m 869.19501,3455.3439 c -51.59912,-1.7106 -102.35889,-8.2755 -150.16376,-19.4212 -5.775,-1.3464 -12.27187,-2.9167 -14.4375,-3.4895 l -3.93747,-1.0416 9.66896,-0.039 9.66896,-0.04 7.6123,1.773 c 16.41657,3.8237 37.94387,7.9117 56.17481,10.6657 16.71434,2.5256 27.06981,3.7016 83.34375,9.4652 13.50204,1.3832 19.11841,1.4907 31.71874,0.6048 1.88149,-0.1344 2.73224,-0.071 2.20618,0.1568 -1.28341,0.56 4.85128,0.9408 16.82506,1.0304 l 10.28127,0.082 -8.53127,0.3024 c -11.16908,0.392 -37.85673,0.3696 -50.42999,-0.053 z"
     id="path2170" />
  <path
     style="fill:#806600;stroke-width:0.4375"
     d="m 187.34753,2985.8282 c -0.97776,-2.2255 -3.36078,-8.008 -5.29592,-12.8492 -16.88002,-42.2295 -29.37355,-83.9803 -38.34329,-128.1352 l -2.31078,-11.3751 1.97321,-0.1344 c 1.08528,-0.074 2.03885,-0.07 2.11893,0.01 0.0801,0.08 1.22718,5.2595 2.5489,11.5103 10.39371,49.1504 23.88798,92.5823 42.66767,137.3279 1.70845,4.0701 3.10621,7.467 3.10621,7.5466 0,0.08 -1.05504,0.1456 -2.34371,0.1456 h -2.34383 z"
     id="path2172" />
  <path
     style="fill:#aa8800;stroke-width:0.4375"
     d="m 141.31249,2833.0348 c 0,-0.1232 -0.68768,-4.1048 -1.52768,-8.8592 -3.93142,-22.2455 -7.22108,-48.5971 -9.18187,-73.5496 -0.36624,-4.6569 -0.65296,-8.8905 -0.63728,-9.4057 0.0266,-0.896 0.0447,-0.896 0.44128,0.093 0.34048,0.8512 0.6664,0.9968 1.8573,0.8624 l 1.44401,-0.168 0.76832,9.6365 c 1.86357,23.3811 6.17546,55.46 10.33312,76.8743 0.4816,2.4819 0.87696,4.5618 0.87696,4.6222 7.3e-4,0.06 -0.98336,0.1095 -2.18612,0.1095 -1.20311,0 -2.18748,-0.097 -2.18748,-0.2128 z"
     id="path2174" />
  <path
     style="fill:#d4aa00;stroke-width:4.94975"
     d="M 819.18321,1657.8544 C 579.24439,1634.1511 360.22302,1493.262 235.68592,1282.51 164.94465,1162.7956 132.48127,1042.3944 132.11405,898.37916 131.75676,758.2579 162.64027,637.17242 228.0759,522.14007 394.67708,229.26416 725.58526,78.7888 1053.908,146.60574 c 177.6349,36.69149 343.3753,143.32644 456.1889,293.50518 44.0211,58.60148 95.5558,157.43004 115.1242,220.77501 70.6721,228.77233 36.9489,465.46897 -94.4528,662.94807 -44.8919,67.4662 -139.8799,162.391 -206.7109,206.573 -154.6138,102.2152 -324.97276,145.2196 -504.87419,127.4474 z M 1000.0936,1432.611 c 216.6985,-41.107 391.4104,-215.8189 432.5174,-432.5174 10.1047,-53.26754 10.1047,-155.11108 0,-208.37863 -39.7954,-209.78413 -201.589,-377.42799 -414.0885,-429.06129 -50.96759,-12.38415 -194.26883,-12.38415 -245.23642,0 -205.89582,50.02873 -360.60367,204.73658 -410.6324,410.6324 -12.38415,50.96759 -12.38415,194.26883 0,245.23642 50.81342,209.1253 212.35459,367.875 419.40642,412.159 54.79351,11.7191 161.45106,12.6631 218.0335,1.9298 z"
     id="path2176" />
  <path
     style="fill:#d4aa00;stroke-width:4.94975"
     d="m 651.24535,1011.8698 c -5.88412,-5.8841 -7.77818,-18.30948 -7.77818,-51.0263 0,-66.32243 -8.7976,-62.1723 135.7121,-64.02046 l 121.67477,-1.55611 V 712.7985 c 0,-159.28071 0.98896,-183.45685 7.77817,-190.24658 12.06933,-12.06934 91.64079,-11.08375 102.82399,1.27366 7.3829,8.15797 8.1918,32.49786 8.1918,246.49742 0,178.08027 -1.485,238.9306 -5.9397,243.3853 -4.395,4.395 -51.28881,5.9397 -180.31222,5.9397 -151.92082,0 -175.37404,-1.0013 -182.15073,-7.7782 z"
     id="path2178" />
  <path
     style="fill:#d4aa00;stroke-width:0.4375"
     d="m 882.98438,1663.9484 c 0.42112,-0.11 1.10992,-0.11 1.53126,0 0.42112,0.1101 0.0766,0.2016 -0.76608,0.2016 -0.84224,0 -1.18675,-0.09 -0.76608,-0.2016 z"
     id="path2182" />
  <path
     style="fill:#d4aa00;stroke-width:0.4375"
     d="m 1187.1562,1604.0768 c 0.7168,-0.336 5.2494,-2.3196 10.0621,-4.3994 43.9661,-19.0065 92.1865,-45.4405 131.0313,-71.83 61.4203,-41.7263 146.2749,-125.2647 193.1601,-190.1639 8.8457,-12.2451 23.2541,-34.5016 31.9502,-49.3549 l 3.0095,-5.1408 h 1.6945 1.6946 l -0.8624,1.4224 c -20.4491,33.8537 -34.8325,55.1312 -54.9343,81.2656 -61.8114,80.3604 -138.9727,147.2355 -229.3076,198.7391 -23.5765,13.4418 -45.6562,24.5726 -71.0292,35.8069 l -9.7776,4.3288 -4.004,-0.028 c -3.7845,-0.027 -3.9323,-0.062 -2.6913,-0.6496 z"
     id="path2188" />
  <path
     style="fill:#d4aa00;stroke-width:0.4375"
     d="m 1189.8245,1604.3532 -2.1437,-0.2576 8.9253,-3.8965 c 53.1914,-23.222 109.9684,-55.3501 148.0304,-83.765 29.2032,-21.8016 57.5781,-46.8475 91.4837,-80.7509 53.8776,-53.8741 86.4659,-94.7147 117.404,-147.1343 2.9008,-4.9145 3.2693,-5.3592 4.4442,-5.3592 0.7056,0 1.2813,0.086 1.2813,0.1904 0,0.3136 -10.1976,16.8977 -16.2947,26.4957 -48.4719,76.2985 -111.7001,144.6773 -184.0263,199.0169 -36.7898,27.6406 -72.8953,50.2496 -115.554,72.3588 -14.6884,7.6126 -49.2499,23.5782 -50.7215,23.4305 -0.3808,-0.038 -1.6498,-0.1904 -2.8292,-0.3248 z"
     id="path2190" />
  <path
     style="fill:#d4aa00;stroke-width:0.4375"
     d="m 1190.3282,1604.4603 c 0.3024,-0.1232 0.7952,-0.1232 1.0976,0 0.3024,0.1232 0.055,0.224 -0.5488,0.224 -0.6048,0 -0.8512,-0.099 -0.5488,-0.224 z"
     id="path2192" />
  <path
     style="fill:#d4aa00;stroke-width:0.4375"
     d="m 1556.6251,1283.0182 c 0,-0.1232 1.942,-3.6288 4.3164,-7.7918 9.3072,-16.323 22.6926,-42.3484 30.219,-58.7574 7.5745,-16.5132 16.9893,-39.1468 22.7943,-54.7969 l 2.3128,-6.234 h 1.6789 c 0.9184,0 1.6789,0.073 1.6789,0.168 0,0.4032 -7.2206,19.2707 -10.444,27.2979 -12.1858,30.3455 -29.0647,64.9234 -46.286,94.821 -2.9411,5.1061 -3.0688,5.2539 -4.6469,5.3861 -0.896,0.075 -1.6229,0.036 -1.6229,-0.086 z"
     id="path2194" />
  <path
     style="fill:#d4aa00;stroke-width:0.4375"
     d="m 1616.6125,1154.2595 c 1.447,-3.6647 7.7997,-22.5122 10.2805,-30.4991 10.603,-34.1392 19.497,-71.6753 24.7841,-104.6041 0.5488,-3.4423 0.5824,-3.5022 1.9006,-3.6318 1.5949,-0.1568 1.6733,-1.4891 -0.7728,13.038 -6.7054,39.8951 -16.6785,79.0768 -30.011,117.9062 l -3.005,8.7506 -1.8334,0.1344 -1.8335,0.1344 z"
     id="path2196" />
  <path
     style="fill:#d4aa00;stroke-width:0.4375"
     d="m 1652.4376,1014.8906 c 0,-0.3013 0.4816,-3.7953 1.0752,-7.7656 5.3334,-35.79988 7.7997,-69.95015 7.8579,-108.82797 l 0.035,-22.8592 0.9184,-1.7e-4 c 0.8064,-1.5e-4 0.952,0.33488 1.2029,2.68901 0.7056,6.74822 0.094,44.26448 -1.0416,64.02957 -1.2869,22.36247 -3.9906,49.52885 -6.776,68.07166 -0.3584,2.3808 -0.6496,4.527 -0.6496,4.7692 0,0.2419 -0.5936,0.4402 -1.3126,0.4402 -0.7616,0 -1.3127,-0.2307 -1.3127,-0.5466 z"
     id="path2198" />
  <path
     style="fill:#d4aa00;stroke-width:0.4375"
     d="m 1661.0144,867.45313 c -1.1088,-29.51581 -4.667,-65.673 -9.1806,-93.40626 l -0.5824,-3.60942 h 1.3944 1.3944 l 1.3877,9.51563 c 4.1955,28.76277 6.907,58.7616 7.7873,86.1875 l 0.3024,9.29689 h -1.0976 -1.0976 z"
     id="path2200" />
  <path
     style="fill:#d4aa00;stroke-width:0.4375"
     d="m 1648.8073,756.54687 c -4.583,-25.36491 -11.0521,-53.15344 -18.2249,-78.28717 -1.9354,-6.78373 -3.5202,-12.44388 -3.5202,-12.57812 0,-0.1344 0.4928,-0.24416 1.1088,-0.24416 1.353,0 1.2275,-0.31248 4.8563,12.03125 7.8557,26.72019 14.6736,56.14294 19.5413,84.32813 l 1.4919,8.64057 h -1.3698 -1.3698 z"
     id="path2202" />
  <path
     style="fill:#d4aa00;stroke-width:0.4375"
     d="m 1626.3903,664.0525 c -0.4368,-1.99035 -6.2619,-19.22402 -8.848,-26.1775 -7.1299,-19.1753 -16.9142,-41.63254 -28.3824,-65.14703 -3.2166,-6.59489 -5.8475,-12.0582 -5.8475,-12.14062 0,-0.0824 0.9632,-0.15008 2.1314,-0.15008 h 2.1313 l 4.0578,8.64058 c 10.3936,22.13181 18.8168,42.17779 26.2414,62.45312 2.8369,7.74827 11.3751,32.93002 11.3751,33.55032 0,0.196 -0.5712,0.35616 -1.2779,0.35616 -1.0752,0 -1.3249,-0.21504 -1.5814,-1.38499 z"
     id="path2204" />
  <path
     style="fill:#d4aa00;stroke-width:0.4375"
     d="m 1580.1425,554.63557 c -15.4049,-30.23249 -34.9945,-63.87414 -52.0311,-89.35432 l -6.4355,-9.62494 1.7898,-0.13776 c 1.0752,-0.0828 2.007,0.0917 2.3352,0.43792 0.9296,0.9744 12.935,18.94723 18.2186,27.26273 10.9502,17.23412 21.0975,34.53302 30.4537,51.9174 4.5494,8.45421 12.7761,24.60116 12.7761,25.07799 0,0.1232 -0.9408,0.22064 -2.0776,0.2184 l -2.0776,-0.005 -2.9512,-5.79186 z"
     id="path2206" />
  <path
     style="fill:#d4aa00;stroke-width:0.4375"
     d="m 1519.685,452.91669 c -3.8901,-5.67363 -17.1934,-23.26061 -24.0829,-31.8377 -17.8931,-22.27604 -33.966,-40.33249 -54.2153,-60.90611 l -9.5816,-9.73537 h 2.865 2.8649 l 9.3711,9.73436 c 29.096,30.22482 51.9603,57.72568 75.294,90.56251 l 3.3421,4.7031 -2.0676,-0.005 c -2.0227,-0.005 -2.1044,-0.0593 -3.7889,-2.51564 z"
     id="path2208" />
  <path
     style="fill:#d4aa00;stroke-width:0.4375"
     d="m 1424.7083,343.7554 c -22.5068,-21.38735 -44.3495,-40.00811 -67.5233,-57.56336 l -7.5959,-5.75456 h 3.1954 3.1954 l 5.8688,4.44103 c 23.0277,17.42409 46.918,37.95402 69.8704,60.04269 l 5.6873,5.47344 -2.8436,0.0112 -2.8437,0.0112 -7.0101,-6.66165 z"
     id="path2210" />
  <path
     style="fill:#d4aa00;stroke-width:0.4375"
     d="m 221.59238,527.62764 c 3.83911,-7.42401 19.3114,-33.4166 27.34623,-45.94015 38.5447,-60.07793 83.03068,-112.30788 135.84264,-159.4897 25.01059,-22.34427 55.08225,-45.51781 84.76821,-65.32324 24.88599,-16.60307 56.37056,-35.05161 80.27138,-47.03539 4.79528,-2.40431 5.00236,-2.46389 8.53126,-2.45448 l 3.6167,0.01 -12.25,6.25453 C 423.76609,277.95688 319.30764,374.12005 243.80075,495.2736 c -5.04448,8.09413 -11.84588,19.61245 -18.78014,31.80482 -0.92624,1.62926 -1.24611,1.85942 -2.58149,1.85942 h -1.52398 z"
     id="path2218" />
  <path
     style="fill:#d4aa00;stroke-width:0.4375"
     d="m 221.54811,528.24243 c 0.85443,-2.22661 18.70775,-32.35378 26.03281,-43.92994 44.8237,-70.83701 101.7009,-134.48591 166.73159,-186.58234 39.8682,-31.93864 82.81768,-60.01653 128.30922,-83.88118 9.47852,-4.97239 11.20995,-5.73451 13.78126,-6.0661 3.72003,-0.47974 3.59701,-0.47896 3.59701,-0.0229 0,0.21168 -5.16802,3.04192 -11.48438,6.28936 -79.57259,40.90968 -150.19234,93.97825 -210.31387,158.0444 -13.46961,14.35336 -29.22675,32.34084 -28.99862,33.10322 0.0602,0.20048 -0.0777,0.36512 -0.30688,0.36512 -0.4648,0 -3.89357,4.04522 -11.68061,13.78125 -24.97578,31.22687 -47.87489,64.93118 -68.55669,100.90592 -4.49086,7.81156 -5.16924,8.65268 -7.00313,8.6818 -0.20608,0.004 -0.25536,-0.30688 -0.10822,-0.6888 z"
     id="path2220" />
  <path
     style="fill:#d4aa00;stroke-width:0.4375"
     d="m 1391.9166,670.35938 c -3.8025,-8.38131 -14.045,-28.53407 -19.2249,-37.82582 -20.6138,-36.97798 -44.4288,-70.3295 -73.0365,-102.28356 -7.2585,-8.10752 -29.6574,-30.50095 -37.9052,-37.89592 -38.3945,-34.42446 -78.8829,-61.94822 -124.6875,-84.76182 -43.7587,-21.79461 -86.8979,-36.47758 -134.3125,-45.71497 -7.32075,-1.42625 -24.09102,-4.22953 -29.96875,-5.00952 -1.03152,-0.13664 -0.91952,-0.18816 0.52192,-0.23968 4.36946,-0.15568 29.35983,2.96072 38.41543,4.79125 6.2532,1.26403 18.2181,4.30741 28.875,7.34462 70.5148,20.09642 136.8926,53.97437 193.8125,98.91808 68.5826,54.15254 123.975,124.39249 158.9725,201.58366 2.4976,5.50883 2.5793,5.7969 1.6497,5.7969 -0.8176,0 -1.3238,-0.76272 -3.1125,-4.70311 z"
     id="path2228" />
  <path
     style="fill:#d4aa00;stroke-width:0.4375"
     d="m 461.82578,564.48438 c 9.05496,-11.85288 17.84468,-22.44191 28.78039,-34.67189 7.56905,-8.46485 31.13342,-32.00109 39.86258,-39.81498 67.58603,-60.49947 148.0271,-103.08593 237.5625,-125.76841 12.72575,-3.22388 24.4336,-5.16154 42.31569,-7.00325 5.66092,-0.58352 12.71142,-0.868 8.87185,-0.3584 -0.7224,0.0958 -5.74224,0.86912 -11.15621,1.71819 -75.0187,11.76718 -145.78579,39.36378 -211.09383,82.3192 -19.45591,12.79686 -36.78827,25.75342 -54.25,40.55385 -28.95637,24.5432 -58.73446,56.07185 -80.48193,85.21318 -1.95283,2.61677 -2.7748,3.39058 -3.60136,3.39058 -0.96992,0 -0.66752,-0.52864 3.19032,-5.57807 z"
     id="path2230" />
  <path
     style="fill:#d4aa00;stroke-width:0.4375"
     d="m 360.26171,786.73438 c 0.88407,-7.41262 6.40777,-29.20979 12.00149,-47.35938 16.2324,-52.66815 39.49596,-101.81111 69.37624,-146.55336 10.17072,-15.22946 16.01208,-23.10779 16.95113,-22.86222 0.4312,0.11312 0.784,0.26656 0.784,0.34272 0,0.0756 -1.98844,2.85802 -4.41884,6.1833 -6.12519,8.38119 -19.38639,28.42862 -25.49885,38.54812 -13.93034,23.06234 -27.06298,48.94252 -37.21689,73.34245 -11.84234,28.45721 -21.97966,60.94655 -28.19849,90.37399 -0.9912,4.69213 -1.90255,8.97422 -2.02429,9.51563 -0.14336,0.63728 -0.54432,0.98448 -1.13848,0.98448 -0.85904,0 -0.89824,-0.15792 -0.61712,-2.51563 z"
     id="path2232" />
  <path
     style="fill:#d4aa00;stroke-width:0.4375"
     d="m 356.79524,816.15253 c 0.224,-4.25936 1.33459,-14.6581 2.44104,-22.85566 0.51856,-3.84316 0.5992,-4.04689 1.60866,-4.04689 0.88256,0 1.02144,0.16688 0.81872,0.98448 -0.39312,1.59107 -2.8224,15.71574 -4.00602,23.29687 l -1.09312,7 z"
     id="path2234" />
  <path
     style="fill:#d4aa00;stroke-width:0.4375"
     d="m 148.31249,1059.9009 c 0,-0.089 -0.48272,-2.5006 -1.07408,-5.3594 -7.45662,-36.0923 -12.33221,-78.26453 -14.25734,-123.32275 -0.59913,-14.02281 -0.59648,-55.32194 0.004,-69.78126 1.73097,-41.64799 5.96578,-79.77082 12.98806,-116.92187 L 147.11069,738.5 h 112.38215 c 61.8102,0 112.38216,0.098 112.38216,0.21728 0,0.11984 -0.97552,3.51579 -2.16866,7.5469 -8.39368,28.3676 -11.45421,44.81136 -13.78188,74.04831 -4.96808,62.40216 -3.02152,145.66765 4.38772,187.68751 1.74014,9.869 6.51728,28.4107 11.38439,44.1875 1.07632,3.489 2.06237,6.6883 2.19095,7.1094 0.22288,0.728 -5.34509,0.7661 -112.67057,0.7661 -62.09747,0 -112.90449,-0.073 -112.90449,-0.1613 z"
     id="path2236" />
  <path
     style="fill:#d4aa00;stroke-width:0.4375"
     d="m 440.90072,1197.5469 c -31.83116,-47.9444 -56.0205,-100.5741 -72.13784,-156.9532 -6.75817,-23.6403 -9.33511,-36.8704 -11.53732,-59.23312 -0.59696,-6.06133 -0.86016,-12.36092 -0.35728,-8.57932 0.77952,5.87373 3.5831,22.64755 5.00908,29.96874 13.42746,68.9375 39.56191,132.2802 79.82932,193.4844 4.80132,7.2979 6.07174,9.5155 5.45059,9.5155 -0.5656,0 -2.45157,-2.473 -6.2561,-8.2029 z"
     id="path2238" />
  <path
     style="fill:#d4aa00;stroke-width:0.4375"
     d="m 590.56436,1348.9029 c -55.57255,-37.8856 -102.4289,-83.9075 -140.78803,-138.2807 -2.4388,-3.4574 -3.05872,-4.62 -2.60949,-4.8977 0.32368,-0.2016 0.61712,-0.3248 0.65184,-0.28 0.0344,0.047 1.8004,2.5468 3.92437,5.554 11.75931,16.6524 26.20623,34.7109 40.60048,50.75 7.59808,8.4661 29.84598,30.6729 38.56291,38.4913 19.10925,17.1393 40.28898,33.6164 61.35963,47.7356 9.03907,6.057 9.61744,6.5218 8.09379,6.5039 -1.3673,-0.016 -3.00048,-0.9408 -9.7953,-5.5776 z"
     id="path2240" />
  <path
     style="fill:#d4aa00;stroke-width:0.4375"
     d="m 832.34375,1437.335 c -0.7224,-0.087 -5.4469,-0.56 -10.5,-1.0416 -28.27044,-2.7306 -52.50895,-7.7634 -85.3125,-17.7174 -44.86565,-13.6142 -88.17073,-33.2813 -128.58859,-58.3987 -7.94113,-4.9347 -8.60865,-5.4432 -7.53009,-5.7311 0.9968,-0.2688 2.02765,0.2128 6.52613,3.0666 25.74462,16.2996 56.76772,32.2533 84.96763,43.6947 44.44512,18.0325 89.54235,29.5021 138.90624,35.3281 5.13587,0.6048 7.39951,0.9968 5.68747,0.9856 -1.56408,-0.013 -3.43436,-0.095 -4.1562,-0.1792 z"
     id="path2242" />
  <path
     style="fill:#d4aa00;stroke-width:0.4375"
     d="m 944.34375,1438.2497 c 0.7224,-0.1042 4.56097,-0.4928 8.53126,-0.8736 69.85519,-6.6069 139.75849,-28.11 201.96189,-62.1268 38.5027,-21.0557 74.012,-46.1202 106.2569,-75.0023 9.0026,-8.0629 31.0828,-30.1427 39.1252,-39.1229 6.1488,-6.8656 17.0341,-19.7366 21.2101,-25.0788 1.3104,-1.6766 2.4651,-2.7339 2.9848,-2.7339 1.0304,0 0.8176,0.28 -8.3978,11.3748 -78.4055,94.3875 -186.4746,160.1507 -304.7346,185.4399 -15.80457,3.379 -29.34307,5.385 -47.46876,7.0302 -8.41859,0.7616 -22.78317,1.5703 -19.46876,1.0976 z"
     id="path2246" />
  <path
     style="fill:#d4aa00;stroke-width:0.4375"
     d="m 1324.16,1232.7656 c 0.1904,-0.3024 2.7227,-3.6971 5.6381,-7.5465 48.3327,-63.812 82.1351,-136.844 98.2604,-212.2969 1.2364,-5.7841 1.5377,-6.6718 2.2635,-6.6718 1.0192,0 1.0864,-0.4021 -2.1303,13.5625 -14.5149,63.005 -40.6272,123.3344 -76.881,177.6249 -11.2971,16.9177 -25.3907,35.8526 -26.6962,35.8666 -0.5264,0.01 -0.672,-0.1792 -0.4592,-0.5376 z"
     id="path2248" />
  <path
     style="fill:#d4aa00;stroke-width:0.4375"
     d="m 1429.483,1005.9183 c 0.7504,-2.5296 3.7005,-19.77003 5.2819,-30.89832 1.1917,-8.39463 3.2659,-27.03925 3.3488,-30.11638 0.028,-1.02928 0.1456,-1.47896 0.2688,-0.99792 0.1232,0.48048 -0.013,4.22139 -0.3024,8.31253 -1.1816,16.88505 -3.379,35.41196 -5.6269,47.4213 -1.0528,5.65369 -1.2812,6.33339 -2.1907,6.66829 -0.84,0.3113 -0.9744,0.2464 -0.784,-0.3887 z"
     id="path2250" />
  <path
     style="fill:#d4aa00;stroke-width:0.4375"
     d="m 1438.136,847.13422 c -0.04,-1.00912 -0.4704,-5.63562 -0.952,-10.28126 -5.6795,-54.30572 -18.7102,-104.74295 -39.842,-154.21505 -1.6632,-3.89447 -3.0251,-7.17764 -3.0251,-7.29602 0,-0.11872 0.3472,-0.28224 0.7616,-0.36512 0.896,-0.17584 2.1437,2.45582 7.6261,16.05471 17.4373,43.2559 29.317,88.54916 33.564,127.96874 1.213,11.26169 2.3307,26.1525 2.1191,28.23106 l -0.1792,1.73768 z"
     id="path2252" />
  <path
     style="fill:#d4aa00;stroke-width:1.23743"
     d="M 1337.0505,270.83348 C 1218.8789,186.73596 1086.2496,140.00391 940.80921,131.21753 c -121.69426,-7.35182 -249.05578,16.47293 -361.0579,67.54093 -9.52159,4.34142 -18.43113,7.84763 -19.79899,7.79157 -5.17027,-0.21189 42.28493,-21.14932 75.21848,-33.18669 59.82441,-21.86611 123.77082,-35.64265 197.0055,-42.44261 26.33252,-2.44507 106.77973,-2.04926 134.88061,0.66416 113.67189,10.97376 214.22669,42.61832 309.35929,97.35519 32.2092,18.53239 80.059,50.73169 75.3588,50.71073 -1.2924,-0.006 -7.9184,-3.97332 -14.7245,-8.81676 z"
     id="path2262" />
  <path
     style="fill:#d4aa00;stroke-width:0.4375"
     d="m 920.93751,129.40862 c -8.06098,-0.21392 -26.46876,-0.32368 -40.90626,-0.24416 -14.4375,0.0799 -23.59219,0.0146 -20.34376,-0.1456 21.97977,-1.0808 60.94096,-0.86128 81.37502,0.45808 l 5.03126,0.3248 -5.25,-0.003 c -2.88747,-0.001 -11.84531,-0.17808 -19.90624,-0.392 z"
     id="path2264" />
  <path
     style="fill:#d4aa00;stroke-width:0.4375"
     d="m 919.52346,130.49543 c 0.78624,-0.0974 1.96762,-0.0954 2.62494,0.004 0.65744,0.0998 0.014,0.1792 -1.42968,0.17696 -1.44379,-0.002 -1.98161,-0.0841 -1.19526,-0.18142 z"
     id="path2266" />
  <path
     style="fill:#d4aa00;stroke-width:0.4375"
     d="m 932.8677,129.63432 c 0.4256,-0.11092 1.01584,-0.10363 1.31253,0.0162 0.29568,0.11984 -0.0521,0.21056 -0.77392,0.2016 -0.7224,-0.009 -0.96432,-0.10696 -0.53872,-0.2184 z"
     id="path2268" />
  <path
     style="fill:#d4aa00;stroke-width:0.4375"
     d="m 395.5876,1479.1981 c -56.73728,-48.5035 -107.07414,-106.6186 -147.60808,-170.4168 -28.42299,-44.7363 -50.55713,-88.243 -69.07516,-135.7735 -1.9068,-4.8944 -3.46684,-8.979 -3.46684,-9.0776 0,-0.099 0.56336,-0.1792 1.25294,-0.1792 1.21576,0 1.34109,0.224 4.22218,7.5466 32.63265,82.9437 80.85451,161.8128 139.96088,228.9124 24.60432,27.9317 53.2577,56.0507 80.71026,79.2053 3.63205,3.0632 6.60386,5.6437 6.60386,5.7344 0,0.09 -1.23043,0.1568 -2.73437,0.1568 l -2.73437,-0.01 -7.13115,-6.0962 z"
     id="path2270" />
  <path
     style="fill:#d4aa00;stroke-width:1.23743"
     d="m 174.93069,1161.2022 c -0.46368,-1.288 -1.85113,-4.9627 -3.08257,-8.1648 -4.60313,-11.9686 -15.03987,-46.8749 -20.27342,-67.8053 -9.55637,-38.2184 -15.88074,-75.6056 -19.99037,-118.17519 -2.71227,-28.09513 -3.10854,-108.54467 -0.66437,-134.88061 4.5114,-48.61055 10.84464,-86.72132 21.28087,-128.05925 5.42476,-21.4875 15.99881,-56.10108 17.58278,-57.55628 0.94304,-0.86576 1.12347,-0.60144 0.60256,0.88256 -2.60935,7.42933 -13.74204,46.15587 -16.87898,58.71516 -27.72333,110.99534 -29.29859,245.14636 -4.24781,361.74951 4.99699,23.2593 15.22248,59.5256 22.64972,80.3307 2.77391,7.7705 4.77837,14.393 4.45435,14.717 -0.32368,0.3248 -0.9688,-0.4704 -1.4327,-1.7539 z"
     id="path2280" />
  <path
     style="fill:#d4aa00;stroke-width:0.4375"
     d="m 175.29167,1163.4584 c -0.59808,-0.5936 -0.26544,-1.1088 0.3752,-0.5712 1.08416,0.896 1.20915,0.2128 0.44128,-2.4293 -0.3976,-1.3675 -0.61264,-2.5962 -0.47824,-2.7306 0.1344,-0.1344 0.24416,-0.1232 0.24416,0.037 0,0.1568 0.48384,1.5657 1.07408,3.136 l 1.07408,2.8537 h -1.21892 c -0.67088,0 -1.35117,-0.1344 -1.51166,-0.2912 z"
     id="path2288" />
  <path
     style="fill:#d4aa00;stroke-width:0.4375"
     d="m 129.35804,940.08298 c -1.24869,-26.0522 -1.38656,-59.21392 -0.33376,-80.39549 0.16128,-3.24844 0.21056,4.92184 0.10865,18.15626 -0.10163,13.23438 0.0448,33.88295 0.32592,45.88573 0.4984,21.32024 0.45808,27.98755 -0.0999,16.3535 z"
     id="path2290" />
  <path
     style="fill:#d4aa00;stroke-width:0.4375"
     d="m 149.4174,1065.2031 c -3.23166,-14.1843 -7.66934,-39.8387 -10.04634,-58.0781 -4.89929,-37.59376 -6.8559,-69.05214 -6.85718,-110.25 -0.002,-51.05715 3.17822,-91.76906 10.62712,-136.06251 1.23424,-7.33902 2.33363,-13.98359 2.44316,-14.76562 l 0.19936,-1.42184 h 112.20037 c 106.65528,0 112.18877,0.0378 111.96552,0.76608 -2.43634,7.94293 -6.80748,24.55924 -8.31511,31.60938 -10.9163,51.04592 -11.29244,181.06607 -0.67872,234.52881 2.02709,10.2102 7.54029,30.5778 12.57496,46.4556 l 2.60109,8.2031 H 262.88659 149.64167 Z"
     id="path2292" />
  <path
     style="fill:#d4aa00;stroke-width:0.4375"
     d="m 149.46183,1065.4219 c -0.55876,-1.9258 -3.45042,-16.5786 -5.04018,-25.5398 -9.0601,-51.0707 -12.88907,-103.37897 -11.81512,-161.40846 0.81536,-44.08547 4.15935,-80.61767 11.12138,-121.51723 1.07744,-6.33181 1.95966,-11.69662 1.95966,-11.92187 0,-0.25312 42.8162,-0.40992 112.24824,-0.40992 106.69933,0 112.23682,0.0378 112.01746,0.76608 -3.02725,10.04338 -7.66282,28.34024 -9.17224,36.20313 -9.40341,48.98385 -10.20398,160.13812 -1.57797,219.07477 2.27685,15.5566 7.03405,34.2756 15.45561,60.8159 l 1.4924,4.7031 h -113.2336 c -107.46514,0 -113.24483,-0.039 -113.45564,-0.7661 z"
     id="path2294" />
  <path
     style="fill:#d4aa00;stroke-width:0.4375"
     d="m 149.45843,1065.4219 c -1.11617,-3.7892 -5.81033,-29.2329 -7.88991,-42.7656 -6.34327,-41.27826 -9.0619,-79.16967 -9.05596,-126.21879 0.007,-52.09077 3.28956,-92.91963 11.21529,-139.4811 1.07744,-6.33181 1.95967,-11.69662 1.95967,-11.92187 0,-0.25312 42.8162,-0.40992 112.24823,-0.40992 106.69933,0 112.23683,0.0378 112.01746,0.76608 -2.7198,9.0235 -7.25894,26.69528 -8.80566,34.28246 -9.75218,47.8355 -10.64224,164.08321 -1.70475,222.63944 2.04243,13.3812 6.6248,31.6031 13.45027,53.4844 l 3.24117,10.3905 H 262.90908 c -107.45586,0 -113.2366,-0.039 -113.45065,-0.7661 z"
     id="path2296" />
  <path
     style="fill:#d4aa00;stroke-width:0.4375"
     d="m 149.2279,1064.5469 c -0.77627,-2.9562 -4.36886,-21.7807 -5.92901,-31.0669 -7.55143,-44.94735 -10.79188,-86.12013 -10.78574,-137.04249 0.006,-52.05784 3.10598,-91.03322 11.00321,-138.35328 1.19415,-7.15523 2.17112,-13.11071 2.17112,-13.23438 0,-0.1232 50.51171,-0.22512 112.24824,-0.22512 106.69941,0 112.23681,0.0379 112.01724,0.76608 -3.35978,11.1356 -8.25911,30.9362 -9.66146,39.04687 -5.18045,29.96089 -7.93363,83.48642 -6.81856,132.56251 0.97888,43.09439 3.52038,74.50768 7.67861,94.91681 2.26923,11.1381 8.12425,32.5992 13.52285,49.5676 l 1.49632,4.7031 H 262.91476 149.65872 Z"
     id="path2298" />
  <path
     style="fill:#d4aa00;stroke-width:0.4375"
     d="m 149.23438,1064.5469 c -1.44538,-5.5882 -5.87336,-29.7316 -7.88347,-42.9844 -6.1913,-40.81966 -8.83922,-78.23546 -8.83962,-124.90625 -4.5e-4,-53.27624 3.22705,-93.12964 11.44978,-141.38076 0.94976,-5.57188 1.72648,-10.24766 1.72648,-10.39057 0,-0.14336 50.49845,-0.25984 112.21876,-0.25984 61.72031,0 112.21875,0.097 112.21875,0.21616 0,0.11872 -0.87696,3.27174 -1.94925,7.00694 -7.48272,26.06988 -10.51994,44.24752 -12.68234,75.9024 -1.52029,22.25512 -2.65485,61.87809 -2.20965,77.16528 0.10598,3.63877 0.3024,12.32534 0.4368,19.30347 0.66304,34.46409 3.53371,68.14668 7.47521,87.71877 2.19599,10.9045 7.02453,28.9096 11.80054,44.0029 1.3646,4.3124 2.64118,8.3823 2.83673,9.044 l 0.35616,1.2031 H 262.92382 149.65872 Z"
     id="path2300" />
  <path
     style="fill:#d4aa00;stroke-width:0.4375"
     d="m 149.206,1064.5469 c -0.74326,-2.6501 -3.85053,-18.7685 -5.71408,-29.6406 -8.40967,-49.06301 -11.98412,-100.6375 -10.9006,-157.2813 0.84336,-44.10861 3.86568,-77.2896 10.93736,-120.09375 0.95424,-5.77505 1.84576,-11.04141 1.98151,-11.70312 l 0.2464,-1.20311 h 112.23502 c 106.68099,0 112.22433,0.0379 112.0193,0.76608 -5.19064,18.42268 -8.24936,31.01575 -9.9092,40.79688 -2.94392,17.34835 -5.00125,41.34828 -6.188,72.1875 -0.48944,12.7051 -0.65744,61.91079 -0.23632,68.96062 0.12768,2.13573 0.3416,7.3285 0.476,11.53938 0.1344,4.21098 0.34048,9.23127 0.4592,11.15621 2.18086,35.41895 4.32577,52.95681 8.72435,71.33241 2.57197,10.7449 10.62241,38.649 12.71098,44.0582 0.28112,0.728 -5.28047,0.7661 -113.04312,0.7661 H 149.66613 Z"
     id="path2302" />
  <path
     style="fill:#d4aa00;stroke-width:0.4375"
     d="m 149.21695,1064.5469 c -2.40188,-8.92 -7.96329,-41.6289 -10.50716,-61.7969 -2.93156,-23.24169 -5.69049,-57.87115 -5.70506,-71.60854 -0.003,-3.19144 -0.16016,-4.49232 -0.55216,-4.5938 -0.43232,-0.11169 -0.49952,-4.51304 -0.32144,-20.9227 0.12432,-11.42969 0.27104,-18.76329 0.32816,-16.29688 l 0.10292,4.48437 H 243.03125 353.5 l 0.003,13.67188 c 0.01,44.04647 3.65725,87.49125 9.39713,111.92507 2.6525,11.2913 11.00916,40.5436 13.14455,46.0124 0.28448,0.728 -5.2761,0.7661 -113.0435,0.7661 H 149.65879 l -0.44128,-1.6406 z"
     id="path2304" />
  <path
     style="fill:#d4aa00;stroke-width:112"
     id="path2306"
     sodipodi:type="arc"
     sodipodi:cx="228.23772"
     sodipodi:cy="794.55481"
     sodipodi:rx="22.490101"
     sodipodi:ry="51.566761"
     sodipodi:start="0"
     sodipodi:end="2.8457152"
     sodipodi:arc-type="slice"
     d="m 250.72782,794.55481 a 22.490101,51.566761 0 0 1 -19.17507,51.0035 22.490101,51.566761 0 0 1 -24.82786,-35.9677 l 21.51283,-15.0358 z" />
  <path
     style="fill:#d4aa00;stroke-width:112"
     id="path2308"
     sodipodi:type="arc"
     sodipodi:cx="230.93428"
     sodipodi:cy="813.55408"
     sodipodi:rx="5.5900078"
     sodipodi:ry="5.7342434"
     sodipodi:start="0"
     sodipodi:end="0.8657603"
     sodipodi:arc-type="arc"
     d="m 236.52429,813.55408 a 5.5900078,5.7342434 0 0 1 -1.96734,4.36713"
     sodipodi:open="true" />
  <path
     style="fill:#d4aa00;stroke-width:112"
     id="path2310"
     sodipodi:type="arc"
     sodipodi:cx="228.90463"
     sodipodi:cy="842.4054"
     sodipodi:rx="37.309425"
     sodipodi:ry="37.620274"
     sodipodi:start="0"
     sodipodi:end="5.3383791"
     sodipodi:arc-type="slice"
     d="m 266.21406,842.4054 a 37.309425,37.620274 0 0 1 -28.5786,36.5757 37.309425,37.620274 0 0 1 -41.95403,-19.45745 37.309425,37.620274 0 0 1 8.94316,-45.68222 37.309425,37.620274 0 0 1 46.13963,-1.92288 l -21.85959,30.48685 z" />
  <path
     style="fill:#d4aa00;stroke-width:112"
     id="path2312"
     sodipodi:type="arc"
     sodipodi:cx="236.1788"
     sodipodi:cy="827.84308"
     sodipodi:rx="14.625328"
     sodipodi:ry="19.682039"
     sodipodi:start="5.3308341"
     sodipodi:end="2.5752829"
     sodipodi:arc-type="slice"
     d="m 244.65811,811.80653 a 14.625328,19.682039 0 0 1 5.78217,20.39947 14.625328,19.682039 0 0 1 -11.76708,15.03074 14.625328,19.682039 0 0 1 -14.83652,-8.83382 l 12.34212,-10.55984 z" />
  <path
     style="fill:#d4aa00;stroke-width:112"
     id="path2314"
     sodipodi:type="arc"
     sodipodi:cx="217.60922"
     sodipodi:cy="825.54572"
     sodipodi:rx="14.483936"
     sodipodi:ry="0.44749355"
     sodipodi:start="5.3308341"
     sodipodi:end="2.5752829"
     sodipodi:arc-type="slice"
     d="m 226.00656,825.18111 a 14.483936,0.44749355 0 0 1 5.72626,0.4638 14.483936,0.44749355 0 0 1 -11.65331,0.34174 14.483936,0.44749355 0 0 1 -14.69309,-0.20084 l 12.2228,-0.24009 z" />
  <rect
     style="fill:#d4aa00;stroke-width:112"
     id="rect2318"
     width="88.877388"
     height="60.118038"
     x="136.17578"
     y="793.03497"
     ry="3.9971809" />
  <path
     style="fill:#d4aa00;stroke-width:296.122"
     id="path2380"
     sodipodi:type="arc"
     sodipodi:cx="173.63689"
     sodipodi:cy="900.91132"
     sodipodi:rx="42.866856"
     sodipodi:ry="207.35164"
     sodipodi:start="2.5612555"
     sodipodi:end="2.5447161"
     sodipodi:arc-type="slice"
     d="m 137.78829,1014.6034 a 42.866856,207.35164 0 0 1 12.19642,-286.62408 42.866856,207.35164 0 0 1 59.30518,57.80977 42.866856,207.35164 0 0 1 -11.70599,287.10221 42.866856,207.35164 0 0 1 -59.40198,-55.4355 l 35.45497,-116.54448 z" />
  <path
     style="fill:#d4aa00;stroke-width:1.75"
     d="m 1017.4818,1000.7792 c 1.9669,-16.83444 3.1415,-401.27803 1.3281,-434.73111 -2.0576,-37.95995 -3.5727,-42.84708 -14.5692,-46.99555 -4.1886,-1.58017 -13.52195,-3.54251 -20.7407,-4.36075 l -13.125,-1.4877 14,-0.18816 c 21.0041,-0.28336 31.6141,5.52933 36.8396,20.18118 3.1726,8.8956 3.7166,454.56249 0.5701,467.05819 -2.8955,11.4989 -5.6241,11.8314 -4.303,0.5241 z"
     id="path2438" />
  <path
     style="fill:#d4aa00;stroke-width:1.75"
     d="m 663.88819,1022.0829 c -6.16158,-1.4697 -16.38819,-8.1808 -16.38819,-10.7545 0,-0.9262 2.20696,-0.052 4.90426,1.9427 8.46563,6.2589 45.22156,7.4137 201.5957,6.3337 77.48125,-0.5354 144.41874,-1.4771 148.75004,-2.0932 9.7996,-1.3939 7.5901,2.1607 -2.84854,4.5826 -8.12403,1.8849 -328.1092,1.8741 -336.01327,-0.011 z"
     id="path2440" />
  <path
     style="fill:#d4aa00;stroke-width:0.4375"
     d="m 1008.8591,1018.7379 c 1.204,-1.4507 0.1115,-1.6464 -7.8033,-1.3975 l -7.71206,0.243 6.12494,-0.6305 c 7.67912,-0.7908 12.37312,-1.7331 13.77412,-2.7663 0.6048,-0.4458 1.3362,-1.6562 1.6491,-2.7281 0.6933,-2.376 1.7414,-10.6073 2.2782,-17.89561 0.3595,-4.87727 0.373,-4.61698 0.1288,2.4062 -0.1501,4.33131 -0.2699,8.91501 -0.2665,10.18591 0.01,2.6272 0.6092,3.6135 1.6672,2.7358 1.1077,-0.9196 0.7672,0.1624 -0.6776,2.1582 -1.7273,2.3844 -4.5893,5.2464 -6.9737,6.9737 -1.9681,1.4256 -3.0806,1.7892 -2.1895,0.7157 z"
     id="path2444" />
  <path
     style="fill:#d4aa00;stroke-width:0.4375"
     d="m 1023.9629,929.25 c 0,-34.77031 0.052,-48.99453 0.1154,-31.60938 0.063,17.38516 0.063,45.8336 0,63.21876 -0.063,17.38515 -0.1154,3.16098 -0.1154,-31.60938 z"
     id="path2448" />
  <path
     style="fill:#d4aa00;stroke-width:0.4375"
     d="m 1023.9423,980.21875 c 3e-4,-6.73747 0.061,-9.43264 0.1355,-5.9892 0.074,3.44344 0.074,8.95597 -4e-4,12.25 -0.074,3.29403 -0.1344,0.47712 -0.1344,-6.2608 z"
     id="path2450" />
  <path
     style="fill:#d4aa00;stroke-width:0.4375"
     d="m 1023.7845,982.80729 c 0.021,-0.5096 0.1244,-0.61376 0.2644,-0.26432 0.1265,0.31584 0.1108,0.69328 -0.035,0.83888 -0.1456,0.1456 -0.2486,-0.11312 -0.2296,-0.57456 z"
     id="path2452" />
  <path
     style="fill:#d4aa00;stroke-width:0.4375"
     d="m 1019.5747,1007.7436 c 0.1915,-0.4603 0.8321,-2.3139 1.4227,-4.1186 1.4295,-4.36547 1.8122,-11.47531 2.2607,-42.00004 l 0.3506,-23.84375 0.071,29.00281 c 0.061,24.9145 -0.027,29.47429 -0.6205,32.34747 -0.7448,3.60721 -2.6168,8.69801 -3.369,9.16281 -0.3058,0.1893 -0.345,0 -0.1154,-0.551 z"
     id="path2454" />
  <path
     style="fill:#d4aa00;stroke-width:0.4375"
     d="m 946.75,1023.284 c 42.6158,-0.3517 51.63664,-0.6048 55.2828,-1.546 3.2437,-0.8377 3.7968,-0.4581 0.6552,0.4491 -5.23099,1.5108 -6.97908,1.5626 -50.20052,1.4839 l -43.14341,-0.078 z"
     id="path2458" />
  <path
     style="fill:#d4aa00;stroke-width:0.4375"
     d="m 1005.375,1020.6875 c 0.3606,-0.233 0.952,-0.4245 1.3125,-0.4245 0.5835,0 0.5835,0.047 0,0.4245 -0.3606,0.233 -0.952,0.4245 -1.3125,0.4245 -0.5835,0 -0.5835,-0.047 0,-0.4245 z"
     id="path2462" />
  <path
     style="fill:#d4aa00;stroke-width:0.4375"
     d="m 896,815.5 v -79.625 h 2.40621 2.40621 V 815.5 895.125 H 898.40625 896 Z"
     id="path2466" />
  <path
     style="fill:#d4aa00;stroke-width:0.4375"
     d="m 896,648.375 v -87.5 h 3.07754 3.07753 l -0.24304,2.07816 c -0.60256,5.16006 -1.09648,55.36367 -1.0976,111.56249 l -0.002,61.35938 H 898.40625 896 Z"
     id="path2468" />
  <path
     style="fill:#d4aa00;stroke-width:0.4375"
     d="m 896.01473,553.10938 c 0.028,-14.77045 1.1788,-20.76087 5.15883,-26.85398 4.33238,-6.63264 11.85455,-11.77501 19.4174,-13.27436 4.78497,-0.94864 74.24793,-0.98896 78.65906,-0.0452 4.05378,0.86688 7.37308,2.20237 10.50448,4.22632 3.4208,2.21099 3.2059,2.70245 -0.2677,0.61152 -2.8192,-1.69769 -7.7741,-3.41006 -12.08104,-4.17502 -3.5486,-0.63056 -21.36428,-1.06624 -24.6928,-0.6048 l -2.55719,0.35504 3.93747,0.5376 3.93748,0.5376 -5.25,-0.26208 c -8.26863,-0.41216 -27.44037,-0.23408 -33.68751,0.31248 -15.42495,1.35083 -26.64745,4.16214 -30.34017,7.60043 -1.38164,1.28632 -2.91828,4.39286 -3.73498,7.55059 -1.22405,4.73256 -2.89352,21.23248 -2.89352,28.59762 v 2.65239 H 899.06251 896 Z"
     id="path2470" />
  <path
     style="fill:#d4aa00;stroke-width:0.4375"
     d="m 1023.4199,619.42742 c -0.1635,-25.12371 -0.9497,-68.24529 -1.4181,-77.77252 -0.4144,-8.43696 -0.429,-8.52588 -1.9547,-11.73781 -0.8456,-1.78001 -1.9545,-3.82278 -2.4647,-4.53947 -0.5108,-0.7168 -0.8221,-1.40862 -0.6933,-1.53765 0.3819,-0.38192 3.2493,4.22778 4.412,7.09296 2.5154,6.19842 2.4787,5.30365 2.347,57.28584 -0.067,26.22813 -0.1692,40.27203 -0.2285,31.20868 z"
     id="path2472" />
  <path
     style="fill:#d4aa00;stroke-width:0.4375"
     d="m 1019.7913,656.14062 c -0.031,-75.96593 -0.6962,-101.82156 -3.0289,-117.79687 -1.454,-9.9579 -3.3288,-14.20103 -7.5296,-17.04083 -4.2968,-2.90474 -14.62426,-5.48696 -28.79529,-7.19984 l -6.78127,-0.81984 8.53127,-0.0394 c 5.10899,-0.0236 10.39651,0.20944 13.18121,0.58016 12.42258,1.65379 19.77448,6.59691 24.32068,16.35213 1.4634,3.14015 1.5029,3.37736 1.8939,11.375 0.6776,13.86532 1.2844,56.94353 1.5854,112.62111 l 0.2878,53.26562 h -1.822 -1.822 l -0.021,-51.29722 z"
     id="path2474" />
  <path
     style="fill:#d4aa00;stroke-width:0.4375"
     d="m 901.25428,659.20313 c 0.007,-79.65979 1.0304,-114.2366 3.77361,-127.50811 1.86223,-9.00905 4.98344,-11.63862 17.0217,-14.34043 20.18321,-4.52984 56.784,-4.03637 76.86986,1.036 5.27175,1.33134 9.81795,3.33816 11.85565,5.23342 6.6105,6.14791 7.8437,25.39379 8.4491,131.86 l 0.2957,51.95311 H 960.38481 901.25 Z"
     id="path2476" />
  <path
     style="fill:#d4aa00;stroke-width:0.4375"
     d="m 1019.794,657.23438 c -0.038,-103.07472 -1.2935,-124.97147 -7.6435,-133.29678 -3.4309,-4.49813 -13.56566,-7.64102 -31.71299,-9.83452 l -6.78127,-0.81984 8.53127,-0.0394 c 5.10899,-0.0236 10.39651,0.20944 13.18121,0.58016 12.41898,1.65334 19.77458,6.59736 24.31718,16.34456 1.451,3.11349 1.5019,3.41331 1.8961,11.15621 0.6776,13.3239 1.2844,56.35236 1.587,112.62868 l 0.2878,53.48437 h -1.822 -1.822 z"
     id="path2478" />
  <path
     style="fill:#d4aa00;stroke-width:0.4375"
     d="m 901.25659,658.76562 c 0.0108,-79.59805 1.02592,-113.85844 3.76936,-127.20313 1.81473,-8.8275 5.01536,-11.52677 16.78652,-14.15711 28.31151,-6.32643 79.47333,-2.76013 88.96263,6.20122 4.5272,4.27515 6.1214,14.3314 7.2956,46.01844 0.5981,16.12827 1.2836,74.00912 1.2951,109.26563 l 0.01,28.54687 H 960.31251 901.25 Z"
     id="path2480" />
  <rect
     style="fill:#d4aa00;stroke-width:112"
     id="rect2482"
     width="123.28111"
     height="457.90277"
     x="898.85541"
     y="537.3623"
     ry="3.9971809" />
  <path
     style="fill:#d4aa00;stroke-width:0.618718"
     d="m 712.14492,1022.7124 c -51.34017,-0.4681 -48.84878,-0.2744 -56.06876,-4.3631 -3.57604,-2.0251 -8.77083,-6.4324 -8.23345,-6.9853 0.19488,-0.2005 1.70273,0.4917 3.35115,1.5368 9.36051,5.9363 23.55506,6.7753 118.80116,7.0219 39.81452,0.1032 65.56868,-0.017 57.23145,-0.2677 -8.33728,-0.2508 -35.48351,-0.4972 -60.32505,-0.5476 -72.36727,-0.149 -99.87273,-1.3386 -110.54834,-4.7819 -3.71525,-1.1983 -7.40763,-5.1413 -8.83293,-9.4325 -2.30296,-6.93356 -2.83463,-12.63212 -3.55042,-38.0546 -0.80728,-28.67152 -0.29152,-41.61117 1.94411,-48.77535 3.8646,-12.38426 14.39721,-16.95796 43.92328,-19.07333 10.89469,-0.78064 52.99044,-1.53653 141.87514,-2.54778 37.00709,-0.42112 67.28562,-0.99232 67.28562,-1.2703 0,-0.27776 -0.55664,-0.50512 -1.23749,-0.50512 -1.23099,0 -1.23748,-0.41216 -1.23748,-79.15293 V 736.361 l 1.39216,-0.26768 1.39216,-0.26768 -1.39216,-0.0843 -1.39216,-0.0842 v -58.46981 -58.46889 h 63.01075 63.01074 l 0.4066,13.45713 c 0.6372,21.08644 0.4592,284.55924 -0.2196,325.82997 -0.3348,20.37372 -0.9038,38.88427 -1.2628,41.13455 -0.3595,2.25031 -1.2234,5.34891 -1.92,6.88591 -1.0852,2.395 -1.3322,2.6182 -1.7271,1.5619 -0.2531,-0.6776 -0.3259,-3.8101 -0.1613,-6.9606 0.345,-6.60281 -0.7448,-8.07393 -1.3798,-1.86106 -0.7482,7.32546 -1.7055,12.53236 -2.5493,13.86596 -1.0237,1.618 -3.4172,2.4287 -9.5517,3.235 -4.2292,0.5555 -19.95877,1.6386 -31.5546,2.1718 -2.55226,0.1176 4.52917,0.1187 15.73634,0 17.39586,-0.1803 20.24696,-0.086 19.48966,0.6474 -0.4884,0.4726 -2.6969,1.4581 -4.9088,2.1903 -3.93991,1.3041 -5.14078,1.3422 -59.08759,1.8773 -61.87616,0.6138 -161.66785,0.5947 -231.71005,-0.044 z m 186.74245,-3.528 c -9.75923,-0.096 -25.90774,-0.096 -35.88566,-10e-5 -9.97797,0.096 -1.99315,0.1736 17.74398,0.1736 19.73712,10e-5 27.90088,-0.078 18.14168,-0.1736 z m 60.31451,-0.616 c -3.46954,-0.1101 -9.31638,-0.1105 -12.99309,-6e-4 -3.67662,0.1096 -0.83776,0.1994 6.30818,0.2005 7.14616,5e-4 10.15437,-0.089 6.68483,-0.1994 z"
     id="path2484" />
  <path
     style="fill:#d4aa00;stroke-width:0.618718"
     d="m 644.71196,1008.7415 c -4.22416,-6.9699 -4.26291,-7.4069 -4.30271,-48.51518 -0.0388,-40.05018 -0.0191,-40.31858 3.4982,-47.61663 1.98218,-4.11286 7.96824,-10.20835 12.28976,-12.51432 6.75069,-3.60214 6.4334,-3.58187 54.06686,-3.46875 l 43.64434,0.10358 -26.29553,0.44688 c -52.16204,0.88704 -67.72956,3.16422 -76.42267,11.17726 -3.56294,3.28418 -5.4367,6.89326 -6.88576,13.26286 -0.9968,4.38043 -1.10656,7.86968 -1.01248,32.17713 0.13776,35.83225 1.12448,46.74847 4.90347,54.25217 1.41389,2.8074 1.42655,2.9389 0.28336,2.9389 -0.65744,0 -1.29293,0.2901 -1.41109,0.644 -0.1176,0.3539 -1.17824,-0.9453 -2.35592,-2.8887 z"
     id="path2486" />
  <path
     style="fill:#d4aa00;stroke-width:0.4375"
     d="m 665.77148,1023.2981 c -2.81154,-0.4737 -6.18576,-1.6114 -9.10672,-3.0716 -2.61128,-1.3053 -7.19141,-4.7208 -6.8236,-5.0886 0.1232,-0.1232 1.17241,0.5029 2.33195,1.3904 1.15942,0.8882 3.93568,2.5048 6.1693,3.5933 3.84507,1.8739 4.3456,2.0011 9.4062,2.392 2.93978,0.2273 23.85129,0.5645 46.47004,0.7515 l 41.125,0.3382 -43.75,0.022 c -24.0625,0.012 -44.68253,-0.1344 -45.82227,-0.3271 z"
     id="path2488" />
  <rect
     style="fill:#d4aa00;stroke-width:112"
     id="rect2492"
     width="235.44736"
     height="62.539082"
     x="667.76965"
     y="960.68115"
     ry="3.9971809" />
  <rect
     style="fill:#d4aa00;stroke-width:112"
     id="rect2494"
     width="319.85675"
     height="58.485161"
     x="668.51489"
     y="965.29053"
     ry="3.9971809" />
  <path
     style="fill:#d4aa00;stroke-width:1.75"
     d="m 851.375,1659.7253 c -3.85,-0.3665 -16.84375,-1.5353 -28.875,-2.5975 -86.64976,-7.6499 -183.33287,-35.4552 -264.21771,-75.9866 -79.76475,-39.9702 -145.52607,-88.2552 -210.04762,-154.2267 -89.30361,-91.3104 -153.63596,-201.3609 -188.10889,-321.7895 -4.13275,-14.4375 -8.78165,-29.7937 -10.33086,-34.125 -3.87628,-10.8371 -11.71677,-53.5159 -10.44176,-56.8385 0.57112,-1.4884 0.23804,-3.6804 -0.74017,-4.8713 -2.1187,-2.5793 -7.5543,-52.30844 -7.21845,-66.0402 0.12992,-5.29379 -0.35056,-23.59022 -1.06736,-40.65883 -1.00352,-23.9058 -0.79856,-31.64202 0.89488,-33.68167 1.63296,-1.96762 1.89638,-7.48205 1.0248,-21.46617 -0.86912,-13.94848 -0.67088,-18.13904 0.7672,-16.19333 1.45387,1.96795 1.65188,-0.11312 0.79072,-8.31253 C 132.96149,814.90666 133.21988,812 134.77688,812 c 1.51514,0 1.7901,-2.20371 0.9632,-7.71982 -0.75264,-5.01928 -0.46704,-8.147 0.8176,-8.94096 1.13579,-0.70224 1.51144,-3.07093 0.88368,-5.57256 -0.60032,-2.39333 -0.18256,-5.44712 0.92848,-6.78642 1.11552,-1.34456 1.52645,-4.40429 0.91728,-6.83256 -0.69664,-2.77749 -0.36624,-4.39768 0.89824,-4.39768 1.29125,0 1.62926,-1.86413 0.952,-5.25 -0.63168,-3.15795 -0.32032,-5.25 0.78176,-5.25 1.00688,0 1.65805,-1.77184 1.44603,-3.93747 -0.21168,-2.16563 0.0926,-5.11874 0.67648,-6.56253 0.58464,-1.44379 4.61261,-17.19375 8.95171,-35 4.33942,-17.80625 10.5035,-40.64375 13.69823,-50.75 l 5.80866,-18.375 117.62491,-0.45024 c 64.6937,-0.24752 117.6249,0.0806 117.6249,0.72912 0,0.64848 -4.25185,10.33357 -9.44865,21.52285 -16.25192,34.99251 -36.46494,96.65658 -33.34047,101.71208 0.54768,0.88592 0.0699,1.61101 -1.06176,1.61101 -1.19549,0 -1.67418,1.46552 -1.14263,3.49821 0.50288,1.92405 0.2128,3.93187 -0.644,4.46174 -0.85792,0.52976 -1.53541,2.69629 -1.50662,4.81421 0.0287,2.11792 -0.75488,8.18205 -1.74227,13.47577 -6.05114,32.4555 -6.60509,146.16482 -0.9128,187.25 1.40033,10.10621 2.55875,20.10785 2.5742,22.22575 0.0158,2.1179 0.72912,4.2844 1.58704,4.8142 0.85792,0.5298 1.14722,2.5377 0.644,4.4618 -0.532,2.0327 -0.0528,3.4982 1.14263,3.4982 1.13153,0 1.58155,0.7694 1.00016,1.7107 -2.10291,3.4026 14.24794,56.7302 25.76747,84.0392 68.26624,161.8366 208.64342,281.9031 376.4878,322.0152 35.36245,8.4504 56.88542,10.6601 114.09903,11.7137 69.36575,1.2768 101.68761,-1.4683 146.87143,-12.4734 101.8902,-24.8167 199.4991,-83.1133 271.753,-162.3036 78.5947,-86.1395 128.7868,-196.6003 138.6234,-305.07686 2.2859,-25.20492 2.231,-103.04759 -0.09,-128.625 -4.881,-53.78553 -19.5908,-107.99172 -43.9108,-161.80958 -5.6381,-12.47652 -10.2514,-22.9109 -10.2514,-23.1875 0,-0.27664 52.782,-0.50288 117.2934,-0.50288 h 117.2932 l 1.8402,4.81252 c 1.008,2.6469 4.9324,15.37404 8.7124,28.28259 12.4277,42.44146 22.7943,97.07816 28.0869,148.02992 3.2604,31.38129 2.7989,113.13018 -0.8288,146.125 -10.5627,96.20709 -35.3494,180.52209 -78.2603,266.21759 -41.9266,83.7299 -84.6495,139.7381 -165.2661,216.6583 -56.566,53.9723 -106.6431,88.8703 -179.7699,125.2787 -81.0754,40.3659 -161.5705,64.2919 -253.35497,75.3061 -22.17768,2.6611 -111.2188,4.9213 -128.625,3.2648 z"
     id="path2503" />
  <path
     style="fill:#d4aa00;stroke-width:0.4375"
     d="M 677.03125,1632.9186 C 582.1633,1604.9249 488.34692,1555.1645 410.26969,1491.4273 l -7.22255,-5.8957 2.79093,-0.1344 2.79104,-0.1344 3.6073,3.0027 c 18.51888,15.4179 46.11192,35.5821 68.79479,50.273 65.43829,42.3822 133.27004,73.264 208.32149,94.8427 l 8.24096,2.37 -5.46874,-9e-4 c -5.44858,-9e-4 -5.50424,-0.012 -15.09375,-2.8415 z"
     id="path2513" />
  <path
     style="fill:#d4aa00;stroke-width:0.4375"
     d="m 683.15625,1634.453 c -13.52167,-3.797 -38.69325,-12.0919 -53.375,-17.5892 -79.31333,-29.6972 -152.63556,-71.6555 -218.80039,-125.2076 l -7.0271,-5.6874 2.15835,-0.28 2.15835,-0.28 9.91167,7.9509 c 77.671,62.302 167.4282,109.4377 261.6929,137.4271 5.41408,1.6072 11.02506,3.2894 12.46875,3.7363 l 2.62494,0.8176 -4.37505,-0.01 c -3.00194,0 -5.33613,-0.28 -7.43747,-0.8624 z"
     id="path2515" />
  <path
     style="fill:#d4aa00;stroke-width:0.4375"
     d="m 869.19501,1663.3774 c -60.4436,-2.2075 -115.27566,-10.0554 -169.83119,-24.3079 -6.00455,-1.5691 -11.02002,-2.9546 -11.14546,-3.08 -0.12544,-0.1232 2.32647,-0.1568 5.44869,-0.076 5.36166,0.1456 6.35667,0.3248 17.9267,3.2838 88.38729,22.5923 186.91878,28.561 279.69919,16.9433 64.37736,-8.0607 127.47796,-24.4188 186.71806,-48.4034 l 7.9172,-3.2055 3.6658,0.1456 c 2.212,0.088 3.4104,0.2912 3.0206,0.504 -1.3809,0.7616 -19.7983,8.0752 -28.7989,11.4291 -72.8711,27.1574 -147.5573,42.1926 -230.19092,46.3403 -12.15686,0.6048 -52.15228,0.8736 -64.43,0.4256 z"
     id="path2521" />
</svg>
